SplineFontDB: 1.0
FontName: TlwgMono-BoldOblique
FullName: Tlwg Mono Bold Oblique
FamilyName: TlwgMono
Weight: Bold
Copyright: TlwgMono-Bold, Free Thai Monospace outline font.\n\nCopyright (C) 2003 Poonlap Veerathanabutr <poonlap@linux.thai.net>\n\nThis program is free software; you can redistribute it and/or modify it under the terms of the GNU General Public License as published by the Free Software Foundation; either version 1, or (at your option) any later version.\n\nThis program is distributed in the hope that it will be useful, but WITHOUT ANY WARRANTY; without even the implied warranty of MERCHANTABILITY or FITNESS FOR A PARTICULAR PURPOSE. See the GNU General Public License for more details.\n\nYou should have received a copy of the GNU General Public License along with this program; if not, write to the Free Software Foundation, Inc., 675 Mass Ave, Cambridge, MA 02139, USA.
Comments: 2003-11-26: Created. \nPfaEdit 1.0 (http://pfaedit.sf.net).\n\nTLWG is Thai Linux Working Group http://linux.thai.net\n\nImported ISO-8859-1 from FreeMono.sfd.\nhttp://www.nongnu.org/freefont/\n\nCreated from PseudoMono-BoldOblique\n
Version: 001.002: 2005-12-28
ItalicAngle: 0
UnderlinePosition: -100
UnderlineWidth: 50
Ascent: 800
Descent: 200
FSType: 0
PfmFamily: 49
TTFWeight: 700
TTFWidth: 5
LineGap: 90
VLineGap: 0
Panose: 2 0 6 3 0 0 0 0 0 0
OS2TypoAscent: 0
OS2TypoAOffset: 1
OS2TypoDescent: 0
OS2TypoDOffset: 1
OS2TypoLinegap: 0
OS2WinAscent: 0
OS2WinAOffset: 1
OS2WinDescent: 0
OS2WinDOffset: 1
HheadAscent: 0
HheadAOffset: 1
HheadDescent: 0
HheadDOffset: 1
OS2Vendor: 'PfEd'
ScriptLang: 3
 1 thai 1 dflt 
 1 latn 1 dflt 
 1 DFLT 1 dflt 
TtfTable: cvt  8
!$MDh!(6u&
EndTtf
LangName: 1033 "" "" "" "" "" "" "" "" "" "" "" "" "" "The use of this font is granted subject to GNU General Public License." "http://www.gnu.org/licenses/gpl.html" "" "" "" "" "A quick brown fox jumps over the lazy dog." 

StartChar: mu
Encoding: 116 181 0
Width: 600
Flags: W
HStem: -16 100<248 276> 0 21G<410 504> 338 99<445 482>
Fore
193 -7 m 1
 176 -87 l 1
 171 -113 167 -122 157 -132 c 0
 144 -145 128 -153 112 -153 c 0
 89 -153 72 -137 72 -116 c 0
 72 -109 73 -100 76 -87 c 1
 166 338 l 1
 150 338 l 2
 110 338 94 349 94 377 c 0
 94 407 127 440 156 438 c 2
 171 437 l 1
 288 437 l 1
 225 144 l 2
 223 134 222 125 222 120 c 0
 222 98 243 84 276 84 c 0
 321 84 368 100 439 138 c 1
 482 338 l 1
 447 338 l 2
 406 338 390 349 390 377 c 0
 390 393 399 411 413 423 c 0
 428 434 438 437 468 437 c 2
 603 437 l 1
 531 100 l 1
 567 100 583 88 583 61 c 0
 583 44 574 27 559 15 c 0
 545 3 533 0 504 0 c 2
 410 0 l 1
 415 23 l 1
 354 -4 301 -16 249 -16 c 0
 229 -16 212 -13 193 -7 c 1
EndSplineSet
EndChar
StartChar: uni0E31
Encoding: 239 3633 1
Width: 600
Flags: W
VStem: 328 44<583 593>
Fore
422 642 m 4
 400 642 378 621 373 599 c 4
 372 596 372 594 372 591 c 4
 372 573 386 562 405 562 c 4
 427 562 448 577 453 599 c 4
 454 602 454 605 454 608 c 4
 454 626 441 642 422 642 c 4
434 697 m 20
 459 697 480 687 493 674 c 4
 503 664 506 654 506 643 c 4
 506 630 501 615 498 599 c 5
 556 599 607 659 637 682 c 13
 688 621 l 21
 632 564 600 539 534 515 c 20
 508 505 485 502 465 502 c 4
 439 502 415 507 389 514 c 4
 354 523 328 547 328 583 c 4
 328 588 329 593 330 599 c 12
 341 650 383 697 434 697 c 20
EndSplineSet
EndChar
StartChar: uni0E34
Encoding: 242 3636 2
Width: 600
Flags: W
HStem: 500 57<322 495> 566 20G<391 421 421 445>
VStem: 495 82<557 565>
Fore
421 586 m 4
 412 586 402 586 391 586 c 4
 361 586 328 583 322 557 c 13
 495 557 l 21
 496 559 496 561 496 563 c 4
 496 584 471 586 445 586 c 4
 437 586 428 586 421 586 c 4
438 666 m 4
 523 666 577 641 577 558 c 4
 577 541 575 522 570 500 c 13
 230 500 l 21
 257 626 326 666 438 666 c 4
EndSplineSet
EndChar
StartChar: uni0E35
Encoding: 243 3637 3
Width: 600
Flags: W
HStem: 500 72<251 379> 603 65<323 344>
VStem: 379 99<572 580>
Fore
325 603 m 12
 296 603 258 602 251 572 c 13
 379 572 l 21
 380 574 380 576 380 578 c 4
 380 600 350 603 325 603 c 12
339 668 m 4
 429 668 478 642 478 572 c 13
 499 668 l 29
 596 668 l 29
 560 500 l 29
 135 500 l 21
 158 606 231 668 339 668 c 4
EndSplineSet
EndChar
StartChar: uni0E36
Encoding: 244 3638 4
Width: 600
Flags: W
HStem: 500 64<282 417> 594 72<335 353>
VStem: 417 63<569 589> 571 46<601 616>
Fore
534 642 m 4
 509 642 484 614 480 595 c 4
 480 589 l 4
 480 571 495 549 518 549 c 4
 543 549 566 576 570 595 c 4
 571 597 571 599 571 601 c 4
 571 620 557 642 534 642 c 4
348 594 m 4
 326 594 287 589 282 564 c 13
 417 564 l 21
 417 566 417 567 417 569 c 4
 417 589 386 594 348 594 c 4
347 666 m 20
 393 666 454 633 454 633 c 5
 454 633 507 686 544 686 c 20
 587 686 617 656 617 616 c 4
 617 610 616 604 615 598 c 4
 607 559 585 546 555 525 c 28
 528 507 479 500 479 500 c 13
 176 500 l 21
 204 630 264 666 347 666 c 20
EndSplineSet
EndChar
StartChar: uni0E37
Encoding: 245 3639 5
Width: 600
Flags: W
HStem: 500 76<235 334 480 516> 605 63<280 303>
Fore
286 605 m 12
 265 605 241 603 235 576 c 13
 334 576 l 21
 335 578 335 582 335 583 c 4
 335 602 311 605 286 605 c 12
301 668 m 20
 361 668 391 635 412 576 c 13
 432 667 l 29
 500 667 l 29
 480 576 l 29
 516 576 l 29
 535 666 l 29
 601 666 l 29
 566 500 l 29
 153 500 l 21
 181 631 222 668 301 668 c 20
EndSplineSet
EndChar
StartChar: uni0E48
Encoding: 262 3656 6
Width: 600
Flags: W
Fore
533 855 m 5
 630 855 l 5
 598 700 l 5
 501 700 l 5
 533 855 l 5
EndSplineSet
EndChar
StartChar: uni0E49
Encoding: 263 3657 7
Width: 600
Flags: W
HStem: 871 33<500 509>
VStem: 421 43<826 839> 527 44<840 851>
Fore
502 871 m 4
 485 871 468 857 464 840 c 4
 464 838 464 835 464 833 c 4
 464 818 474 808 488 808 c 4
 506 808 523 822 527 840 c 4
 528 842 528 844 528 846 c 4
 528 860 517 871 502 871 c 4
509 904 m 20
 542 904 571 879 571 849 c 4
 571 846 571 842 570 839 c 4
 565 816 544 781 544 781 c 5
 544 781 627 796 665 847 c 13
 722 813 l 21
 722 813 686 755 650 732 c 28
 610 706 544 700 535 700 c 6
 394 700 l 13
 411 779 l 21
 455 779 l 5
 455 779 421 794 421 828 c 4
 421 832 421 836 422 840 c 12
 430 878 471 904 509 904 c 20
EndSplineSet
EndChar
StartChar: uni0E4A
Encoding: 264 3658 8
Width: 600
Flags: W
HStem: 697 25<354 362> 775 56<474 474.875>
Fore
367 758 m 4
 357 758 347 750 345 740 c 4
 345 739 344 737 344 736 c 4
 344 728 350 722 359 722 c 4
 369 722 379 730 381 740 c 4
 381 741 381 743 381 744 c 4
 381 752 375 758 367 758 c 4
420 874 m 28
 450 874 474 831 474 831 c 5
 474 831 510 873 537 873 c 20
 569 873 585 863 599 840 c 20
 604 832 606 820 606 808 c 4
 606 789 601 769 601 769 c 13
 681 907 l 29
 725 892 l 29
 613 700 l 5
 525 700 l 21
 535 724 539 745 539 763 c 4
 539 780 535 796 530 810 c 13
 492 775 l 29
 437 775 l 21
 406 813 l 5
 394 804 387 792 384 778 c 5
 384 778 411 775 416 756 c 4
 417 754 417 753 417 751 c 4
 417 731 394 705 370 699 c 4
 366 698 361 697 357 697 c 4
 334 697 317 714 311 732 c 4
 309 739 307 747 307 756 c 4
 307 768 310 781 319 798 c 12
 342 840 375 874 420 874 c 28
EndSplineSet
EndChar
StartChar: uni0E4B
Encoding: 265 3659 9
Width: 600
Flags: W
HStem: 773 73<452 515 633 705>
Fore
515 773 m 5
 437 773 l 5
 453 846 l 5
 531 846 l 5
 548 926 l 5
 650 926 l 5
 633 845 l 5
 721 845 l 5
 705 773 l 5
 617 773 l 5
 602 700 l 5
 500 700 l 5
 515 773 l 5
EndSplineSet
EndChar
StartChar: uni0E4C
Encoding: 266 3660 10
Width: 600
Flags: W
HStem: 695 41<514 524>
VStem: 443 47<753 762> 555 49<767 773>
Fore
491 768 m 4
 490 766 490 763 490 761 c 4
 490 747 500 736 516 736 c 4
 534 736 551 750 555 768 c 4
 555 770 555 773 555 775 c 4
 555 789 545 800 529 800 c 4
 511 800 495 786 491 768 c 4
445 768 m 12
 454 810 491 831 533 849 c 20
 579 870 645 903 717 938 c 29
 745 844 l 29
 604 772 l 5
 604 772 604 771 604 770 c 4
 604 764 603 738 590 726 c 4
 568 705 543 695 519 695 c 4
 509 695 498 697 488 700 c 4
 462 709 443 727 443 754 c 4
 443 758 444 763 445 768 c 12
EndSplineSet
EndChar
StartChar: uni0E4D
Encoding: 267 3661 11
Width: 600
Flags: W
HStem: 500 70<495 510>
VStem: 426 68<573 591> 535 65<599 614>
Fore
520 619 m 4
 514 619 497 608 494 595 c 4
 494 594 494 592 494 591 c 4
 494 579 504 570 510 570 c 4
 515 570 532 581 535 595 c 4
 535 596 535 597 535 599 c 4
 535 610 524 619 520 619 c 4
533 682 m 4
 573 682 600 652 600 614 c 4
 600 608 599 602 598 596 c 4
 587 542 541 500 495 500 c 4
 454 500 426 531 426 574 c 4
 426 581 426 588 428 596 c 4
 438 642 486 682 533 682 c 4
EndSplineSet
EndChar
StartChar: exclam
Encoding: 1 33 13
Width: 600
Flags: W
HStem: -15 132<304 317>
Fore
490 525 m 2
 398 228 l 1
 388 197 366 179 338 179 c 0
 313 179 298 194 298 219 c 0
 298 221 298 225 299 228 c 1
 333 525 l 2
 338 568 344 585 361 603 c 0
 380 625 408 638 435 638 c 0
 474 638 501 613 501 577 c 0
 501 564 499 553 490 525 c 2
305 -15 m 2
 288 -15 l 2
 256 -15 234 7 234 38 c 0
 234 78 274 117 316 117 c 2
 333 117 l 2
 365 117 387 95 387 65 c 0
 387 24 348 -15 305 -15 c 2
EndSplineSet
EndChar
StartChar: quotedbl
Encoding: 2 34 14
Width: 600
Flags: W
HStem: 582 20G<264 392 464 592>
Fore
264 602 m 1
 392 602 l 1
 306 348 l 1
 298 323 287 312 267 312 c 0
 253 312 243 322 243 335 c 0
 243 337 243 342 244 347 c 1
 264 602 l 1
464 602 m 1
 592 602 l 1
 507 348 l 2
 498 322 487 312 467 312 c 0
 453 312 443 322 443 335 c 0
 443 336 443 342 444 347 c 1
 464 602 l 1
EndSplineSet
EndChar
StartChar: numbersign
Encoding: 3 35 15
Width: 600
Flags: W
HStem: 139 99<156 184 312 356 483 504> 344 100<220 242 370 414 541 568>
Fore
541 444 m 1
 566 444 l 2
 586 444 592 443 601 440 c 0
 614 436 623 421 623 404 c 0
 623 388 614 371 600 359 c 128
 586 347 576 344 545 344 c 2
 513 344 l 1
 483 238 l 1
 502 238 l 2
 521 238 529 237 537 234 c 0
 550 230 560 215 560 199 c 128
 560 183 551 165 537 154 c 0
 522 142 511 139 481 139 c 2
 455 139 l 1
 408 -29 l 1
 403 -45 392 -67 386 -73 c 0
 373 -85 357 -92 342 -92 c 0
 320 -92 303 -75 303 -54 c 0
 303 -46 303 -46 310 -22 c 2
 356 139 l 1
 284 139 l 1
 236 -29 l 1
 227 -70 205 -92 172 -92 c 0
 150 -92 132 -75 132 -54 c 0
 132 -46 133 -39 138 -22 c 2
 184 139 l 1
 158 139 l 2
 117 139 101 150 101 179 c 0
 101 194 110 212 124 224 c 0
 139 236 148 238 179 238 c 2
 212 238 l 1
 242 344 l 1
 222 344 l 2
 202 344 195 345 187 348 c 0
 174 353 165 368 165 384 c 128
 165 400 174 418 188 430 c 0
 203 442 211 444 243 444 c 2
 270 444 l 1
 317 612 l 1
 328 654 349 675 382 675 c 0
 404 675 422 658 422 638 c 0
 422 630 421 624 416 605 c 1
 370 444 l 1
 442 444 l 1
 489 612 l 2
 497 640 500 646 510 656 c 0
 522 668 538 675 554 675 c 0
 576 675 594 658 594 635 c 0
 594 630 594 630 587 605 c 2
 541 444 l 1
414 344 m 1
 342 344 l 1
 312 238 l 1
 383 238 l 1
 414 344 l 1
EndSplineSet
EndChar
StartChar: dollar
Encoding: 4 36 16
Width: 600
Flags: W
HStem: 34 195<141 182> 495 189<415 448>
VStem: 196 106<402 424> 458 106<213 235>
Fore
487 646 m 0
 487 637 480 605 477 592 c 1
 488 590 492 590 500 588 c 2
 510 585 l 2
 522 580 527 577 541 574 c 1
 553 579 560 581 570 581 c 0
 593 581 610 565 610 544 c 0
 610 537 609 527 606 515 c 1
 599 483 l 2
 593 455 590 448 580 438 c 0
 567 424 551 417 535 417 c 0
 507 417 492 432 492 460 c 0
 492 478 455 495 415 495 c 0
 350 495 302 465 302 424 c 0
 302 402 323 386 366 377 c 2
 428 363 l 2
 525 342 564 306 564 235 c 0
 564 134 481 50 357 27 c 1
 339 -56 l 2
 333 -84 330 -92 320 -102 c 0
 308 -115 291 -123 276 -123 c 0
 253 -123 236 -107 236 -86 c 0
 236 -79 237 -69 240 -56 c 2
 258 27 l 1
 218 36 212 38 184 52 c 1
 165 38 155 34 141 34 c 0
 117 34 100 50 100 72 c 0
 100 78 101 85 104 101 c 1
 117 162 l 2
 123 190 127 198 137 208 c 0
 150 221 166 229 182 229 c 0
 195 229 208 223 215 214 c 0
 221 207 221 207 222 180 c 0
 224 149 271 124 328 124 c 0
 399 124 458 164 458 214 c 0
 458 240 437 255 389 265 c 2
 319 280 l 2
 237 297 196 338 196 403 c 0
 196 493 275 575 378 592 c 1
 384 618 l 1
 389 645 393 653 403 664 c 0
 415 676 432 684 448 684 c 0
 470 684 487 668 487 646 c 0
EndSplineSet
EndChar
StartChar: percent
Encoding: 5 37 17
Width: 600
Flags: W
HStem: -15 65<363 381> 338 65<298 316>
VStem: 188 66<448 465> 253 67<97 111>
Fore
360 617 m 0
 427 617 473 572 473 506 c 0
 473 419 389 338 299 338 c 0
 235 338 188 385 188 449 c 0
 188 535 272 617 360 617 c 0
346 552 m 0
 299 552 254 508 254 463 c 0
 254 428 279 403 314 403 c 0
 362 403 407 447 407 493 c 0
 407 527 382 552 346 552 c 0
562 331 m 2
 174 213 l 2
 166 210 158 209 153 209 c 0
 140 209 131 220 131 235 c 0
 131 253 142 264 168 272 c 2
 555 390 l 2
 568 394 570 394 576 394 c 0
 590 394 599 383 599 368 c 0
 599 350 588 338 562 331 c 2
425 264 m 0
 492 264 538 219 538 153 c 0
 538 66 454 -15 364 -15 c 0
 300 -15 253 32 253 96 c 0
 253 182 337 264 425 264 c 0
411 199 m 0
 365 199 320 155 320 109 c 0
 320 75 345 50 379 50 c 0
 427 50 472 93 472 139 c 0
 472 175 447 199 411 199 c 0
EndSplineSet
EndChar
StartChar: ampersand
Encoding: 6 38 18
Width: 600
Flags: W
HStem: -14 100<254 279> 0 21G<381 442> 450 100<384 406>
VStem: 102 102<106 129> 219 102<373 392>
Fore
407 198 m 1
 448 280 l 1
 500 280 l 2
 520 280 527 279 535 276 c 0
 548 271 557 256 557 241 c 0
 557 210 531 182 502 180 c 1
 483 140 472 121 455 100 c 1
 463 100 l 2
 483 100 490 99 498 96 c 0
 511 92 520 77 520 60 c 0
 520 44 511 26 497 15 c 0
 483 3 470 0 442 0 c 2
 381 0 l 1
 373 15 l 1
 339 -6 307 -14 255 -14 c 0
 160 -14 102 32 102 106 c 0
 102 186 152 260 236 303 c 1
 223 336 219 355 219 374 c 0
 219 460 315 550 406 550 c 0
 430 550 449 545 473 533 c 1
 485 538 495 540 503 540 c 0
 523 540 541 521 541 501 c 0
 541 473 528 458 488 438 c 2
 441 416 l 1
 419 442 405 450 385 450 c 0
 353 450 321 421 321 392 c 0
 321 384 328 362 338 343 c 1
 407 198 l 1
333 100 m 1
 275 220 l 1
 231 201 204 167 204 129 c 0
 204 100 228 86 275 86 c 0
 300 86 312 89 333 100 c 1
EndSplineSet
EndChar
StartChar: quotesingle
Encoding: 7 39 19
Width: 600
Flags: W
HStem: 582 20G<364 492>
Fore
364 602 m 1
 492 602 l 1
 407 348 l 2
 398 322 387 312 367 312 c 0
 353 312 343 322 343 335 c 0
 343 337 343 342 344 347 c 1
 364 602 l 1
EndSplineSet
EndChar
StartChar: parenleft
Encoding: 8 40 20
Width: 600
Flags: W
VStem: 304 112<118 152>
Fore
572 632 m 0
 596 632 613 616 613 593 c 0
 613 578 608 567 593 549 c 0
 470 401 416 276 416 140 c 0
 416 71 429 9 461 -70 c 0
 466 -82 467 -87 467 -92 c 0
 467 -124 437 -153 405 -153 c 0
 389 -153 377 -147 370 -134 c 0
 333 -72 304 44 304 131 c 0
 304 269 356 398 471 547 c 0
 524 615 544 632 572 632 c 0
EndSplineSet
EndChar
StartChar: parenright
Encoding: 9 41 21
Width: 600
Flags: W
VStem: 291 112<326 360>
Fore
302 632 m 0
 318 632 330 626 337 613 c 0
 374 551 403 435 403 348 c 0
 403 210 353 84 236 -68 c 0
 184 -135 163 -153 135 -153 c 0
 111 -153 94 -137 94 -114 c 0
 94 -99 99 -88 114 -70 c 0
 239 81 291 202 291 340 c 0
 291 408 277 471 246 549 c 0
 241 560 240 565 240 571 c 0
 240 603 269 632 302 632 c 0
EndSplineSet
EndChar
StartChar: asterisk
Encoding: 10 42 22
Width: 600
Flags: W
Fore
298 372 m 1
 218 400 l 2
 188 410 178 420 178 441 c 0
 178 472 207 502 238 502 c 0
 246 502 249 501 269 495 c 2
 349 467 l 1
 368 556 l 1
 378 600 399 622 432 622 c 0
 455 622 472 606 472 584 c 0
 472 578 471 569 468 556 c 2
 449 467 l 1
 541 495 l 2
 563 501 566 502 576 502 c 0
 597 502 614 484 614 462 c 0
 614 432 595 413 552 400 c 2
 460 372 l 1
 497 301 l 2
 506 283 508 276 508 267 c 0
 508 238 477 208 446 208 c 0
 426 208 418 214 403 242 c 1
 367 314 l 1
 299 242 l 2
 273 214 263 208 243 208 c 0
 219 208 202 225 202 248 c 0
 202 265 208 276 231 301 c 2
 298 372 l 1
EndSplineSet
EndChar
StartChar: plus
Encoding: 11 43 23
Width: 600
Flags: W
HStem: 230 100<156 299 421 564>
Fore
399 230 m 1
 365 66 l 1
 359 39 356 31 346 21 c 0
 334 8 316 0 301 0 c 0
 278 0 261 16 261 37 c 0
 261 44 263 57 265 66 c 2
 299 230 l 1
 158 230 l 2
 117 230 101 241 101 270 c 0
 101 286 110 304 124 316 c 0
 139 328 148 330 179 330 c 2
 321 330 l 1
 355 494 l 1
 365 538 386 560 420 560 c 0
 443 560 460 544 460 522 c 0
 460 515 460 513 455 494 c 1
 421 330 l 1
 562 330 l 2
 584 330 588 330 597 326 c 0
 610 321 619 307 619 290 c 0
 619 274 610 257 596 245 c 128
 582 233 570 230 541 230 c 2
 399 230 l 1
EndSplineSet
EndChar
StartChar: comma
Encoding: 12 44 24
Width: 600
Flags: W
Fore
246 134 m 1
 379 134 l 1
 181 -134 l 2
 169 -150 156 -158 144 -158 c 0
 130 -158 118 -148 118 -136 c 0
 118 -129 119 -125 126 -111 c 2
 246 134 l 1
EndSplineSet
EndChar
StartChar: hyphen
Encoding: 13 45 25
Width: 600
Flags: W
HStem: 229 100<156 564>
Fore
541 229 m 2
 158 229 l 2
 117 229 101 240 101 269 c 0
 101 285 110 302 124 314 c 0
 139 327 148 329 179 329 c 2
 562 329 l 2
 581 329 589 328 597 325 c 0
 609 321 619 305 619 290 c 0
 619 273 610 256 596 244 c 128
 582 232 570 229 541 229 c 2
EndSplineSet
EndChar
StartChar: period
Encoding: 14 46 26
Width: 600
Flags: W
HStem: -15 21G<288 305>
Fore
305 -15 m 2
 288 -15 l 2
 256 -15 234 7 234 38 c 0
 234 78 274 117 316 117 c 2
 333 117 l 2
 365 117 387 95 387 65 c 0
 387 24 347 -15 305 -15 c 2
EndSplineSet
EndChar
StartChar: slash
Encoding: 15 47 27
Width: 600
Flags: W
Fore
636 610 m 2
 171 -69 l 2
 148 -103 134 -113 110 -113 c 0
 87 -113 69 -96 69 -74 c 0
 69 -61 74 -49 90 -27 c 1
 555 651 l 2
 578 685 592 695 616 695 c 0
 639 695 656 678 656 656 c 0
 656 643 652 634 636 610 c 2
EndSplineSet
EndChar
StartChar: zero
Encoding: 16 48 28
Width: 600
Flags: W
HStem: -15 100<295 318>
VStem: 130 101<176 198> 501 101<416 446>
Fore
593 359 m 2
 573 264 l 2
 554 174 508 93 447 40 c 0
 405 4 354 -15 296 -15 c 0
 190 -15 130 55 130 179 c 0
 130 207 133 236 139 264 c 2
 159 359 l 2
 178 449 224 530 285 583 c 0
 326 619 378 638 436 638 c 0
 542 638 602 568 602 444 c 0
 602 416 599 387 593 359 c 2
260 366 m 1
 238 257 l 1
 233 237 231 216 231 195 c 0
 231 126 263 85 318 85 c 0
 388 85 449 153 471 257 c 2
 494 366 l 1
 499 386 501 407 501 428 c 0
 501 498 469 538 414 538 c 0
 343 538 283 470 260 366 c 1
EndSplineSet
EndChar
StartChar: one
Encoding: 17 49 29
Width: 600
Flags: W
HStem: 0 100<148 272 371 472>
Fore
486 638 m 1
 371 100 l 1
 472 100 l 2
 492 100 499 99 507 96 c 0
 519 92 529 76 529 61 c 0
 529 44 520 27 506 15 c 0
 492 4 479 0 451 0 c 2
 150 0 l 2
 109 0 93 12 93 40 c 0
 93 56 102 73 116 85 c 0
 131 98 139 100 171 100 c 2
 272 100 l 1
 358 509 l 1
 267 486 l 2
 246 481 243 480 233 480 c 0
 212 480 197 496 197 520 c 0
 197 554 215 572 262 583 c 2
 486 638 l 1
EndSplineSet
EndChar
StartChar: two
Encoding: 18 50 30
Width: 600
Flags: W
HStem: 0 100<228 430> 0 154<485 500>
Fore
228 100 m 1
 430 100 l 1
 440 136 460 154 491 154 c 0
 514 154 531 138 531 116 c 0
 531 109 530 105 527 88 c 1
 508 0 l 1
 54 0 l 1
 76 105 l 1
 258 233 300 263 350 301 c 0
 483 403 500 422 500 465 c 0
 500 507 459 538 403 538 c 0
 363 538 324 523 297 497 c 0
 284 485 283 483 265 451 c 0
 256 434 235 422 214 422 c 0
 192 422 173 439 173 460 c 0
 173 491 212 546 258 582 c 0
 305 618 366 638 426 638 c 0
 530 638 602 575 602 484 c 0
 602 437 584 391 551 352 c 0
 523 320 459 268 352 189 c 1
 228 100 l 1
EndSplineSet
EndChar
StartChar: three
Encoding: 19 51 31
Width: 600
Flags: W
HStem: -15 100<247 305> 538 100<410 438>
VStem: 469 102<199 212>
Fore
357 383 m 2
 398 383 l 2
 454 383 507 429 507 477 c 0
 507 515 470 538 410 538 c 0
 354 538 324 527 284 492 c 0
 274 483 259 477 246 477 c 0
 224 477 206 494 206 516 c 0
 206 578 320 638 438 638 c 0
 543 638 609 582 609 495 c 0
 609 430 569 376 494 336 c 0
 493 336 490 335 487 333 c 1
 544 302 571 262 571 211 c 0
 571 163 539 99 494 58 c 0
 438 6 372 -15 268 -15 c 0
 156 -15 80 15 80 58 c 0
 80 91 109 120 142 120 c 0
 153 120 158 118 171 108 c 0
 193 91 222 85 286 85 c 0
 355 85 394 94 426 119 c 0
 452 139 469 171 469 201 c 0
 469 229 445 259 411 275 c 0
 392 283 378 285 337 287 c 0
 308 289 294 301 294 324 c 0
 294 355 324 383 357 383 c 2
EndSplineSet
EndChar
StartChar: four
Encoding: 20 52 32
Width: 600
Flags: W
HStem: 0 100<307 368> 138 100<248 376> 602 20G<448 579>
Fore
579 622 m 1
 497 238 l 1
 533 238 549 226 549 198 c 0
 549 182 540 165 526 153 c 128
 512 141 502 138 476 138 c 1
 468 100 l 1
 503 100 520 87 520 60 c 0
 520 44 511 27 497 15 c 0
 483 4 469 0 441 0 c 2
 309 0 l 2
 268 0 252 12 252 40 c 0
 252 56 261 73 275 85 c 0
 290 97 299 100 330 100 c 2
 368 100 l 1
 376 138 l 1
 104 138 l 1
 122 221 l 1
 448 622 l 1
 579 622 l 1
397 238 m 1
 449 480 l 1
 248 238 l 1
 397 238 l 1
EndSplineSet
EndChar
StartChar: five
Encoding: 21 53 33
Width: 600
Flags: W
HStem: -15 100<272 308> 522 100<329 555>
Fore
330 522 m 1
 306 407 l 1
 345 418 379 424 410 424 c 0
 511 424 578 357 578 255 c 0
 578 193 554 128 512 79 c 0
 455 13 384 -15 274 -15 c 0
 165 -15 83 22 83 72 c 0
 83 104 113 133 145 133 c 0
 159 133 165 130 177 118 c 0
 202 93 230 85 295 85 c 0
 371 85 416 102 446 142 c 0
 465 167 476 202 476 236 c 0
 476 290 441 324 387 324 c 0
 353 324 305 311 258 290 c 0
 244 284 238 282 229 282 c 0
 206 282 188 300 189 322 c 0
 189 327 190 332 191 338 c 1
 252 622 l 1
 553 622 l 2
 573 622 579 621 588 618 c 0
 601 613 610 599 610 583 c 0
 610 566 601 549 587 537 c 0
 574 525 561 522 532 522 c 2
 330 522 l 1
EndSplineSet
EndChar
StartChar: six
Encoding: 22 54 34
Width: 600
Flags: W
HStem: -15 100<327 354> 294 100<400 428>
VStem: 154 107<176 209> 478 103<213 238>
Fore
276 324 m 1
 335 374 377 394 428 394 c 0
 515 394 581 327 581 238 c 0
 581 180 557 116 518 70 c 0
 470 13 407 -15 328 -15 c 0
 212 -15 154 50 154 180 c 0
 154 276 181 368 231 443 c 0
 272 502 333 558 398 594 c 0
 452 624 502 638 559 638 c 0
 622 638 663 616 663 583 c 0
 663 552 632 522 600 522 c 0
 592 522 581 524 566 530 c 0
 556 534 552 535 543 535 c 0
 453 535 347 464 295 366 c 0
 289 355 286 348 276 324 c 1
262 209 m 1
 261 202 261 197 261 194 c 0
 261 163 271 127 283 110 c 1
 296 95 322 85 352 85 c 0
 395 85 427 101 450 134 c 0
 468 158 478 189 478 214 c 0
 478 260 445 294 401 294 c 128
 357 294 300 259 262 209 c 1
EndSplineSet
EndChar
StartChar: seven
Encoding: 23 55 35
Width: 600
Flags: W
HStem: 522 100<284 513>
Fore
513 522 m 1
 285 522 l 1
 275 486 255 468 224 468 c 0
 201 468 184 484 184 506 c 0
 184 512 185 521 188 534 c 2
 207 622 l 1
 640 622 l 1
 619 523 l 1
 359 48 l 2
 339 12 322 -1 295 -1 c 0
 273 -1 254 17 254 37 c 0
 254 48 257 57 270 81 c 2
 513 522 l 1
EndSplineSet
EndChar
StartChar: eight
Encoding: 24 56 36
Width: 600
Flags: W
HStem: -15 100<294 320> 263 101<356 376>
VStem: 114 104<129 158> 185 100<427 435> 456 100<185 198> 505 103<466 489>
Fore
487 319 m 1
 534 286 556 246 556 198 c 0
 556 154 533 101 499 64 c 0
 454 16 375 -15 295 -15 c 0
 183 -15 114 40 114 129 c 0
 114 205 161 271 248 319 c 1
 204 353 185 386 185 429 c 0
 185 474 214 531 258 570 c 0
 305 613 371 638 435 638 c 0
 537 638 608 576 608 489 c 0
 608 421 569 367 487 319 c 1
413 538 m 0
 341 538 285 492 285 433 c 0
 285 392 321 364 376 364 c 0
 447 364 505 410 505 466 c 0
 505 511 470 538 413 538 c 0
357 263 m 0
 283 263 218 214 218 158 c 0
 218 113 257 85 318 85 c 0
 394 85 456 131 456 187 c 0
 456 231 414 263 357 263 c 0
EndSplineSet
EndChar
StartChar: nine
Encoding: 25 57 37
Width: 600
Flags: W
HStem: -15 103<218 244> 229 100<350 377>
VStem: 197 103<384 408> 516 108<414 445>
Fore
502 299 m 1
 442 248 401 229 350 229 c 0
 263 229 197 296 197 385 c 0
 197 443 221 507 260 553 c 0
 309 610 371 638 450 638 c 0
 566 638 624 573 624 443 c 0
 624 347 597 255 547 180 c 0
 506 121 445 65 380 29 c 0
 326 -1 276 -15 219 -15 c 0
 157 -15 115 7 115 40 c 0
 115 71 146 101 178 101 c 0
 187 101 197 99 212 93 c 0
 222 89 226 88 235 88 c 0
 325 88 431 160 483 257 c 0
 489 268 492 275 502 299 c 1
516 414 m 1
 517 420 517 426 517 428 c 0
 517 461 508 496 495 513 c 0
 482 528 457 538 426 538 c 0
 383 538 351 522 328 489 c 0
 311 465 300 434 300 408 c 0
 300 363 333 329 377 329 c 128
 421 329 478 364 516 414 c 1
EndSplineSet
EndChar
StartChar: colon
Encoding: 26 58 38
Width: 600
Flags: W
HStem: -15 132<304 317> 304 133<372 384>
Fore
305 -15 m 2
 288 -15 l 2
 256 -15 234 7 234 38 c 0
 234 78 274 117 316 117 c 2
 333 117 l 2
 365 117 387 95 387 65 c 0
 387 24 348 -15 305 -15 c 2
373 304 m 2
 356 304 l 2
 324 304 302 326 302 357 c 0
 302 398 342 437 384 437 c 2
 401 437 l 2
 433 437 455 415 455 384 c 0
 455 343 415 304 373 304 c 2
EndSplineSet
EndChar
StartChar: semicolon
Encoding: 27 59 39
Width: 600
Flags: W
HStem: 304 133<340 368>
Fore
247 134 m 1
 379 134 l 1
 181 -134 l 2
 169 -150 156 -158 144 -158 c 0
 130 -158 118 -148 118 -136 c 0
 118 -129 119 -125 126 -111 c 2
 247 134 l 1
368 437 m 0
 409 437 431 418 431 384 c 0
 431 339 391 304 340 304 c 0
 301 304 278 323 278 357 c 0
 278 401 318 437 368 437 c 0
EndSplineSet
EndChar
StartChar: less
Encoding: 28 60 40
Width: 600
Flags: W
Fore
311 279 m 1
 543 143 l 2
 561 132 567 124 567 109 c 0
 567 100 563 90 557 81 c 2
 556 79 l 2
 546 65 528 54 514 54 c 0
 506 54 496 57 486 63 c 2
 102 280 l 1
 577 492 l 2
 590 498 601 501 609 501 c 0
 623 501 636 490 640 476 c 1
 642 473 642 468 642 463 c 0
 642 442 629 425 600 412 c 2
 311 279 l 1
EndSplineSet
EndChar
StartChar: equal
Encoding: 29 61 41
Width: 600
Flags: W
HStem: 138 100<136 544> 322 100<175 582>
Fore
198 422 m 2
 581 422 l 2
 603 422 607 422 616 418 c 0
 629 413 638 399 638 382 c 0
 638 366 629 349 615 337 c 128
 601 325 589 322 560 322 c 2
 177 322 l 2
 136 322 120 333 120 362 c 0
 120 378 129 396 143 408 c 0
 158 420 167 422 198 422 c 2
159 238 m 2
 542 238 l 2
 564 238 568 238 577 234 c 0
 590 229 599 215 599 198 c 0
 599 182 590 164 576 153 c 0
 562 141 550 138 521 138 c 2
 138 138 l 2
 97 138 81 149 81 178 c 0
 81 194 90 212 104 224 c 0
 119 236 128 238 159 238 c 2
EndSplineSet
EndChar
StartChar: greater
Encoding: 30 62 42
Width: 600
Flags: W
Fore
407 275 m 1
 175 412 l 2
 157 422 151 430 151 445 c 0
 151 453 154 463 161 473 c 2
 162 475 l 2
 171 488 190 500 204 500 c 0
 212 500 222 497 232 491 c 2
 616 274 l 1
 141 62 l 2
 128 56 116 53 109 53 c 0
 95 53 82 64 78 78 c 1
 76 81 76 86 76 91 c 0
 76 113 89 129 118 142 c 2
 407 275 l 1
EndSplineSet
EndChar
StartChar: question
Encoding: 31 63 43
Width: 600
Flags: W
HStem: -15 132<306 319>
VStem: 236 153<38 65>
Fore
608 450 m 0
 608 324 509 271 401 228 c 1
 389 192 368 174 339 174 c 0
 317 174 299 191 299 211 c 0
 299 219 299 221 304 240 c 1
 315 296 l 1
 466 349 506 377 506 428 c 0
 506 472 473 498 415 498 c 0
 377 498 340 490 304 474 c 1
 301 460 l 2
 295 432 292 425 282 415 c 0
 270 402 252 394 237 394 c 0
 215 394 197 410 197 431 c 0
 197 437 198 447 201 460 c 2
 218 539 l 1
 327 586 370 598 436 598 c 0
 543 598 608 542 608 450 c 0
308 -15 m 2
 290 -15 l 2
 258 -15 236 7 236 38 c 0
 236 78 276 117 318 117 c 2
 336 117 l 2
 367 117 389 95 389 65 c 0
 389 24 350 -15 308 -15 c 2
EndSplineSet
EndChar
StartChar: at
Encoding: 32 64 44
Width: 600
Flags: W
HStem: -152 78<268 291> 72 81<398 433> 541 79<412 433>
VStem: 98 81<55 89> 262 81<195 213> 501 81<455 473>
Fore
179 78 m 0
 179 -4 204 -74 289 -74 c 0
 334 -74 376 -62 399 -42 c 0
 416 -28 422 -25 434 -25 c 0
 453 -25 466 -38 466 -57 c 0
 466 -107 373 -152 269 -152 c 0
 204 -152 161 -131 133 -85 c 0
 110 -47 98 1 98 59 c 0
 98 90 101 122 108 154 c 2
 144 323 l 2
 181 495 302 620 433 620 c 0
 524 620 582 563 582 473 c 0
 582 459 580 444 577 429 c 2
 517 148 l 1
 530 142 534 135 534 122 c 0
 534 108 527 94 515 84 c 128
 503 74 494 72 469 72 c 2
 396 72 l 2
 316 72 262 122 262 196 c 0
 262 299 364 389 492 398 c 1
 496 417 501 436 501 458 c 0
 501 509 469 541 417 541 c 0
 333 541 249 445 222 317 c 2
 189 161 l 1
 182 130 179 103 179 78 c 0
440 155 m 1
 474 316 l 1
 400 309 343 264 343 211 c 0
 343 177 372 153 413 153 c 0
 419 153 426 153 440 155 c 1
EndSplineSet
EndChar
StartChar: A
Encoding: 33 65 45
Width: 600
Flags: W
HStem: 0 100<44 68 176 200 414 461 575 577> 158 100<273 430> 483 100<239 304>
Fore
450 158 m 1
 212 158 l 1
 176 100 l 1
 199 100 l 2
 220 100 226 99 234 96 c 0
 247 92 256 76 256 60 c 128
 256 44 247 27 233 15 c 128
 219 3 207 0 178 0 c 2
 46 0 l 2
 5 0 -11 11 -11 40 c 0
 -11 56 -2 74 12 85 c 0
 27 97 37 100 68 100 c 1
 304 483 l 1
 241 483 l 2
 200 483 184 494 184 523 c 0
 184 539 193 557 207 569 c 0
 222 581 230 583 262 583 c 2
 478 583 l 1
 575 100 l 1
 595 100 602 99 611 96 c 0
 624 91 633 76 633 60 c 128
 633 44 624 26 610 15 c 0
 596 3 583 0 555 0 c 2
 416 0 l 2
 376 0 360 11 360 40 c 0
 360 56 369 73 383 85 c 0
 398 98 406 100 438 100 c 2
 461 100 l 1
 450 158 l 1
430 258 m 1
 392 450 l 1
 273 258 l 1
 430 258 l 1
EndSplineSet
EndChar
StartChar: B
Encoding: 34 66 46
Width: 600
Flags: W
HStem: 0 100<77 115 215 392> 242 100<266 392> 563 20G<203 455>
VStem: 504 104<165 189>
Fore
115 100 m 1
 196 483 l 1
 181 483 l 2
 140 483 125 494 125 523 c 0
 125 539 134 556 148 569 c 1
 162 580 172 583 203 583 c 2
 455 583 l 2
 512 583 552 569 582 539 c 0
 606 515 620 482 620 448 c 0
 620 391 590 345 529 305 c 1
 584 275 608 239 608 189 c 0
 608 147 585 97 549 63 c 0
 505 21 446 0 374 0 c 2
 79 0 l 2
 38 0 22 12 22 40 c 0
 22 56 31 73 45 85 c 128
 59 97 69 100 100 100 c 2
 115 100 l 1
266 342 m 1
 379 342 l 2
 458 342 518 380 518 431 c 0
 518 464 485 483 429 483 c 2
 296 483 l 1
 266 342 l 1
215 100 m 1
 390 100 l 2
 464 100 504 123 504 166 c 0
 504 213 456 242 380 242 c 2
 245 242 l 1
 215 100 l 1
EndSplineSet
EndChar
StartChar: C
Encoding: 35 67 47
Width: 600
Flags: W
HStem: -14 100<322 353> 367 216<577 623> 497 100<413 434>
VStem: 80 102<194 216>
Fore
567 563 m 2
 576 559 l 1
 593 576 606 583 623 583 c 0
 646 583 663 567 663 545 c 0
 663 538 663 534 659 517 c 1
 641 433 l 1
 635 407 632 398 622 388 c 0
 610 375 593 367 577 367 c 0
 553 367 537 383 538 406 c 1
 539 425 l 2
 541 463 482 497 415 497 c 0
 313 497 222 420 200 315 c 1
 193 284 182 249 182 214 c 0
 182 135 245 86 347 86 c 0
 393 86 436 95 463 109 c 0
 475 116 476 116 508 143 c 0
 522 154 534 159 547 159 c 0
 570 159 588 141 588 118 c 0
 588 99 576 80 550 59 c 0
 493 11 414 -14 324 -14 c 0
 176 -14 80 69 80 195 c 0
 80 213 82 231 86 249 c 2
 100 315 l 2
 134 475 277 597 432 597 c 0
 484 597 517 589 567 563 c 2
EndSplineSet
EndChar
StartChar: D
Encoding: 36 68 48
Width: 600
Flags: W
HStem: 0 100<78 96 196 312> 483 100<276 408>
Fore
96 100 m 1
 177 483 l 1
 142 483 126 496 126 523 c 0
 126 539 135 556 149 569 c 0
 164 581 172 583 204 583 c 2
 417 583 l 2
 539 583 622 497 622 369 c 0
 622 330 612 292 605 258 c 1
 590 185 553 123 497 75 c 0
 437 23 371 0 285 0 c 2
 80 0 l 2
 39 0 23 12 23 40 c 0
 23 56 32 73 46 85 c 128
 60 97 71 100 96 100 c 1
196 100 m 1
 306 100 l 2
 366 100 401 112 440 144 c 0
 475 174 495 210 506 261 c 2
 516 307 l 2
 519 321 520 335 520 350 c 0
 520 392 503 434 475 457 c 0
 456 474 424 483 387 483 c 2
 277 483 l 1
 196 100 l 1
EndSplineSet
EndChar
StartChar: E
Encoding: 37 69 49
Width: 600
Flags: W
HStem: 0 100<78 116 216 471> 0 219<535.937 551> 366 217<546 558>
Fore
246 243 m 1
 216 100 l 1
 471 100 l 1
 483 152 l 1
 488 180 492 188 502 198 c 0
 514 212 531 219 546 219 c 0
 569 219 587 203 587 182 c 0
 587 174 586 170 583 152 c 1
 550 0 l 1
 80 0 l 2
 40 0 23 12 23 40 c 0
 23 56 32 74 46 85 c 0
 61 98 70 100 101 100 c 2
 116 100 l 1
 197 483 l 1
 182 483 l 2
 141 483 125 494 125 523 c 0
 125 539 134 557 149 569 c 0
 163 581 172 583 204 583 c 2
 652 583 l 1
 620 433 l 2
 614 405 611 397 601 387 c 0
 589 374 572 366 556 366 c 0
 534 366 516 382 516 404 c 0
 516 426 526 462 531 483 c 1
 297 483 l 1
 267 342 l 1
 352 342 l 1
 353 349 l 1
 359 378 362 385 372 395 c 0
 385 408 402 416 417 416 c 0
 440 416 457 400 457 378 c 0
 457 370 457 369 453 349 c 1
 428 236 l 2
 422 208 419 201 409 190 c 0
 397 178 380 170 365 170 c 0
 342 170 325 186 325 207 c 0
 325 213 328 233 331 243 c 1
 246 243 l 1
EndSplineSet
EndChar
StartChar: F
Encoding: 38 70 50
Width: 600
Flags: W
HStem: 0 100<78 116 216 315> 366 217<568.575 584>
Fore
246 243 m 1
 216 100 l 1
 315 100 l 2
 335 100 342 99 350 96 c 0
 363 92 372 76 372 61 c 0
 372 44 363 27 349 15 c 0
 335 4 322 0 294 0 c 2
 80 0 l 2
 39 0 23 12 23 40 c 0
 23 56 32 73 46 85 c 0
 61 97 70 100 101 100 c 2
 116 100 l 1
 197 483 l 1
 182 483 l 2
 141 483 125 494 125 523 c 0
 125 539 134 556 148 569 c 0
 163 581 172 583 204 583 c 2
 674 583 l 1
 642 432 l 1
 636 405 633 397 623 387 c 0
 610 374 594 366 578 366 c 0
 556 366 538 382 538 403 c 0
 538 427 548 460 553 483 c 1
 297 483 l 1
 267 342 l 1
 351 342 l 1
 353 349 l 1
 362 393 385 415 417 415 c 0
 440 415 457 399 457 377 c 0
 457 369 457 368 452 349 c 1
 428 236 l 1
 423 209 419 200 409 190 c 0
 397 177 380 169 364 169 c 0
 342 169 325 185 325 206 c 0
 325 214 328 233 331 243 c 1
 246 243 l 1
EndSplineSet
EndChar
StartChar: G
Encoding: 39 71 51
Width: 600
Flags: W
HStem: -14 100<318 357> 180 100<387 488> 497 100<421 448>
VStem: 79 102<183 201>
Fore
588 180 m 1
 560 48 l 1
 460 0 407 -14 327 -14 c 0
 257 -14 193 2 149 32 c 0
 103 63 79 115 79 184 c 0
 79 205 81 225 86 246 c 1
 101 317 l 2
 131 460 264 597 444 597 c 0
 498 597 544 587 583 565 c 1
 599 589 611 597 630 597 c 0
 652 597 667 582 667 560 c 0
 667 552 667 550 663 531 c 2
 646 453 l 2
 640 426 637 418 627 408 c 0
 615 395 598 387 582 387 c 0
 569 387 556 393 551 402 c 0
 546 409 546 409 544 440 c 0
 542 475 496 497 423 497 c 0
 313 497 223 425 201 317 c 1
 193 281 181 241 181 199 c 0
 181 127 239 86 342 86 c 0
 391 86 431 94 474 111 c 1
 488 180 l 1
 389 180 l 2
 348 180 332 191 332 220 c 0
 332 236 341 254 355 266 c 0
 370 278 379 280 410 280 c 2
 585 280 l 2
 605 280 611 279 620 276 c 0
 633 272 642 257 642 241 c 0
 642 212 621 189 588 180 c 1
EndSplineSet
EndChar
StartChar: H
Encoding: 40 72 52
Width: 600
Flags: W
HStem: 0 100<86 116 216 232 392 430 530 536> 241 100<267 460> 563 20G<233 333 518 618>
VStem: 32 255<40 60> 155 235<523 544> 337 255<40 60> 440 235<523 544>
Fore
460 241 m 1
 246 241 l 1
 216 100 l 1
 230 100 l 2
 249 100 257 99 265 96 c 0
 278 92 287 76 287 60 c 128
 287 44 278 27 264 15 c 128
 250 3 238 0 209 0 c 2
 88 0 l 2
 48 0 32 11 32 40 c 0
 32 56 41 73 55 85 c 128
 69 97 79 100 110 100 c 2
 116 100 l 1
 197 483 l 1
 169 485 155 498 155 523 c 0
 155 539 164 556 178 569 c 0
 193 581 202 583 233 583 c 2
 333 583 l 2
 353 583 360 582 368 579 c 0
 381 575 390 560 390 544 c 0
 390 527 381 509 367 498 c 0
 352 486 343 483 312 483 c 2
 297 483 l 1
 267 341 l 1
 481 341 l 1
 511 483 l 1
 496 483 l 2
 477 483 471 484 462 487 c 0
 449 492 440 506 440 523 c 0
 440 539 449 556 463 569 c 0
 477 581 487 583 518 583 c 2
 618 583 l 2
 638 583 645 582 653 579 c 0
 666 575 675 560 675 544 c 0
 675 511 649 486 611 483 c 1
 530 100 l 1
 536 100 l 2
 556 100 562 99 570 96 c 0
 583 92 592 76 592 60 c 128
 592 44 583 27 569 15 c 0
 556 3 543 0 515 0 c 2
 394 0 l 2
 353 0 337 11 337 40 c 0
 337 56 346 73 360 85 c 0
 375 97 384 100 415 100 c 2
 430 100 l 1
 460 241 l 1
EndSplineSet
EndChar
StartChar: I
Encoding: 41 73 53
Width: 600
Flags: W
HStem: 0 100<148 272 372 474> 483 100<250 353 452 576>
Fore
453 483 m 1
 372 100 l 1
 472 100 l 2
 492 100 499 99 507 96 c 0
 520 92 529 77 529 61 c 0
 529 44 520 27 506 15 c 128
 492 3 480 0 451 0 c 2
 150 0 l 2
 109 0 93 11 93 40 c 0
 93 56 102 73 116 85 c 0
 131 98 139 100 171 100 c 2
 272 100 l 1
 353 483 l 1
 252 483 l 2
 211 483 196 494 196 523 c 0
 196 539 205 557 219 568 c 0
 234 581 242 583 274 583 c 2
 575 583 l 2
 595 583 602 582 610 579 c 0
 622 575 632 559 632 544 c 0
 632 527 623 509 609 498 c 0
 594 486 584 483 554 483 c 2
 453 483 l 1
EndSplineSet
EndChar
StartChar: J
Encoding: 42 74 54
Width: 600
Flags: W
HStem: -14 100<265 288> 483 100<371 492 591 672>
Fore
592 483 m 1
 529 187 l 2
 515 121 490 83 434 43 c 0
 384 6 324 -14 266 -14 c 128
 208 -14 146 6 64 51 c 1
 98 213 l 1
 104 240 108 249 118 259 c 0
 130 272 147 280 163 280 c 0
 186 280 203 264 203 243 c 0
 203 235 202 232 199 213 c 1
 178 117 l 1
 223 95 255 86 288 86 c 0
 324 86 363 100 391 122 c 0
 417 143 422 152 431 198 c 1
 492 483 l 1
 373 483 l 2
 332 483 316 494 316 523 c 0
 316 539 325 556 339 569 c 0
 354 581 363 583 394 583 c 2
 670 583 l 2
 690 583 697 582 705 579 c 0
 718 575 727 560 727 543 c 0
 727 527 718 509 704 498 c 0
 690 486 679 483 649 483 c 2
 592 483 l 1
EndSplineSet
EndChar
StartChar: K
Encoding: 43 75 55
Width: 600
Flags: W
HStem: 0 100<77 115 215 247 524 551> 483 100<179 196 295 354 613.031 633>
VStem: 452 235<520 544>
Fore
238 208 m 1
 215 100 l 1
 250 100 l 2
 270 100 276 99 284 96 c 0
 297 92 306 76 306 60 c 128
 306 44 297 27 283 15 c 0
 270 4 256 0 228 0 c 2
 79 0 l 2
 38 0 22 12 22 40 c 0
 22 56 31 73 45 85 c 0
 60 98 68 100 100 100 c 2
 115 100 l 1
 196 483 l 1
 181 483 l 2
 140 483 125 494 125 523 c 0
 125 539 134 556 148 569 c 0
 163 581 171 583 203 583 c 2
 352 583 l 2
 372 583 379 582 387 579 c 0
 400 575 409 560 409 543 c 0
 409 527 400 509 386 498 c 0
 372 486 361 483 331 483 c 2
 296 483 l 1
 265 334 l 1
 475 487 l 1
 459 493 452 503 452 520 c 0
 452 538 461 556 476 568 c 0
 490 581 499 583 530 583 c 2
 631 583 l 2
 650 583 657 582 665 579 c 0
 678 575 687 560 687 544 c 0
 687 527 678 510 664 498 c 128
 650 486 640 483 613 483 c 1
 404 330 l 1
 459 298 503 215 525 100 c 1
 557 100 l 2
 577 100 583 99 592 96 c 0
 604 92 614 76 614 61 c 0
 614 45 605 26 591 15 c 128
 577 4 563 0 535 0 c 2
 426 0 l 1
 409 143 365 240 308 259 c 1
 238 208 l 1
EndSplineSet
EndChar
StartChar: L
Encoding: 44 76 56
Width: 600
Flags: W
HStem: 0 100<97 177 277 493> 483 100<200 258 357 438>
Fore
358 483 m 1
 277 100 l 1
 492 100 l 1
 512 192 l 1
 517 219 521 228 531 238 c 0
 544 252 560 259 576 259 c 0
 599 259 616 243 616 221 c 0
 616 215 615 207 612 192 c 2
 571 0 l 1
 99 0 l 2
 58 0 42 12 42 40 c 0
 42 56 51 74 65 85 c 0
 80 98 88 100 120 100 c 2
 177 100 l 1
 258 483 l 1
 202 483 l 2
 161 483 145 494 145 523 c 0
 145 539 154 557 168 569 c 0
 183 581 191 583 223 583 c 2
 436 583 l 2
 456 583 463 582 471 579 c 0
 484 575 493 560 493 543 c 0
 493 527 484 509 470 498 c 0
 455 486 445 483 415 483 c 2
 358 483 l 1
EndSplineSet
EndChar
StartChar: M
Encoding: 45 77 57
Width: 600
Flags: W
HStem: 0 100<45 63 163 182 425 483> 563 20G<180 288 562 671>
VStem: -10 264<40 61> 370 264<40 61>
Fore
224 389 m 1
 163 100 l 1
 198 100 l 2
 218 100 224 99 232 96 c 0
 245 92 254 76 254 61 c 0
 254 44 245 27 231 15 c 0
 217 4 204 0 176 0 c 2
 47 0 l 2
 6 0 -10 11 -10 40 c 0
 -10 56 -1 74 13 85 c 0
 27 97 38 100 63 100 c 1
 144 483 l 1
 115 486 102 498 102 523 c 0
 102 539 111 557 125 569 c 0
 139 580 149 583 180 583 c 2
 288 583 l 1
 363 286 l 1
 562 583 l 1
 671 583 l 2
 691 583 698 582 706 579 c 0
 719 575 728 560 728 544 c 0
 728 530 722 515 711 504 c 0
 698 490 688 485 664 483 c 1
 583 100 l 1
 618 100 634 88 634 61 c 0
 634 44 625 26 611 15 c 128
 597 4 584 0 556 0 c 2
 427 0 l 2
 386 0 370 11 370 40 c 0
 370 56 379 73 393 85 c 0
 408 98 416 100 448 100 c 2
 483 100 l 1
 544 389 l 1
 380 138 l 1
 289 138 l 1
 224 389 l 1
EndSplineSet
EndChar
StartChar: N
Encoding: 46 78 58
Width: 600
Flags: W
HStem: 0 100<76 94 194 214> 483 100<158 175 496 532 633.031 651>
VStem: 21 264<40 61> 442 264<523 543>
Fore
256 394 m 1
 194 100 l 1
 229 100 l 2
 249 100 255 99 263 96 c 0
 276 92 285 77 285 61 c 0
 285 44 276 27 262 15 c 0
 249 4 235 0 207 0 c 2
 78 0 l 2
 37 0 21 11 21 40 c 0
 21 56 30 73 44 85 c 128
 58 97 68 100 94 100 c 1
 175 483 l 1
 160 483 l 2
 119 483 104 494 104 523 c 0
 104 539 113 556 127 568 c 128
 141 580 151 583 182 583 c 2
 296 583 l 1
 471 191 l 1
 533 483 l 1
 498 483 l 2
 457 483 442 494 442 523 c 0
 442 539 451 556 465 569 c 0
 480 581 488 583 519 583 c 2
 649 583 l 2
 669 583 676 582 684 579 c 0
 697 575 706 560 706 543 c 0
 706 527 697 510 683 498 c 128
 669 486 658 483 633 483 c 1
 530 0 l 1
 432 0 l 1
 256 394 l 1
EndSplineSet
EndChar
StartChar: O
Encoding: 47 79 59
Width: 600
Flags: W
HStem: -14 100<296 318>
VStem: 75 103<219 245>
Fore
426 597 m 0
 554 597 649 498 649 366 c 0
 649 270 610 174 541 102 c 128
 472 30 380 -14 297 -14 c 0
 170 -14 75 86 75 220 c 0
 75 312 116 411 182 481 c 0
 250 552 345 597 426 597 c 0
405 497 m 0
 290 497 178 371 178 243 c 0
 178 153 237 86 317 86 c 0
 434 86 546 211 546 342 c 0
 546 431 486 497 405 497 c 0
EndSplineSet
EndChar
StartChar: P
Encoding: 48 80 60
Width: 600
Flags: W
HStem: 0 100<78 116 216 314> 200 100<258 360> 563 20G<203 436>
Fore
237 200 m 1
 216 100 l 1
 314 100 l 2
 334 100 341 99 349 96 c 0
 361 92 371 76 371 61 c 0
 371 45 362 26 348 15 c 0
 335 4 321 0 293 0 c 2
 80 0 l 2
 39 0 23 12 23 40 c 0
 23 56 32 73 46 85 c 128
 60 97 70 100 101 100 c 2
 116 100 l 1
 197 483 l 1
 182 483 l 2
 140 483 125 494 125 523 c 0
 125 539 134 556 148 569 c 0
 163 581 172 583 203 583 c 2
 436 583 l 2
 548 583 617 525 617 431 c 0
 617 384 596 331 558 289 c 0
 502 225 440 200 335 200 c 2
 237 200 l 1
297 483 m 1
 258 300 l 1
 376 300 l 2
 454 300 509 347 509 414 c 0
 509 457 473 483 415 483 c 2
 297 483 l 1
EndSplineSet
EndChar
StartChar: Q
Encoding: 49 81 61
Width: 600
Flags: W
HStem: -145 100<412 434> -7 92<285 317>
VStem: 75 102<219 244>
Fore
269 -6 m 1
 261 -30 l 1
 286 -26 298 -25 312 -25 c 0
 339 -25 363 -29 394 -38 c 0
 416 -44 422 -45 434 -45 c 0
 449 -45 458 -42 480 -30 c 0
 506 -15 512 -13 524 -13 c 0
 548 -13 565 -29 565 -52 c 0
 565 -71 554 -90 536 -102 c 0
 496 -129 450 -145 413 -145 c 0
 389 -145 384 -144 340 -125 c 0
 330 -121 308 -117 295 -117 c 0
 273 -117 206 -128 163 -138 c 0
 151 -141 141 -143 134 -143 c 0
 113 -143 96 -125 96 -104 c 128
 96 -83 103 -71 125 -53 c 2
 200 7 l 1
 145 43 119 67 102 101 c 128
 85 135 75 177 75 220 c 0
 75 413 246 597 427 597 c 0
 555 597 649 497 649 363 c 0
 649 243 586 130 476 53 c 0
 416 10 360 -7 286 -7 c 0
 284 -7 277 -7 269 -6 c 1
405 497 m 0
 290 497 177 371 177 242 c 0
 177 152 237 85 317 85 c 0
 434 85 546 210 546 342 c 0
 546 431 486 497 405 497 c 0
EndSplineSet
EndChar
StartChar: R
Encoding: 50 82 62
Width: 600
Flags: W
HStem: 0 100<78 116 216 248 560 574> 483 100<180 197 296 429>
Fore
242 222 m 1
 216 100 l 1
 251 100 l 2
 269 100 277 99 285 96 c 0
 298 92 307 76 307 60 c 128
 307 44 298 27 284 15 c 0
 271 4 257 0 229 0 c 2
 80 0 l 2
 39 0 23 11 23 40 c 0
 23 56 32 73 46 85 c 0
 61 97 70 100 101 100 c 2
 116 100 l 1
 197 483 l 1
 182 483 l 2
 141 483 126 494 126 523 c 0
 126 539 135 556 149 569 c 0
 164 581 172 583 204 583 c 2
 427 583 l 2
 542 583 612 528 612 438 c 0
 612 362 564 301 469 254 c 1
 506 214 534 166 561 100 c 1
 574 100 l 2
 616 100 631 90 631 60 c 0
 631 44 622 27 608 15 c 0
 595 4 581 0 553 0 c 2
 475 0 l 1
 444 98 377 207 338 222 c 1
 242 222 l 1
263 322 m 1
 339 322 l 2
 430 322 504 366 504 420 c 0
 504 458 466 483 409 483 c 2
 297 483 l 1
 263 322 l 1
EndSplineSet
EndChar
StartChar: S
Encoding: 51 83 63
Width: 600
Flags: W
HStem: -14 100<304 329> 1 198<112 155> 497 100<402 425>
VStem: 167 106<384 411> 470 106<173 199>
Fore
630 531 m 1
 611 443 l 2
 605 415 601 407 592 397 c 0
 579 384 562 376 547 376 c 0
 534 376 521 382 514 391 c 0
 509 398 509 398 508 430 c 0
 508 470 466 497 404 497 c 0
 334 497 273 457 273 411 c 0
 273 396 281 380 293 370 c 0
 307 358 318 355 394 340 c 0
 450 329 478 321 504 309 c 0
 549 288 576 247 576 199 c 0
 576 77 461 -14 306 -14 c 0
 252 -14 202 -1 158 25 c 1
 137 6 128 1 112 1 c 0
 89 1 72 17 72 38 c 0
 72 44 74 55 76 67 c 1
 90 133 l 1
 100 178 120 199 155 199 c 0
 168 199 180 194 187 185 c 0
 192 178 192 178 194 151 c 0
 197 115 254 86 319 86 c 0
 402 86 470 125 470 173 c 0
 470 187 463 200 450 210 c 0
 434 223 414 229 345 242 c 0
 281 253 251 263 223 281 c 0
 189 304 167 344 167 385 c 0
 167 501 284 597 425 597 c 0
 476 597 518 586 548 564 c 1
 564 589 575 597 594 597 c 0
 618 597 634 582 634 561 c 0
 634 554 633 549 630 531 c 1
EndSplineSet
EndChar
StartChar: T
Encoding: 52 84 64
Width: 600
Flags: W
HStem: 0 100<182 270 370 426> 483 100<244 352 451 561>
Fore
452 483 m 1
 370 100 l 1
 436 100 l 2
 456 100 462 99 471 96 c 0
 484 92 493 77 493 61 c 0
 493 44 484 27 470 15 c 0
 456 4 442 0 415 0 c 2
 184 0 l 2
 144 0 128 12 128 40 c 0
 128 56 137 73 151 85 c 0
 166 98 174 100 206 100 c 2
 270 100 l 1
 352 483 l 1
 245 483 l 1
 225 390 l 2
 219 363 216 355 206 345 c 0
 193 332 176 324 161 324 c 0
 139 324 121 341 121 361 c 0
 121 368 122 378 125 390 c 1
 166 583 l 1
 682 583 l 1
 641 390 l 2
 635 362 632 355 622 345 c 0
 610 332 593 324 577 324 c 0
 554 324 537 340 537 361 c 0
 537 368 538 377 541 390 c 2
 561 483 l 1
 452 483 l 1
EndSplineSet
EndChar
StartChar: U
Encoding: 53 85 65
Width: 600
Flags: W
HStem: -14 100<297 321> 483 100<273 331 493 532 632.063 647.096>
VStem: 110 101<157 178>
Fore
705 544 m 0
 705 510 679 483 632 483 c 1
 573 205 l 1
 547 81 427 -14 298 -14 c 0
 189 -14 110 59 110 158 c 0
 110 173 112 188 115 205 c 1
 174 483 l 1
 138 483 123 495 123 523 c 0
 123 539 132 557 146 569 c 0
 161 581 170 583 201 583 c 2
 331 583 l 2
 353 583 357 583 365 579 c 0
 378 575 387 559 387 544 c 0
 387 527 378 509 364 498 c 0
 350 486 339 483 309 483 c 2
 274 483 l 1
 213 196 l 1
 212 189 211 182 211 176 c 0
 211 124 257 86 319 86 c 0
 390 86 458 135 471 196 c 2
 532 483 l 1
 497 483 l 2
 456 483 441 494 441 523 c 0
 441 539 450 556 464 569 c 0
 479 581 487 583 519 583 c 2
 648 583 l 2
 668 583 675 582 683 579 c 0
 696 575 705 560 705 544 c 0
EndSplineSet
EndChar
StartChar: V
Encoding: 54 86 66
Width: 600
Flags: W
HStem: 0 21G<249 347> 483 100<147 149 261 304 522 549 655.031 680>
Fore
333 144 m 1
 550 483 l 1
 525 483 l 2
 505 483 499 484 491 487 c 0
 478 492 469 507 469 523 c 128
 469 539 478 557 492 569 c 0
 507 581 515 583 547 583 c 2
 678 583 l 2
 697 583 705 582 713 579 c 0
 726 575 735 560 735 543 c 0
 735 523 721 501 701 490 c 0
 690 484 682 483 655 483 c 1
 347 0 l 1
 249 0 l 1
 149 483 l 1
 137 483 l 2
 106 485 91 497 91 523 c 0
 91 539 100 557 114 569 c 0
 129 581 138 583 169 583 c 2
 302 583 l 2
 343 583 358 572 358 543 c 0
 358 527 349 510 335 498 c 128
 321 486 311 483 280 483 c 2
 261 483 l 1
 333 144 l 1
EndSplineSet
EndChar
StartChar: W
Encoding: 55 87 67
Width: 600
Flags: W
HStem: 0 21G<98 209 394 504> 417 20G<345 448> 483 100<241 312 513 570>
Fore
359 277 m 1
 209 0 l 1
 98 0 l 1
 139 483 l 1
 114 486 102 498 102 519 c 0
 102 537 111 556 126 569 c 0
 141 581 149 583 180 583 c 2
 312 583 l 2
 332 583 338 582 347 579 c 0
 360 575 369 560 369 543 c 0
 369 527 360 509 346 498 c 0
 331 486 320 483 290 483 c 2
 242 483 l 1
 221 211 l 1
 345 437 l 1
 448 437 l 1
 476 211 l 1
 570 483 l 1
 516 483 l 2
 475 483 460 494 460 523 c 0
 460 539 469 556 483 569 c 0
 497 581 506 583 538 583 c 2
 668 583 l 2
 688 583 695 582 703 579 c 0
 716 575 725 560 725 544 c 0
 725 513 702 489 667 483 c 1
 504 0 l 1
 394 0 l 1
 359 277 l 1
EndSplineSet
EndChar
StartChar: X
Encoding: 56 88 68
Width: 600
Flags: W
HStem: 0 100<75 89> 563 20G<209 300 545 635>
VStem: 19 245<40 60> 131 226<523 544> 356 245<40 60> 467 225<523 544>
Fore
427 297 m 1
 552 100 l 1
 585 100 601 87 601 60 c 0
 601 44 592 27 578 15 c 128
 564 3 552 0 523 0 c 2
 413 0 l 2
 372 0 356 11 356 40 c 0
 356 53 362 68 373 79 c 0
 386 94 398 98 423 100 c 1
 347 220 l 1
 219 100 l 1
 249 99 264 86 264 60 c 0
 264 44 255 26 241 15 c 0
 227 3 215 0 186 0 c 2
 76 0 l 2
 35 0 19 11 19 40 c 0
 19 75 48 100 89 100 c 1
 298 298 l 1
 179 483 l 1
 146 484 131 497 131 523 c 0
 131 539 140 557 154 569 c 0
 168 580 178 583 209 583 c 2
 300 583 l 2
 320 583 326 582 335 579 c 0
 347 575 357 560 357 544 c 0
 357 517 342 500 308 484 c 1
 379 375 l 1
 495 484 l 1
 472 497 467 504 467 523 c 0
 467 539 476 556 490 569 c 1
 505 580 514 583 545 583 c 2
 635 583 l 2
 655 583 662 582 670 579 c 0
 683 575 692 560 692 544 c 0
 692 509 663 484 623 483 c 1
 427 297 l 1
EndSplineSet
EndChar
StartChar: Y
Encoding: 57 89 69
Width: 600
Flags: W
HStem: 0 100<181 272 372 437> 483 100<187 189 616 640>
VStem: 134 224<523 544>
Fore
402 245 m 1
 372 100 l 1
 437 100 l 2
 457 100 464 99 472 96 c 0
 485 92 494 76 494 61 c 0
 494 45 485 26 471 15 c 128
 457 4 444 0 416 0 c 2
 185 0 l 2
 144 0 128 12 128 40 c 0
 128 56 137 74 151 85 c 0
 166 98 175 100 206 100 c 2
 272 100 l 1
 302 245 l 1
 188 483 l 1
 182 483 l 2
 151 483 134 497 134 523 c 0
 134 539 143 557 157 568 c 0
 172 581 181 583 212 583 c 2
 302 583 l 2
 322 583 328 582 336 579 c 0
 349 575 358 560 358 544 c 0
 358 517 341 496 308 483 c 1
 374 348 l 1
 497 483 l 1
 475 492 467 503 467 523 c 0
 467 539 476 556 490 569 c 1
 504 580 514 583 545 583 c 2
 638 583 l 2
 658 583 664 582 672 579 c 0
 685 575 694 559 694 544 c 0
 694 527 685 510 671 498 c 128
 657 486 645 483 620 483 c 2
 617 483 l 1
 402 245 l 1
EndSplineSet
EndChar
StartChar: Z
Encoding: 58 90 70
Width: 600
Flags: W
HStem: 0 100<222 448> 483 100<298 477>
Fore
222 100 m 1
 448 100 l 1
 464 172 l 1
 469 198 474 208 483 218 c 0
 495 230 512 238 528 238 c 0
 551 238 568 222 568 200 c 0
 568 192 568 191 564 172 c 2
 527 0 l 1
 73 0 l 1
 94 100 l 1
 477 483 l 1
 299 483 l 1
 284 413 l 1
 278 387 274 377 265 368 c 0
 252 355 235 347 219 347 c 0
 197 347 179 364 179 384 c 0
 179 392 179 394 184 413 c 1
 220 583 l 1
 628 583 l 1
 607 486 l 1
 222 100 l 1
EndSplineSet
EndChar
StartChar: bracketleft
Encoding: 59 91 71
Width: 600
Flags: W
HStem: 607 20G<384 542>
Fore
462 527 m 1
 340 -48 l 1
 399 -48 l 2
 419 -48 425 -49 434 -52 c 0
 447 -56 456 -71 456 -87 c 0
 456 -104 447 -121 433 -133 c 128
 419 -145 407 -148 378 -148 c 2
 219 -148 l 1
 384 627 l 1
 542 627 l 2
 562 627 568 626 576 623 c 0
 589 618 598 604 598 588 c 128
 598 572 589 554 575 542 c 128
 561 530 550 527 520 527 c 2
 462 527 l 1
EndSplineSet
EndChar
StartChar: backslash
Encoding: 60 92 72
Width: 600
Flags: W
Fore
322 651 m 1
 499 -27 l 2
 502 -38 504 -48 504 -54 c 0
 504 -84 474 -113 443 -113 c 0
 418 -113 408 -103 400 -69 c 1
 224 610 l 1
 220 623 219 630 219 636 c 0
 219 666 249 695 280 695 c 0
 304 695 314 685 322 651 c 1
EndSplineSet
EndChar
StartChar: bracketright
Encoding: 61 93 73
Width: 600
Flags: W
HStem: -148 100<159 240> 527 100<301 361>
Fore
240 -48 m 1
 362 527 l 1
 303 527 l 2
 283 527 277 528 268 531 c 0
 255 535 246 550 246 566 c 0
 246 583 255 600 269 612 c 128
 283 624 295 627 324 627 c 2
 483 627 l 1
 318 -148 l 1
 160 -148 l 2
 140 -148 134 -147 126 -144 c 0
 113 -139 104 -125 104 -109 c 128
 104 -93 113 -75 127 -63 c 128
 141 -51 152 -48 182 -48 c 2
 240 -48 l 1
EndSplineSet
EndChar
StartChar: asciicircum
Encoding: 62 94 74
Width: 600
Flags: W
Fore
404 494 m 1
 257 356 l 2
 229 330 221 325 202 325 c 0
 178 325 161 342 161 365 c 0
 161 384 168 395 193 419 c 2
 438 652 l 1
 584 419 l 2
 595 402 598 395 598 384 c 0
 598 355 567 325 536 325 c 0
 517 325 510 330 494 355 c 2
 404 494 l 1
EndSplineSet
EndChar
StartChar: underscore
Encoding: 63 95 75
Width: 600
Flags: W
HStem: -125 50<-61 564>
Fore
564 -75 m 1
 564 -125 l 1
 -61 -125 l 1
 -61 -75 l 1
 564 -75 l 1
EndSplineSet
EndChar
StartChar: grave
Encoding: 64 96 76
Width: 600
Flags: W
Fore
338 680 m 2
 448 569 l 1
 459 559 464 549 464 540 c 0
 464 517 441 496 418 496 c 0
 409 496 402 500 390 512 c 2
 280 624 l 1
 269 634 264 644 264 652 c 0
 264 675 286 696 310 696 c 0
 320 696 326 693 338 680 c 2
EndSplineSet
EndChar
StartChar: a
Encoding: 65 97 77
Width: 600
Flags: W
HStem: -16 100<218 243> 0 21G<388 505> 196 92<318 348> 350 100<367 394>
VStem: 65 109<98 118> 453 104<311 337>
Fore
388 0 m 1
 393 23 l 1
 340 -2 278 -16 219 -16 c 0
 130 -16 65 32 65 98 c 0
 65 127 79 159 105 190 c 0
 158 253 244 288 346 288 c 0
 378 288 408 285 447 278 c 1
 450 290 453 297 453 311 c 0
 453 338 426 350 369 350 c 0
 337 350 295 344 249 333 c 0
 232 329 218 327 207 327 c 0
 185 327 169 343 169 366 c 0
 169 388 182 408 202 417 c 0
 236 433 334 450 389 450 c 0
 493 450 557 407 557 337 c 0
 557 324 556 314 553 302 c 1
 510 100 l 1
 527 100 l 2
 547 100 553 99 561 96 c 0
 574 92 583 77 583 61 c 0
 583 44 574 27 560 15 c 0
 547 3 534 0 505 0 c 2
 388 0 l 1
418 135 m 1
 428 185 l 1
 390 192 354 196 320 196 c 0
 271 196 230 182 198 156 c 0
 182 142 174 130 174 118 c 0
 174 99 203 84 241 84 c 0
 296 84 355 101 418 135 c 1
EndSplineSet
EndChar
StartChar: b
Encoding: 66 98 78
Width: 600
Flags: W
HStem: -14 100<322 345> 0 100<56 96> 604 20G<191 307>
VStem: 520 103<243 269>
Fore
307 624 m 1
 259 401 l 1
 309 435 360 451 418 451 c 0
 479 451 528 437 560 409 c 0
 600 376 623 324 623 269 c 0
 623 201 592 129 541 77 c 0
 481 16 409 -14 321 -14 c 0
 263 -14 226 -1 182 35 c 1
 174 0 l 1
 58 0 l 2
 18 0 2 11 2 40 c 0
 2 56 11 73 25 85 c 128
 39 97 49 100 80 100 c 2
 96 100 l 1
 186 524 l 1
 170 524 l 2
 128 524 113 535 113 564 c 0
 113 580 122 598 136 610 c 0
 150 621 160 624 191 624 c 2
 307 624 l 1
520 244 m 0
 520 309 477 351 395 351 c 0
 337 351 291 329 255 286 c 0
 231 258 218 224 218 193 c 0
 218 126 264 86 343 86 c 0
 400 86 448 108 483 151 c 0
 506 179 520 213 520 244 c 0
EndSplineSet
EndChar
StartChar: c
Encoding: 67 99 79
Width: 600
Flags: W
HStem: -16 100<317 350> 350 100<380 409>
VStem: 93 102<155 178>
Fore
622 384 m 1
 606 307 l 1
 600 282 596 271 586 261 c 0
 574 249 557 241 541 241 c 0
 529 241 515 247 508 255 c 0
 502 262 501 268 501 289 c 0
 501 306 497 316 486 325 c 0
 463 341 429 350 385 350 c 0
 321 350 271 327 234 282 c 0
 210 252 195 213 195 178 c 0
 195 115 245 84 348 84 c 0
 428 84 464 94 512 128 c 0
 523 136 533 140 545 140 c 0
 568 140 585 123 585 99 c 0
 585 79 570 57 544 39 c 0
 491 2 417 -16 317 -16 c 0
 244 -16 189 -2 154 26 c 0
 115 56 93 104 93 156 c 0
 93 223 124 297 174 351 c 0
 234 416 314 450 407 450 c 0
 463 450 509 440 544 420 c 1
 554 441 567 450 588 450 c 0
 612 450 626 436 626 412 c 0
 626 405 625 400 622 384 c 1
EndSplineSet
EndChar
StartChar: d
Encoding: 68 100 80
Width: 600
Flags: W
HStem: -14 100<277 304> 0 21G<431 547> 351 100<352 378> 604 20G<548 664>
VStem: 74 103<167 193>
Fore
664 624 m 1
 553 100 l 1
 569 100 l 2
 589 100 595 99 603 96 c 0
 616 92 625 77 625 60 c 0
 625 44 616 26 602 15 c 0
 588 3 577 0 547 0 c 2
 431 0 l 1
 439 35 l 1
 379 -1 336 -14 278 -14 c 0
 218 -14 170 0 137 28 c 0
 97 61 74 113 74 168 c 0
 74 236 105 308 156 360 c 0
 217 422 288 451 378 451 c 0
 437 451 481 435 517 401 c 1
 543 525 l 1
 527 525 l 2
 486 525 470 535 470 565 c 0
 470 580 479 598 493 610 c 0
 508 622 517 624 548 624 c 2
 664 624 l 1
354 351 m 0
 297 351 250 329 214 286 c 0
 191 258 177 224 177 193 c 0
 177 126 224 86 302 86 c 0
 361 86 408 108 444 151 c 0
 467 179 481 213 481 244 c 0
 481 279 466 310 439 330 c 0
 421 344 392 351 354 351 c 0
EndSplineSet
EndChar
StartChar: e
Encoding: 69 101 81
Width: 600
Flags: W
HStem: -16 100<293 327> 172 88<200 495> 350 100<361 387>
Fore
587 172 m 1
 178 172 l 1
 189 112 237 84 325 84 c 0
 369 84 398 89 493 112 c 0
 506 115 519 117 528 117 c 0
 551 117 566 101 566 79 c 128
 566 57 554 39 533 28 c 0
 490 5 374 -16 294 -16 c 0
 158 -16 74 55 74 169 c 0
 74 318 221 450 387 450 c 0
 517 450 600 375 600 259 c 0
 600 228 592 199 587 172 c 1
200 260 m 1
 495 260 l 1
 490 314 439 350 367 350 c 0
 293 350 228 315 200 260 c 1
EndSplineSet
EndChar
StartChar: f
Encoding: 70 102 82
Width: 600
Flags: W
HStem: 0 100<138 220 320 459> 337 100<219 270 392 544> 523 100<493 525>
Fore
370 337 m 1
 320 100 l 1
 459 100 l 2
 479 100 486 99 494 96 c 0
 507 92 516 76 516 61 c 0
 516 44 507 27 493 15 c 0
 479 4 466 0 438 0 c 2
 140 0 l 2
 100 0 84 12 84 40 c 0
 84 56 93 73 107 85 c 0
 122 98 130 100 162 100 c 2
 220 100 l 1
 270 337 l 1
 224 337 l 2
 182 337 166 348 166 377 c 0
 166 393 175 411 189 423 c 0
 204 435 213 437 245 437 c 2
 291 437 l 1
 299 474 l 2
 319 566 405 623 525 623 c 0
 566 623 628 616 658 607 c 0
 680 601 691 589 691 570 c 0
 691 539 662 509 632 509 c 0
 626 509 617 510 605 512 c 0
 570 519 525 523 494 523 c 0
 437 523 407 507 399 474 c 1
 392 437 l 1
 542 437 l 2
 563 437 569 436 577 433 c 0
 590 429 599 414 599 397 c 0
 599 381 590 364 576 352 c 128
 562 340 550 337 521 337 c 2
 370 337 l 1
EndSplineSet
EndChar
StartChar: g
Encoding: 71 103 83
Width: 600
Flags: W
HStem: -205 100<161 295> -14 100<264 289> 417 20G<502 619>
VStem: 73 103<167 193>
Fore
495 401 m 1
 502 437 l 1
 619 437 l 2
 639 437 645 436 653 433 c 0
 666 429 675 414 675 397 c 0
 675 381 666 364 652 352 c 128
 638 340 627 337 597 337 c 2
 581 337 l 1
 505 -20 l 1
 483 -126 384 -205 274 -205 c 2
 163 -205 l 2
 122 -205 106 -194 106 -165 c 0
 106 -149 115 -131 129 -120 c 0
 144 -107 153 -105 184 -105 c 2
 293 -105 l 2
 350 -105 394 -72 405 -20 c 2
 417 35 l 1
 363 1 317 -14 265 -14 c 0
 151 -14 73 60 73 168 c 0
 73 318 211 451 365 451 c 0
 418 451 463 434 495 401 c 1
345 351 m 0
 259 351 176 274 176 193 c 0
 176 130 223 86 289 86 c 0
 377 86 459 163 459 244 c 0
 459 307 412 351 345 351 c 0
EndSplineSet
EndChar
StartChar: h
Encoding: 72 104 84
Width: 600
Flags: W
HStem: 0 100<88 117 217 223 401 431 530 538> 350 100<396 428> 604 20G<212 328>
VStem: 471 103<301 325>
Fore
328 624 m 1
 278 389 l 1
 327 430 376 450 428 450 c 0
 516 450 574 401 574 325 c 0
 574 312 573 298 570 284 c 2
 530 100 l 1
 536 100 l 2
 557 100 563 99 571 96 c 0
 584 91 593 76 593 60 c 128
 593 44 584 27 570 15 c 128
 556 3 544 0 515 0 c 2
 403 0 l 2
 362 0 346 11 346 40 c 0
 346 56 355 73 369 85 c 0
 384 97 394 100 425 100 c 2
 431 100 l 1
 467 271 l 1
 470 283 471 294 471 302 c 0
 471 331 442 350 396 350 c 0
 348 350 324 339 256 283 c 1
 217 100 l 1
 223 100 l 2
 243 100 249 99 258 96 c 0
 270 91 280 76 280 60 c 128
 280 44 271 26 257 15 c 0
 243 3 230 0 201 0 c 2
 89 0 l 2
 49 0 33 11 33 40 c 0
 33 56 42 73 56 85 c 0
 71 97 80 100 111 100 c 2
 117 100 l 1
 207 524 l 1
 191 524 l 2
 149 524 134 535 134 564 c 0
 134 580 143 598 157 610 c 0
 171 621 181 624 212 624 c 2
 328 624 l 1
EndSplineSet
EndChar
StartChar: i
Encoding: 73 105 85
Width: 600
Flags: W
HStem: 0 100<127 272 372 493> 337 100<242 322> 603 20G<351 469>
Fore
443 437 m 1
 372 100 l 1
 493 100 l 2
 513 100 520 99 528 96 c 0
 541 92 550 76 550 60 c 128
 550 44 541 27 527 15 c 0
 513 4 500 0 472 0 c 2
 129 0 l 2
 88 0 72 11 72 40 c 0
 72 56 81 73 95 85 c 0
 110 98 118 100 150 100 c 2
 272 100 l 1
 322 337 l 1
 244 337 l 2
 202 337 186 348 186 377 c 0
 186 393 195 411 209 422 c 0
 224 435 233 437 265 437 c 2
 443 437 l 1
469 623 m 1
 446 518 l 1
 328 518 l 1
 351 623 l 1
 469 623 l 1
EndSplineSet
EndChar
StartChar: j
Encoding: 74 106 86
Width: 600
Flags: W
HStem: -205 100<138 273> 337 100<254 460> 603 20G<443 563>
Fore
460 337 m 1
 258 337 l 2
 217 337 201 348 201 377 c 0
 201 393 210 410 224 422 c 0
 239 435 248 437 279 437 c 2
 581 437 l 1
 484 -20 l 1
 462 -125 362 -205 253 -205 c 2
 140 -205 l 2
 99 -205 83 -194 83 -165 c 0
 83 -149 92 -132 106 -120 c 0
 121 -107 130 -105 161 -105 c 2
 271 -105 l 2
 329 -105 373 -72 384 -20 c 2
 460 337 l 1
563 623 m 1
 540 518 l 1
 421 518 l 1
 443 623 l 1
 563 623 l 1
EndSplineSet
EndChar
StartChar: k
Encoding: 75 107 87
Width: 600
Flags: W
HStem: 0 100<96 136 491 525> 417 20G<437 549> 604 20G<231 347>
Fore
249 164 m 1
 215 0 l 1
 98 0 l 2
 58 0 42 11 42 40 c 0
 42 56 51 73 65 85 c 128
 79 97 89 100 120 100 c 2
 136 100 l 1
 226 524 l 1
 210 524 l 2
 169 524 153 534 153 563 c 0
 153 580 162 598 176 610 c 0
 190 621 201 624 231 624 c 2
 347 624 l 1
 275 287 l 1
 367 350 l 1
 361 361 359 366 359 376 c 0
 359 393 367 410 382 422 c 0
 396 434 407 437 437 437 c 2
 549 437 l 2
 590 437 606 426 606 398 c 0
 606 381 597 364 583 352 c 0
 568 340 558 337 528 337 c 2
 501 337 l 1
 362 241 l 1
 492 100 l 1
 525 100 l 2
 544 100 552 99 560 96 c 0
 573 92 582 76 582 60 c 128
 582 44 573 27 559 15 c 128
 545 3 532 0 504 0 c 2
 386 0 l 2
 345 0 329 11 329 40 c 0
 329 57 336 71 354 87 c 1
 270 178 l 1
 249 164 l 1
EndSplineSet
EndChar
StartChar: l
Encoding: 76 108 88
Width: 600
Flags: W
HStem: 0 100<127 272 372 493> 524 100<281 361>
Fore
483 624 m 1
 372 100 l 1
 493 100 l 2
 513 100 520 99 528 96 c 0
 541 92 550 76 550 60 c 128
 550 44 541 27 527 15 c 0
 513 4 500 0 472 0 c 2
 129 0 l 2
 88 0 72 11 72 40 c 0
 72 56 81 73 95 85 c 0
 110 98 118 100 150 100 c 2
 272 100 l 1
 362 524 l 1
 283 524 l 2
 267 524 256 525 249 528 c 0
 236 532 226 548 226 564 c 128
 226 580 235 598 250 610 c 0
 264 621 274 624 305 624 c 2
 483 624 l 1
EndSplineSet
EndChar
StartChar: m
Encoding: 77 109 89
Width: 600
Flags: W
HStem: 0 100<48 64> 350 100<503 527> 417 20G<141 234>
VStem: -9 223<40 60>
Fore
234 437 m 1
 229 413 l 1
 270 441 292 450 322 450 c 0
 361 450 391 434 413 401 c 1
 452 435 487 450 527 450 c 0
 590 450 634 409 634 350 c 0
 634 337 633 330 631 319 c 1
 584 100 l 1
 618 100 635 87 635 60 c 0
 635 44 626 27 612 15 c 128
 598 3 585 0 557 0 c 2
 463 0 l 1
 529 311 l 1
 531 318 531 324 531 330 c 0
 530 343 521 350 503 350 c 0
 476 350 459 341 417 305 c 1
 374 100 l 1
 407 100 424 87 424 60 c 0
 424 44 415 27 401 15 c 128
 387 3 374 0 346 0 c 2
 252 0 l 1
 318 311 l 1
 320 318 321 326 321 329 c 0
 321 343 311 350 293 350 c 0
 265 350 243 339 206 305 c 1
 163 100 l 1
 197 100 214 87 214 60 c 0
 214 44 205 27 191 15 c 128
 177 3 164 0 136 0 c 2
 48 0 l 2
 7 0 -9 11 -9 40 c 0
 -9 75 21 100 63 100 c 1
 113 337 l 1
 79 337 62 350 62 377 c 0
 62 393 71 410 86 422 c 0
 100 434 110 437 141 437 c 2
 234 437 l 1
EndSplineSet
EndChar
StartChar: n
Encoding: 78 110 90
Width: 600
Flags: W
HStem: 0 100<87 117 217 223 414 432> 350 100<394 428> 417 20G<194 288>
VStem: 472 103<301 328>
Fore
288 437 m 1
 278 389 l 1
 336 435 373 450 428 450 c 0
 516 450 575 401 575 328 c 0
 575 312 573 298 570 282 c 1
 531 100 l 1
 566 100 583 87 583 60 c 0
 583 44 574 27 560 15 c 128
 546 3 533 0 505 0 c 2
 416 0 l 2
 375 0 359 11 359 40 c 0
 359 56 368 73 382 85 c 128
 396 97 407 100 432 100 c 1
 469 278 l 2
 471 287 472 294 472 301 c 0
 472 333 444 350 394 350 c 0
 348 350 313 333 255 282 c 1
 217 100 l 1
 223 100 l 2
 243 100 249 99 257 96 c 0
 270 91 279 76 279 60 c 128
 279 44 270 27 256 15 c 128
 242 3 230 0 201 0 c 2
 89 0 l 2
 49 0 33 11 33 40 c 0
 33 56 42 73 56 85 c 128
 70 97 80 100 111 100 c 2
 117 100 l 1
 167 337 l 1
 132 337 115 350 115 377 c 0
 115 393 124 411 138 422 c 0
 153 434 163 437 194 437 c 2
 288 437 l 1
EndSplineSet
EndChar
StartChar: o
Encoding: 79 111 91
Width: 600
Flags: W
HStem: -16 100<296 320>
VStem: 84 102<173 194>
Fore
399 450 m 0
 523 450 609 372 609 260 c 0
 609 115 460 -16 297 -16 c 0
 169 -16 84 60 84 174 c 0
 84 231 111 295 158 346 c 0
 216 410 308 450 399 450 c 0
376 350 m 0
 274 350 186 277 186 192 c 0
 186 129 241 84 318 84 c 0
 419 84 507 158 507 242 c 0
 507 305 452 350 376 350 c 0
EndSplineSet
EndChar
StartChar: p
Encoding: 80 112 92
Width: 600
Flags: W
HStem: -205 100<12 52 152 210> 10 100<325 348> 417 20G<151 267>
Fore
188 66 m 1
 152 -105 l 1
 210 -105 l 2
 228 -105 236 -106 244 -109 c 0
 257 -113 266 -128 266 -144 c 0
 266 -161 257 -178 243 -190 c 128
 229 -202 218 -205 188 -205 c 2
 14 -205 l 2
 -26 -205 -42 -194 -42 -165 c 0
 -42 -149 -33 -132 -19 -120 c 128
 -5 -108 5 -105 36 -105 c 2
 52 -105 l 1
 146 337 l 1
 129 337 l 2
 88 337 73 348 73 377 c 0
 73 393 82 410 96 422 c 128
 110 434 120 437 151 437 c 2
 267 437 l 1
 257 392 l 1
 315 434 361 450 423 450 c 0
 545 450 623 379 623 269 c 0
 623 127 490 10 329 10 c 0
 272 10 231 27 188 66 c 1
398 350 m 0
 301 350 225 290 221 211 c 0
 220 186 232 157 251 139 c 0
 273 120 304 110 346 110 c 0
 387 110 423 120 453 139 c 0
 494 166 522 211 522 252 c 0
 522 312 473 350 398 350 c 0
EndSplineSet
EndChar
StartChar: q
Encoding: 81 113 93
Width: 600
Flags: W
HStem: -205 100<327 408 508 526> 10 100<276 305> 350 100<348 375> 417 20G<523 640>
VStem: 75 104<176 208>
Fore
408 -105 m 1
 444 66 l 1
 384 26 336 10 277 10 c 0
 158 10 75 78 75 177 c 0
 75 250 114 328 177 381 c 0
 231 426 300 450 373 450 c 0
 435 450 474 434 514 392 c 1
 523 437 l 1
 640 437 l 2
 660 437 666 436 674 433 c 0
 687 428 696 414 696 397 c 0
 696 381 687 364 673 352 c 128
 659 340 648 337 618 337 c 2
 602 337 l 1
 508 -105 l 1
 524 -105 l 2
 544 -105 550 -106 559 -109 c 0
 572 -114 581 -128 581 -145 c 0
 581 -161 572 -178 558 -190 c 128
 544 -202 532 -205 503 -205 c 2
 329 -205 l 2
 312 -205 301 -204 294 -201 c 0
 282 -197 272 -181 272 -166 c 0
 272 -150 281 -131 295 -120 c 0
 309 -108 320 -105 350 -105 c 2
 408 -105 l 1
356 350 m 0
 314 350 279 340 248 321 c 0
 207 294 179 249 179 208 c 0
 179 148 228 110 305 110 c 0
 347 110 383 120 413 139 c 0
 453 165 482 211 482 249 c 0
 482 313 435 350 356 350 c 0
EndSplineSet
EndChar
StartChar: r
Encoding: 82 114 94
Width: 600
Flags: W
HStem: 0 100<118 200 300 439> 314 135<541 588> 338 99<223 250> 350 99<517 541>
Fore
371 437 m 1
 358 373 l 1
 455 434 492 449 541 449 c 0
 594 449 650 410 650 375 c 0
 650 345 619 314 588 314 c 0
 557 314 550 350 517 350 c 0
 486 350 438 323 331 248 c 1
 300 100 l 1
 439 100 l 2
 459 100 466 99 474 96 c 0
 487 92 496 76 496 60 c 128
 496 44 487 27 473 15 c 0
 459 4 446 0 418 0 c 2
 120 0 l 2
 80 0 64 11 64 40 c 0
 64 56 73 73 87 85 c 0
 101 98 110 100 141 100 c 2
 200 100 l 1
 250 338 l 1
 215 338 l 2
 175 338 159 349 159 377 c 0
 159 393 168 410 182 422 c 0
 195 433 211 437 236 437 c 2
 371 437 l 1
EndSplineSet
EndChar
StartChar: s
Encoding: 83 115 95
Width: 600
Flags: W
HStem: -16 100<299 330> 1 166<124 159> 281 169<516 555> 350 100<369 396>
VStem: 156 113<289 312> 444 112<131 150>
Fore
516 281 m 0
 490 281 480 296 472 321 c 1
 449 341 418 350 376 350 c 0
 321 350 269 331 269 312 c 0
 269 305 278 296 291 291 c 0
 303 286 309 285 371 276 c 0
 444 266 481 255 507 239 c 0
 538 219 556 187 556 150 c 0
 556 57 445 -16 301 -16 c 0
 243 -16 195 -6 159 13 c 1
 145 4 137 1 124 1 c 0
 100 1 83 16 83 39 c 0
 83 45 84 52 87 67 c 2
 94 100 l 2
 104 146 124 167 159 167 c 0
 185 167 198 153 201 123 c 1
 224 97 264 84 318 84 c 0
 386 84 444 106 444 131 c 0
 444 143 434 155 417 162 c 0
 402 169 381 173 328 179 c 0
 206 192 156 224 156 289 c 0
 156 379 260 450 394 450 c 0
 442 450 482 442 517 424 c 1
 530 444 539 450 555 450 c 0
 577 450 592 436 592 414 c 0
 592 407 591 398 588 384 c 2
 580 347 l 2
 574 320 571 311 561 301 c 0
 548 289 531 281 516 281 c 0
EndSplineSet
EndChar
StartChar: t
Encoding: 84 116 96
Width: 600
Flags: W
HStem: -16 100<290 318> 337 100<149 186 307 490>
VStem: 137 104<92 117>
Fore
286 337 m 1
 244 141 l 2
 242 132 241 123 241 117 c 0
 241 95 267 84 318 84 c 0
 371 84 422 95 472 118 c 0
 490 127 497 129 508 129 c 0
 531 129 547 113 547 89 c 0
 547 67 536 50 512 37 c 0
 457 7 361 -16 291 -16 c 0
 247 -16 203 -4 174 16 c 0
 151 32 137 60 137 92 c 0
 137 104 138 112 140 122 c 2
 186 337 l 1
 151 337 l 2
 110 337 94 348 94 377 c 0
 94 393 103 411 117 423 c 0
 132 435 140 437 172 437 c 2
 207 437 l 1
 226 525 l 1
 231 551 235 561 245 571 c 0
 257 583 274 591 290 591 c 0
 313 591 330 575 330 553 c 0
 330 545 330 544 326 525 c 2
 307 437 l 1
 488 437 l 2
 508 437 514 436 523 433 c 0
 536 429 545 414 545 397 c 0
 545 381 536 364 522 352 c 128
 508 340 496 337 467 337 c 2
 286 337 l 1
EndSplineSet
EndChar
StartChar: u
Encoding: 85 117 97
Width: 600
Flags: W
HStem: -13 100<269 301> 0 21G<410 504> 338 99<148 166 444 482>
VStem: 123 103<109 136>
Fore
603 437 m 1
 531 100 l 1
 566 100 583 87 583 61 c 0
 583 44 574 26 559 15 c 1
 546 3 533 0 504 0 c 2
 410 0 l 1
 420 48 l 1
 360 1 326 -13 270 -13 c 0
 182 -13 123 36 123 110 c 0
 123 127 124 140 128 156 c 1
 166 338 l 1
 150 338 l 2
 110 338 94 349 94 378 c 0
 94 393 103 411 117 423 c 0
 131 434 141 437 172 437 c 2
 288 437 l 1
 229 159 l 1
 227 151 226 144 226 136 c 0
 226 105 253 87 301 87 c 0
 351 87 380 101 443 155 c 1
 482 338 l 1
 447 338 l 2
 406 338 390 349 390 377 c 0
 390 393 399 411 413 423 c 0
 428 434 437 437 468 437 c 2
 603 437 l 1
EndSplineSet
EndChar
StartChar: v
Encoding: 86 118 98
Width: 600
Flags: W
HStem: 0 21G<247 350> 337 100<136 151 264 292 469 481 588 628>
Fore
327 122 m 1
 481 337 l 1
 471 337 l 2
 430 337 414 348 414 377 c 0
 414 393 423 410 437 422 c 128
 451 434 461 437 492 437 c 2
 626 437 l 2
 645 437 653 436 661 433 c 0
 674 429 683 414 683 398 c 0
 683 381 674 364 660 352 c 128
 646 340 635 337 605 337 c 2
 589 337 l 1
 350 0 l 1
 247 0 l 1
 151 337 l 1
 138 337 l 2
 97 337 81 348 81 377 c 0
 81 393 90 410 104 422 c 128
 118 434 129 437 159 437 c 2
 291 437 l 2
 309 437 317 436 325 433 c 0
 338 429 347 413 347 397 c 128
 347 381 338 364 324 352 c 128
 310 340 299 337 270 337 c 2
 264 337 l 1
 327 122 l 1
EndSplineSet
EndChar
StartChar: w
Encoding: 87 119 99
Width: 600
Flags: W
HStem: 0 21G<140 234 373 465> 338 99<233.031 254 512 521>
VStem: 82 226<377 398> 457 227<377 397>
Fore
340 181 m 1
 234 0 l 1
 140 0 l 1
 127 338 l 1
 97 339 82 352 82 377 c 0
 82 393 91 411 105 422 c 0
 120 435 129 437 160 437 c 2
 252 437 l 2
 272 437 278 436 286 433 c 0
 299 429 308 414 308 398 c 128
 308 382 299 364 286 352 c 0
 272 341 263 338 233 338 c 1
 239 185 l 1
 332 343 l 1
 421 343 l 1
 448 185 l 1
 521 338 l 1
 514 338 l 2
 495 338 487 339 479 342 c 0
 466 346 457 361 457 377 c 128
 457 393 466 411 480 422 c 0
 494 434 504 437 535 437 c 2
 627 437 l 2
 647 437 654 436 662 433 c 0
 675 429 684 414 684 397 c 0
 684 384 678 369 667 358 c 0
 654 344 643 340 620 338 c 1
 465 0 l 1
 373 0 l 1
 340 181 l 1
EndSplineSet
EndChar
StartChar: x
Encoding: 88 120 100
Width: 600
Flags: W
HStem: 0 21G<87 197 400 512> 417 20G<198 291 492 584>
VStem: 120 227<377 397> 414 227<376 398>
Fore
421 227 m 1
 545 100 l 1
 575 99 590 86 590 60 c 0
 590 44 581 27 567 15 c 128
 553 3 541 0 512 0 c 2
 400 0 l 2
 359 0 343 11 343 40 c 0
 343 67 364 92 395 100 c 1
 333 161 l 1
 246 100 l 1
 269 89 276 81 276 62 c 0
 276 45 267 27 253 15 c 128
 239 3 226 0 197 0 c 2
 87 0 l 2
 46 0 30 11 30 40 c 0
 30 53 36 68 47 79 c 0
 60 94 72 98 96 100 c 1
 268 228 l 1
 163 337 l 1
 134 340 120 353 120 377 c 0
 120 393 129 411 143 422 c 0
 158 434 168 437 198 437 c 2
 291 437 l 2
 311 437 317 436 325 433 c 0
 338 428 347 414 347 397 c 0
 347 377 333 355 310 342 c 1
 361 293 l 1
 432 343 l 1
 419 354 414 363 414 376 c 0
 414 392 423 410 437 422 c 0
 452 434 462 437 492 437 c 2
 584 437 l 2
 604 437 610 436 619 433 c 0
 632 429 641 414 641 398 c 0
 641 365 615 341 576 337 c 1
 421 227 l 1
EndSplineSet
EndChar
StartChar: y
Encoding: 89 121 101
Width: 600
Flags: W
HStem: -205 100<42 166 274 281> 337 100<255 261>
VStem: 102 224<377 398> 435 227<377 397>
Fore
243 3 m 1
 142 337 l 1
 115 341 102 353 102 377 c 0
 102 393 111 411 125 422 c 0
 140 434 149 437 180 437 c 2
 270 437 l 2
 290 437 296 436 304 433 c 0
 317 429 326 414 326 398 c 0
 326 362 297 338 255 337 c 1
 323 114 l 1
 489 337 l 1
 484 337 l 2
 452 337 435 351 435 377 c 0
 435 393 444 411 458 422 c 0
 472 434 482 437 513 437 c 2
 605 437 l 2
 625 437 632 436 640 433 c 0
 653 429 662 414 662 397 c 0
 662 365 636 341 599 337 c 1
 274 -105 l 1
 279 -105 l 2
 298 -105 306 -106 314 -109 c 0
 327 -113 336 -128 336 -144 c 0
 336 -161 327 -178 313 -190 c 128
 299 -202 287 -205 258 -205 c 2
 44 -205 l 2
 3 -205 -13 -194 -13 -165 c 0
 -13 -149 -4 -132 10 -120 c 0
 25 -108 34 -105 65 -105 c 2
 165 -105 l 1
 243 3 l 1
EndSplineSet
EndChar
StartChar: z
Encoding: 90 122 102
Width: 600
Flags: W
HStem: 0 100<265 441> 0 154<490.488 505> 337 100<268 417>
Fore
265 100 m 1
 441 100 l 1
 451 135 472 154 502 154 c 0
 525 154 542 138 542 117 c 0
 542 110 541 103 538 88 c 2
 519 0 l 1
 85 0 l 1
 103 83 l 1
 417 337 l 1
 269 337 l 1
 267 328 l 2
 261 301 258 293 248 283 c 0
 235 270 219 262 203 262 c 0
 180 262 163 278 163 299 c 0
 163 305 165 319 167 328 c 2
 190 437 l 1
 599 437 l 1
 582 356 l 1
 265 100 l 1
EndSplineSet
EndChar
StartChar: braceleft
Encoding: 91 123 103
Width: 600
Flags: W
VStem: 241 102<-48 -30>
Fore
451 485 m 1
 418 328 l 1
 408 284 398 266 370 240 c 1
 381 222 386 209 386 194 c 0
 386 184 383 164 378 142 c 1
 345 -15 l 1
 344 -21 343 -27 343 -30 c 0
 343 -46 349 -51 373 -52 c 0
 398 -54 413 -69 413 -91 c 0
 413 -126 383 -153 345 -153 c 0
 286 -153 241 -108 241 -48 c 0
 241 -39 242 -31 244 -22 c 2
 280 151 l 1
 282 158 283 165 283 169 c 0
 283 181 276 187 256 189 c 0
 229 192 217 204 217 227 c 0
 217 262 240 286 278 290 c 0
 304 293 312 300 318 328 c 2
 353 492 l 2
 368 563 440 623 511 623 c 0
 539 623 556 608 556 583 c 0
 556 552 529 525 495 522 c 1
 468 522 458 513 451 485 c 1
EndSplineSet
EndChar
StartChar: bar
Encoding: 92 124 104
Width: 600
Flags: W
Fore
468 556 m 2
 331 -87 l 1
 326 -113 322 -122 312 -132 c 0
 299 -145 283 -153 267 -153 c 0
 244 -153 227 -137 227 -116 c 0
 227 -109 228 -100 231 -87 c 1
 368 556 l 1
 373 581 378 592 387 601 c 0
 399 614 416 622 432 622 c 0
 455 622 472 606 472 584 c 0
 472 578 471 570 468 556 c 2
EndSplineSet
EndChar
StartChar: braceright
Encoding: 93 125 105
Width: 600
Flags: W
VStem: 357 102<500 518>
Fore
249 -15 m 1
 282 142 l 1
 292 186 302 204 330 230 c 1
 319 248 314 261 314 276 c 0
 314 286 317 306 322 328 c 1
 355 485 l 1
 356 491 357 497 357 500 c 0
 357 516 351 521 327 522 c 0
 302 524 287 539 287 562 c 0
 287 596 317 623 355 623 c 0
 414 623 459 578 459 518 c 0
 459 509 458 501 456 492 c 2
 420 319 l 1
 418 312 417 305 417 301 c 0
 417 289 424 283 444 281 c 0
 471 278 483 266 483 243 c 0
 483 208 460 184 422 180 c 0
 396 177 388 169 382 142 c 2
 347 -22 l 2
 332 -93 260 -153 189 -153 c 0
 161 -153 144 -138 144 -113 c 0
 144 -82 171 -55 205 -52 c 1
 232 -52 242 -43 249 -15 c 1
EndSplineSet
EndChar
StartChar: asciitilde
Encoding: 94 126 106
Width: 600
Flags: W
Fore
565 364 m 0
 588 364 606 347 606 324 c 0
 606 305 596 288 571 262 c 0
 506 197 474 179 428 179 c 0
 390 179 356 200 308 254 c 0
 291 272 279 281 271 281 c 0
 262 281 250 272 216 239 c 0
 183 207 174 201 156 201 c 0
 133 201 114 219 114 240 c 0
 114 264 128 284 169 322 c 0
 218 367 253 385 295 385 c 128
 337 385 361 370 416 307 c 0
 430 292 441 284 449 284 c 0
 460 284 477 297 508 330 c 0
 534 357 546 364 565 364 c 0
EndSplineSet
EndChar
StartChar: exclamdown
Encoding: 96 161 108
Width: 600
Flags: W
HStem: 294 132<370 382>
Fore
197 -114 m 1
 289 183 l 1
 299 214 321 232 349 232 c 0
 374 232 389 217 389 191 c 0
 389 189 389 186 388 183 c 1
 354 -114 l 2
 349 -158 344 -173 326 -192 c 0
 307 -214 279 -227 252 -227 c 0
 213 -227 186 -202 186 -167 c 0
 186 -154 189 -142 197 -114 c 1
382 426 m 2
 399 426 l 2
 431 426 453 404 453 373 c 0
 453 333 413 294 371 294 c 2
 353 294 l 2
 322 294 300 316 300 346 c 0
 300 387 339 426 382 426 c 2
EndSplineSet
EndChar
StartChar: cent
Encoding: 97 162 109
Width: 600
Flags: W
HStem: 427 234<410 442>
VStem: 144 102<264 288>
Fore
372 99 m 1
 356 22 l 1
 350 -5 346 -13 336 -23 c 0
 324 -36 307 -44 291 -44 c 0
 269 -44 251 -27 251 -7 c 0
 251 1 251 2 255 22 c 1
 273 103 l 1
 191 124 144 183 144 265 c 0
 144 380 237 489 361 517 c 1
 371 554 375 620 397 640 c 1
 410 654 426 661 442 661 c 0
 465 661 482 645 482 623 c 0
 482 616 482 614 477 594 c 1
 463 527 l 1
 493 523 514 515 531 503 c 1
 540 506 546 507 552 507 c 0
 576 507 593 491 593 469 c 0
 593 452 584 417 580 399 c 1
 574 373 571 364 561 354 c 0
 549 341 531 333 516 333 c 0
 504 333 490 339 484 347 c 0
 478 354 478 356 477 384 c 0
 476 414 456 427 410 427 c 0
 322 427 246 363 246 288 c 0
 246 235 290 197 351 197 c 0
 388 197 425 209 464 233 c 0
 478 242 488 245 501 245 c 0
 523 245 541 227 541 204 c 0
 541 158 472 116 372 99 c 1
EndSplineSet
EndChar
StartChar: sterling
Encoding: 98 163 110
Width: 600
Flags: W
HStem: 0 100<267 465> 243 100<148 216 319 389>
Fore
366 243 m 2
 320 243 l 1
 309 180 297 148 267 100 c 1
 471 100 l 1
 482 130 501 146 530 146 c 0
 554 146 571 131 571 108 c 0
 571 83 558 53 539 34 c 0
 515 10 487 0 442 0 c 2
 121 0 l 2
 80 0 64 11 64 40 c 0
 64 72 84 92 126 100 c 1
 170 104 204 156 219 243 c 1
 150 243 l 2
 132 243 124 244 115 247 c 0
 102 252 93 266 93 283 c 0
 93 299 102 317 116 328 c 0
 131 341 140 343 172 343 c 2
 216 343 l 1
 213 361 212 372 212 385 c 0
 212 504 306 598 425 598 c 0
 497 598 563 553 563 505 c 0
 563 474 532 444 501 444 c 0
 483 444 479 447 461 472 c 0
 449 490 430 498 404 498 c 0
 351 498 315 462 315 409 c 0
 315 399 317 363 319 343 c 1
 387 343 l 2
 407 343 413 342 422 339 c 0
 435 334 444 320 444 303 c 0
 444 287 435 270 421 258 c 0
 406 246 396 243 366 243 c 2
EndSplineSet
EndChar
StartChar: currency
Encoding: 99 164 111
Width: 600
Flags: W
HStem: 97 100<319 343>
VStem: 163 103<257 275> 459 102<311 326>
Fore
213 388 m 1
 199 406 171 438 171 461 c 0
 171 489 204 519 234 519 c 0
 251 519 257 515 275 493 c 2
 301 462 l 1
 342 481 368 488 403 488 c 0
 440 488 462 482 495 461 c 1
 532 491 l 2
 559 513 568 517 585 517 c 0
 609 517 626 500 626 476 c 0
 626 456 618 444 589 420 c 2
 551 388 l 1
 558 363 561 341 561 326 c 0
 561 286 543 240 510 196 c 1
 535 162 l 2
 549 144 553 136 553 124 c 0
 553 95 520 64 488 64 c 0
 472 64 465 69 448 90 c 2
 421 122 l 1
 380 103 355 97 320 97 c 128
 285 97 262 103 229 123 c 1
 190 91 l 2
 162 68 155 64 137 64 c 0
 114 64 96 81 96 105 c 0
 96 125 104 137 133 162 c 2
 173 196 l 1
 166 221 163 243 163 258 c 0
 163 297 181 344 213 388 c 1
382 388 m 0
 322 388 266 332 266 273 c 0
 266 230 298 197 341 197 c 0
 401 197 459 254 459 313 c 0
 459 357 427 388 382 388 c 0
EndSplineSet
EndChar
StartChar: yen
Encoding: 100 165 112
Width: 600
Flags: W
HStem: 0 100<199 272 372 418> 135 56<183 278 391 486> 225 56<203 285 435 501> 480 100<187 189 615 638>
Fore
375 348 m 1
 498 481 l 1
 477 487 467 500 467 520 c 0
 467 536 476 553 490 565 c 0
 505 578 514 580 545 580 c 2
 636 580 l 2
 658 580 662 580 671 576 c 0
 684 572 693 557 693 540 c 0
 693 524 684 507 670 495 c 128
 656 483 644 480 618 480 c 2
 616 480 l 1
 435 281 l 1
 507 281 l 2
 526 281 533 275 533 259 c 0
 533 239 517 225 495 225 c 2
 398 225 l 1
 391 191 l 1
 488 191 l 2
 507 191 514 185 514 170 c 0
 514 149 499 135 476 135 c 2
 379 135 l 1
 372 100 l 1
 418 100 l 2
 440 100 444 100 453 96 c 0
 466 91 475 77 475 61 c 0
 475 44 466 27 452 15 c 0
 438 4 425 0 397 0 c 2
 204 0 l 2
 163 0 147 11 147 40 c 0
 147 56 156 74 170 86 c 0
 185 98 194 100 225 100 c 2
 272 100 l 1
 279 135 l 1
 182 135 l 2
 163 135 156 141 156 157 c 0
 156 177 171 191 194 191 c 2
 291 191 l 1
 298 225 l 1
 201 225 l 2
 183 225 176 231 176 247 c 0
 176 267 191 281 213 281 c 2
 285 281 l 1
 189 480 l 1
 181 480 l 2
 150 480 133 494 133 520 c 0
 133 536 142 554 156 565 c 0
 171 578 179 580 211 580 c 2
 303 580 l 2
 325 580 329 580 338 576 c 0
 351 571 360 556 360 541 c 0
 360 513 338 487 310 481 c 1
 375 348 l 1
EndSplineSet
EndChar
StartChar: brokenbar
Encoding: 101 166 113
Width: 600
Flags: W
Fore
468 556 m 2
 425 353 l 1
 419 326 416 318 406 308 c 0
 393 295 377 287 361 287 c 0
 338 287 321 303 321 324 c 0
 321 330 323 344 325 353 c 2
 368 556 l 1
 373 581 378 592 387 601 c 0
 399 614 416 622 432 622 c 0
 455 622 472 606 472 584 c 0
 472 578 471 570 468 556 c 2
374 116 m 2
 331 -87 l 1
 325 -113 322 -122 312 -132 c 0
 299 -145 283 -153 267 -153 c 0
 244 -153 227 -137 227 -116 c 0
 227 -109 228 -100 231 -87 c 1
 274 116 l 1
 280 142 284 151 293 161 c 0
 306 174 323 182 339 182 c 0
 361 182 378 166 378 145 c 0
 378 138 376 125 374 116 c 2
EndSplineSet
EndChar
StartChar: section
Encoding: 102 167 114
Width: 600
Flags: W
HStem: -170 88<152 297> -170 182<124 130> 493 90<395 536>
VStem: 93 100<259 284> 222 88<415 433> 376 89<-21 3> 494 100<126 154>
Fore
536 493 m 1
 392 493 l 2
 350 493 310 464 310 433 c 0
 310 410 340 379 397 342 c 2
 478 291 l 2
 569 233 594 204 594 154 c 0
 594 85 542 27 464 10 c 1
 465 7 465 4 465 3 c 0
 465 -23 457 -51 444 -73 c 0
 406 -137 348 -170 276 -170 c 2
 45 -170 l 1
 72 -43 l 2
 80 -6 98 12 128 12 c 0
 149 12 164 -2 164 -20 c 0
 164 -33 155 -66 152 -82 c 1
 297 -82 l 2
 337 -82 376 -52 376 -21 c 0
 376 2 345 34 291 69 c 2
 198 130 l 2
 123 178 93 215 93 259 c 0
 93 325 144 382 223 402 c 1
 222 408 222 411 222 415 c 0
 222 444 243 488 270 518 c 0
 311 563 358 583 418 583 c 2
 643 583 l 1
 616 456 l 2
 608 418 591 401 560 401 c 0
 541 401 525 415 525 432 c 0
 525 452 532 475 536 493 c 1
261 326 m 1
 247 326 l 1
 217 325 193 307 193 284 c 0
 193 260 213 237 262 205 c 2
 352 147 l 1
 398 114 412 103 425 88 c 1
 443 88 l 1
 472 89 494 106 494 126 c 0
 494 150 466 181 417 214 c 2
 329 271 l 2
 300 290 291 297 261 326 c 1
EndSplineSet
EndChar
StartChar: dieresis
Encoding: 103 168 115
Width: 600
Flags: W
VStem: 261 123<582 606> 469 123<582 606>
Fore
335 654 m 0
 364 654 384 634 384 606 c 0
 384 569 348 534 309 534 c 0
 282 534 261 555 261 582 c 0
 261 618 298 654 335 654 c 0
543 654 m 0
 572 654 592 634 592 606 c 0
 592 569 556 534 517 534 c 0
 490 534 469 555 469 582 c 0
 469 618 506 654 543 654 c 0
EndSplineSet
EndChar
StartChar: copyright
Encoding: 104 169 116
Width: 600
Flags: W
HStem: -15 73<291 312> 118 71<326 346> 324 142<465 497> 395 71<375 392> 525 73<410 433>
VStem: 48 75<224 252> 600 75<336 358>
Fore
189 238 m 0
 189 264 195 284 200 305 c 1
 219 397 301 466 390 466 c 0
 419 466 439 461 465 447 c 1
 472 460 483 466 497 466 c 0
 513 466 524 455 524 441 c 0
 524 435 522 428 521 422 c 1
 513 386 509 324 465 324 c 0
 444 324 437 334 437 363 c 0
 437 380 409 395 377 395 c 0
 326 395 282 357 271 304 c 1
 267 288 262 272 262 252 c 0
 264 211 293 189 344 189 c 0
 383 189 397 194 425 218 c 0
 433 225 443 229 452 229 c 0
 469 229 481 217 481 200 c 0
 481 159 404 118 327 118 c 0
 245 118 189 166 189 238 c 0
429 598 m 0
 571 598 675 495 675 355 c 0
 675 164 491 -15 293 -15 c 0
 152 -15 48 88 48 228 c 0
 48 420 232 598 429 598 c 0
412 525 m 0
 263 525 123 389 123 243 c 0
 123 136 202 58 310 58 c 0
 460 58 600 194 600 340 c 0
 600 447 521 525 412 525 c 0
EndSplineSet
EndChar
StartChar: ordfeminine
Encoding: 105 170 117
Width: 600
Flags: W
HStem: 182 77<213 491> 273 79<304 331> 417 70<375 399> 517 78<397 427>
VStem: 195 93<354 370>
Fore
415 284 m 1
 417 295 l 1
 374 279 343 273 305 273 c 0
 241 273 195 307 195 354 c 0
 195 374 205 397 223 419 c 0
 261 464 320 487 396 487 c 0
 416 487 429 486 457 482 c 1
 464 509 450 517 406 517 c 0
 384 517 357 513 326 506 c 0
 313 503 303 501 296 501 c 0
 279 501 266 514 266 532 c 0
 266 549 276 565 292 572 c 0
 315 583 381 595 420 595 c 0
 494 595 539 565 539 515 c 0
 539 504 539 499 537 490 c 2
 509 362 l 1
 516 362 l 2
 548 362 559 354 559 331 c 0
 559 303 536 284 500 284 c 2
 415 284 l 1
436 383 m 1
 442 410 l 1
 410 416 396 417 377 417 c 0
 332 417 288 394 288 370 c 0
 288 360 305 352 326 352 c 0
 359 352 404 365 436 383 c 1
471 182 m 2
 215 182 l 2
 179 182 170 186 170 204 c 0
 170 246 184 259 232 259 c 2
 486 259 l 2
 519 259 531 251 531 229 c 0
 531 216 524 203 513 193 c 0
 502 184 494 182 471 182 c 2
EndSplineSet
EndChar
StartChar: guillemotleft
Encoding: 106 171 118
Width: 600
Flags: W
Fore
222 218 m 1
 343 77 l 1
 350 70 354 60 354 55 c 0
 354 38 334 20 314 20 c 0
 305 20 301 22 289 33 c 2
 80 218 l 1
 367 402 l 2
 384 413 389 415 398 415 c 0
 414 415 425 405 425 391 c 0
 425 380 419 370 403 358 c 2
 222 218 l 1
451 218 m 1
 572 77 l 2
 579 69 583 61 583 54 c 0
 583 38 563 20 543 20 c 0
 534 20 530 22 518 33 c 2
 309 218 l 1
 596 402 l 2
 613 413 618 415 627 415 c 0
 643 415 654 405 654 391 c 0
 654 380 648 370 632 358 c 2
 451 218 l 1
EndSplineSet
EndChar
StartChar: logicalnot
Encoding: 107 172 119
Width: 600
Flags: W
HStem: 345 100<180 439>
Fore
560 445 m 1
 504 181 l 1
 498 154 495 146 485 136 c 0
 473 123 455 115 440 115 c 0
 417 115 400 131 400 152 c 0
 400 159 401 170 404 181 c 1
 439 345 l 1
 182 345 l 2
 141 345 125 356 125 385 c 0
 125 401 134 419 148 431 c 0
 163 443 171 445 203 445 c 2
 560 445 l 1
EndSplineSet
EndChar
StartChar: registered
Encoding: 109 174 121
Width: 600
Flags: W
HStem: -15 73<291 312> 126 71<226 239> 525 73<411 433>
VStem: 48 75<224 248> 187 159<153 169> 600 75<336 360>
Fore
321 246 m 1
 311 197 l 1
 335 197 346 188 346 169 c 0
 346 144 324 126 294 126 c 2
 225 126 l 2
 200 126 187 135 187 154 c 0
 187 179 208 197 239 197 c 1
 279 387 l 1
 254 388 243 396 243 416 c 0
 243 441 264 458 296 458 c 2
 389 458 l 2
 455 458 496 426 496 373 c 0
 496 329 464 287 415 266 c 1
 434 244 439 235 453 197 c 1
 473 195 482 187 482 169 c 0
 482 144 461 126 430 126 c 2
 390 126 l 1
 388 175 362 233 336 246 c 1
 321 246 l 1
336 316 m 1
 362 316 l 2
 395 316 424 337 424 360 c 0
 424 377 406 387 376 387 c 2
 351 387 l 1
 336 316 l 1
429 598 m 0
 572 598 675 495 675 355 c 0
 675 163 491 -15 293 -15 c 0
 152 -15 48 88 48 228 c 0
 48 420 232 598 429 598 c 0
413 525 m 0
 263 525 123 389 123 243 c 0
 123 136 202 58 310 58 c 0
 460 58 600 194 600 340 c 0
 600 447 521 525 413 525 c 0
EndSplineSet
EndChar
StartChar: macron
Encoding: 110 175 122
Width: 600
Flags: W
HStem: 546 80<296 540>
Fore
311 626 m 2
 555 626 l 2
 588 626 600 617 600 593 c 0
 600 566 574 546 538 546 c 2
 294 546 l 2
 261 546 249 554 249 579 c 0
 249 607 274 626 311 626 c 2
EndSplineSet
EndChar
StartChar: degree
Encoding: 111 176 123
Width: 600
Flags: W
HStem: 243 61<348 365> 535 61<412 428>
VStem: 210 62<381 398> 506 62<442 459>
Fore
428 596 m 0
 509 596 568 537 568 457 c 0
 568 346 462 243 350 243 c 0
 269 243 210 302 210 383 c 0
 210 494 315 596 428 596 c 0
414 535 m 0
 341 535 272 468 272 396 c 0
 272 343 310 304 363 304 c 0
 437 304 506 372 506 444 c 0
 506 497 467 535 414 535 c 0
EndSplineSet
EndChar
StartChar: plusminus
Encoding: 112 177 124
Width: 600
Flags: W
HStem: 0 100<107 515> 330 100<177 321 442 585>
Fore
420 330 m 1
 399 230 l 1
 393 203 390 195 380 185 c 0
 368 172 351 164 335 164 c 0
 312 164 295 180 295 201 c 0
 295 210 295 211 299 230 c 2
 321 330 l 1
 179 330 l 2
 138 330 122 341 122 370 c 0
 122 386 131 404 145 416 c 0
 160 428 169 430 200 430 c 2
 342 430 l 1
 369 558 l 1
 378 602 399 624 433 624 c 0
 456 624 473 608 473 586 c 0
 473 579 472 574 469 558 c 1
 442 430 l 1
 583 430 l 2
 605 430 609 430 618 426 c 0
 631 421 640 407 640 390 c 0
 640 374 631 357 617 345 c 128
 603 333 591 330 562 330 c 2
 420 330 l 1
130 100 m 2
 513 100 l 2
 535 100 539 100 548 96 c 0
 561 91 570 77 570 60 c 0
 570 44 561 27 547 15 c 128
 533 3 521 0 492 0 c 2
 109 0 l 2
 68 0 52 11 52 40 c 0
 52 56 61 74 75 86 c 0
 90 98 99 100 130 100 c 2
EndSplineSet
EndChar
StartChar: twosuperior
Encoding: 113 178 125
Width: 600
Flags: W
HStem: 247 67<321 430> 247 99<459.578 475>
Fore
321 314 m 1
 430 314 l 1
 437 335 450 346 469 346 c 0
 484 346 496 335 496 321 c 0
 496 317 495 309 494 303 c 1
 482 247 l 1
 202 247 l 1
 217 315 l 1
 452 481 470 497 470 529 c 0
 470 553 447 570 415 570 c 0
 392 570 370 562 354 546 c 0
 347 540 346 539 336 520 c 0
 329 508 315 500 301 500 c 0
 286 500 274 511 274 526 c 0
 274 540 287 564 306 583 c 0
 338 617 383 637 430 637 c 0
 494 637 538 598 538 542 c 0
 538 478 513 451 321 314 c 1
EndSplineSet
EndChar
StartChar: threesuperior
Encoding: 114 179 126
Width: 600
Flags: W
HStem: 238 67<319 363>
VStem: 451 68<365 374>
Fore
389 484 m 2
 413 484 l 2
 445 484 475 510 475 536 c 0
 475 557 454 570 420 570 c 0
 387 570 370 564 347 543 c 0
 340 537 329 533 321 533 c 0
 306 533 294 545 294 559 c 0
 294 599 364 637 438 637 c 0
 502 637 543 603 543 548 c 0
 543 510 518 473 476 450 c 2
 476 450 474 449 473 448 c 1
 503 431 519 404 519 374 c 0
 519 344 500 306 472 281 c 0
 438 251 396 238 335 238 c 0
 265 238 218 257 218 285 c 0
 218 306 238 326 259 326 c 0
 267 326 271 325 279 318 c 0
 292 308 309 305 347 305 c 0
 413 305 451 327 451 367 c 0
 451 383 437 401 418 411 c 0
 407 416 400 417 374 418 c 0
 356 419 346 428 346 444 c 0
 346 465 366 484 389 484 c 2
EndSplineSet
EndChar
StartChar: acute
Encoding: 115 180 127
Width: 600
Flags: W
Fore
585 624 m 2
 427 512 l 2
 409 499 402 496 392 496 c 0
 374 496 362 508 362 526 c 0
 362 541 372 554 393 569 c 2
 551 680 l 2
 569 693 575 696 586 696 c 0
 604 696 616 684 616 667 c 0
 616 652 607 639 585 624 c 2
EndSplineSet
EndChar
StartChar: paragraph
Encoding: 117 182 128
Width: 600
Flags: W
HStem: -174 78<152 250 447 486> 505 78<454 499 574 628>
VStem: 123 114<335 349>
Fore
575 505 m 1
 447 -96 l 1
 484 -96 l 2
 517 -96 529 -104 529 -127 c 0
 529 -143 519 -159 503 -168 c 0
 495 -173 487 -174 467 -174 c 2
 374 -174 l 2
 353 -174 345 -165 341 -140 c 1
 323 -169 315 -174 291 -174 c 2
 154 -174 l 2
 121 -174 108 -165 108 -143 c 0
 108 -128 119 -110 135 -102 c 0
 144 -97 150 -96 171 -96 c 2
 249 -96 l 1
 309 185 l 1
 197 197 123 256 123 334 c 0
 123 363 130 382 135 407 c 1
 156 504 287 583 429 583 c 2
 626 583 l 2
 659 583 672 574 672 552 c 0
 672 536 662 520 645 511 c 0
 637 506 631 505 610 505 c 2
 575 505 l 1
326 266 m 1
 376 500 l 1
 310 488 257 449 248 405 c 2
 239 361 l 2
 238 356 237 351 237 347 c 0
 237 308 269 279 326 266 c 1
499 505 m 1
 455 505 l 1
 327 -96 l 1
 339 -102 343 -108 344 -124 c 1
 352 -109 359 -102 371 -96 c 1
 499 505 l 1
EndSplineSet
EndChar
StartChar: periodcentered
Encoding: 118 183 129
Width: 600
Flags: W
Fore
354 214 m 2
 337 214 l 2
 305 214 283 236 283 267 c 0
 283 307 323 346 365 346 c 2
 382 346 l 2
 414 346 436 324 436 294 c 0
 436 253 396 214 354 214 c 2
EndSplineSet
EndChar
StartChar: cedilla
Encoding: 119 184 130
Width: 600
Flags: W
HStem: -229 70<250 268> -20 20G<262 332>
VStem: 309 72<-128 -108>
Fore
251 -229 m 0
 216 -229 143 -211 143 -174 c 0
 143 -152 164 -131 187 -131 c 0
 195 -131 197 -132 213 -142 c 128
 229 -152 250 -159 267 -159 c 0
 293 -159 309 -147 309 -128 c 0
 309 -110 293 -100 263 -100 c 0
 257 -100 252 -100 240 -102 c 1
 262 0 l 1
 332 0 l 1
 323 -41 l 1
 365 -50 381 -68 381 -108 c 0
 381 -175 323 -229 251 -229 c 0
EndSplineSet
EndChar
StartChar: onesuperior
Encoding: 120 185 131
Width: 600
Flags: W
HStem: 247 67<262 334 400 449>
Fore
469 638 m 1
 400 314 l 1
 457 314 l 2
 484 314 494 307 494 288 c 0
 494 263 474 247 443 247 c 2
 261 247 l 2
 236 247 224 255 224 274 c 0
 224 299 244 314 276 314 c 2
 333 314 l 1
 383 551 l 1
 333 539 l 2
 321 536 317 535 311 535 c 0
 297 535 287 546 287 562 c 0
 287 584 300 596 330 604 c 2
 469 638 l 1
EndSplineSet
EndChar
StartChar: ordmasculine
Encoding: 121 186 132
Width: 600
Flags: W
HStem: 182 77<210 488> 273 78<358 377>
VStem: 219 81<399 416>
Fore
427 595 m 0
 508 595 566 540 566 463 c 0
 566 363 468 273 359 273 c 0
 278 273 219 326 219 400 c 0
 219 498 322 595 427 595 c 0
411 517 m 0
 356 517 300 466 300 416 c 0
 300 380 334 351 375 351 c 0
 431 351 485 397 485 445 c 0
 485 487 454 517 411 517 c 0
467 182 m 2
 212 182 l 2
 181 182 168 191 168 213 c 0
 168 225 175 239 186 248 c 0
 198 257 204 259 229 259 c 2
 484 259 l 2
 516 259 528 251 528 229 c 0
 528 216 521 203 510 193 c 0
 499 184 490 182 467 182 c 2
EndSplineSet
EndChar
StartChar: guillemotright
Encoding: 122 187 133
Width: 600
Flags: W
Fore
476 217 m 1
 355 358 l 1
 348 365 344 375 344 380 c 0
 344 397 364 415 384 415 c 0
 393 415 397 413 409 402 c 2
 617 217 l 1
 331 33 l 2
 314 22 309 20 300 20 c 0
 284 20 273 30 273 44 c 0
 273 55 279 65 295 77 c 2
 476 217 l 1
246 217 m 1
 125 358 l 2
 118 366 114 374 114 381 c 0
 114 397 134 415 154 415 c 0
 163 415 167 413 179 402 c 2
 387 217 l 1
 101 33 l 2
 84 22 79 20 70 20 c 0
 54 20 43 30 43 44 c 0
 43 55 49 65 65 77 c 2
 246 217 l 1
EndSplineSet
EndChar
StartChar: onequarter
Encoding: 123 188 134
Width: 600
Flags: W
HStem: 0 67<506 539> 247 67<63 135 201 250>
VStem: 470 167<26 40>
Fore
270 638 m 1
 201 314 l 1
 258 314 l 2
 285 314 295 307 295 288 c 0
 295 263 274 247 244 247 c 2
 62 247 l 2
 37 247 25 255 25 274 c 0
 25 299 45 314 77 314 c 2
 134 314 l 1
 184 551 l 1
 134 539 l 2
 122 536 118 535 112 535 c 0
 98 535 88 546 88 562 c 0
 88 584 101 597 131 604 c 2
 270 638 l 1
586 528 m 2
 229 77 l 2
 214 58 204 51 189 51 c 0
 173 51 162 62 162 78 c 0
 162 88 165 93 178 110 c 2
 535 561 l 2
 551 581 560 587 575 587 c 128
 590 587 602 575 602 560 c 0
 602 552 597 542 586 528 c 2
673 380 m 1
 624 150 l 1
 645 149 655 141 655 124 c 0
 655 101 637 85 610 83 c 1
 606 67 l 1
 627 66 637 57 637 40 c 0
 637 16 616 0 585 0 c 2
 506 0 l 2
 481 0 470 8 470 27 c 0
 470 52 489 67 520 67 c 2
 539 67 l 1
 543 83 l 1
 380 83 l 1
 391 138 l 1
 589 380 l 1
 673 380 l 1
557 150 m 1
 584 279 l 1
 478 150 l 1
 557 150 l 1
EndSplineSet
Ligature: 8 2 'frac' one slash four
Ligature: 8 2 'frac' one fraction four
EndChar
StartChar: onehalf
Encoding: 124 189 135
Width: 600
Flags: W
HStem: 0 67<468 577> 0 99<606.578 619> 247 67<63 135 201 250> 323 67<560 575>
Fore
270 638 m 1
 201 314 l 1
 258 314 l 2
 285 314 295 307 295 288 c 0
 295 263 274 247 244 247 c 2
 62 247 l 2
 37 247 25 255 25 274 c 0
 25 299 45 314 77 314 c 2
 134 314 l 1
 184 551 l 1
 134 539 l 2
 122 536 118 535 112 535 c 0
 98 535 88 546 88 562 c 0
 88 584 101 597 131 604 c 2
 270 638 l 1
585 528 m 2
 229 77 l 2
 214 58 203 51 189 51 c 0
 173 51 162 62 162 78 c 0
 162 87 165 94 178 110 c 2
 535 561 l 1
 550 581 560 587 575 587 c 128
 590 587 602 575 602 560 c 0
 602 551 598 544 585 528 c 2
468 67 m 1
 577 67 l 1
 584 88 597 99 616 99 c 0
 631 99 643 88 643 74 c 0
 643 70 642 62 641 56 c 1
 629 0 l 1
 349 0 l 1
 363 68 l 1
 599 234 617 250 617 282 c 0
 617 306 594 323 562 323 c 0
 539 323 517 315 501 299 c 0
 494 293 494 292 483 273 c 0
 476 261 462 253 448 253 c 0
 433 253 421 264 421 279 c 0
 421 293 434 316 453 336 c 0
 485 370 530 390 577 390 c 0
 641 390 685 351 685 295 c 0
 685 231 659 203 468 67 c 1
EndSplineSet
Ligature: 8 2 'frac' one slash two
Ligature: 8 2 'frac' one fraction two
EndChar
StartChar: threequarters
Encoding: 125 190 136
Width: 600
Flags: W
HStem: 0 67<506 540> 238 67<119 163>
VStem: 251 68<365 374> 469 168<26 40>
Fore
189 484 m 2
 213 484 l 2
 245 484 275 510 275 536 c 0
 275 557 254 570 220 570 c 0
 187 570 170 564 147 543 c 0
 140 537 130 533 121 533 c 0
 106 533 94 545 94 559 c 0
 94 599 164 637 238 637 c 0
 302 637 343 603 343 548 c 0
 343 510 318 473 276 450 c 2
 276 450 274 449 273 448 c 1
 303 431 319 404 319 374 c 128
 319 344 300 307 272 281 c 0
 238 251 196 238 135 238 c 0
 65 238 18 257 18 285 c 0
 18 306 38 326 59 326 c 0
 67 326 70 325 79 318 c 0
 92 308 109 305 147 305 c 0
 213 305 251 327 251 367 c 0
 251 383 237 401 218 411 c 0
 207 416 200 417 174 418 c 0
 156 419 146 428 146 444 c 0
 146 465 166 484 189 484 c 2
585 528 m 2
 229 77 l 2
 214 58 203 51 188 51 c 128
 173 51 161 62 161 78 c 0
 161 88 164 93 178 110 c 2
 534 561 l 2
 550 581 559 587 574 587 c 128
 589 587 601 575 601 560 c 0
 601 552 596 541 585 528 c 2
673 380 m 1
 624 150 l 1
 645 149 655 141 655 124 c 0
 655 101 637 85 610 83 c 1
 607 67 l 1
 627 66 637 57 637 40 c 0
 637 16 616 0 585 0 c 2
 506 0 l 2
 481 0 469 8 469 27 c 0
 469 52 489 67 520 67 c 2
 540 67 l 1
 543 83 l 1
 379 83 l 1
 391 138 l 1
 589 380 l 1
 673 380 l 1
557 150 m 1
 585 279 l 1
 477 150 l 1
 557 150 l 1
EndSplineSet
Ligature: 8 2 'frac' three slash four
Ligature: 8 2 'frac' three fraction four
EndChar
StartChar: questiondown
Encoding: 126 191 137
Width: 600
Flags: W
HStem: -227 100<241 265> 254 132<358 372>
VStem: 70 102<-80 -57> 289 153<306 333>
Fore
477 -89 m 2
 460 -168 l 1
 351 -215 308 -227 242 -227 c 0
 135 -227 70 -171 70 -79 c 0
 70 -25 93 28 131 62 c 0
 166 92 207 115 277 143 c 1
 289 179 310 197 339 197 c 0
 362 197 379 180 379 159 c 128
 379 138 368 97 363 75 c 1
 214 22 172 -6 172 -57 c 0
 172 -101 205 -127 263 -127 c 0
 301 -127 338 -119 374 -103 c 1
 377 -89 l 2
 383 -61 386 -54 396 -43 c 0
 408 -31 426 -23 441 -23 c 0
 464 -23 481 -39 481 -60 c 0
 481 -67 480 -76 477 -89 c 2
370 386 m 2
 388 386 l 2
 420 386 442 364 442 333 c 0
 442 293 402 254 360 254 c 2
 342 254 l 2
 311 254 289 276 289 306 c 0
 289 347 328 386 370 386 c 2
EndSplineSet
EndChar
StartChar: Agrave
Encoding: 127 192 138
Width: 600
Flags: W
HStem: 0 100<44 68 176 200 414 461 575 577> 158 100<273 430> 483 100<239 304>
Fore
450 158 m 1
 212 158 l 1
 176 100 l 1
 199 100 l 2
 220 100 226 99 234 96 c 0
 247 92 256 76 256 60 c 128
 256 44 247 27 233 15 c 128
 219 3 207 0 178 0 c 2
 46 0 l 2
 5 0 -11 11 -11 40 c 0
 -11 56 -2 74 12 85 c 0
 27 97 37 100 68 100 c 1
 304 483 l 1
 241 483 l 2
 200 483 184 494 184 523 c 0
 184 539 193 557 207 569 c 0
 222 581 230 583 262 583 c 2
 478 583 l 1
 575 100 l 1
 595 100 602 99 611 96 c 0
 624 91 633 76 633 60 c 128
 633 44 624 26 610 15 c 0
 596 3 583 0 555 0 c 2
 416 0 l 2
 376 0 360 11 360 40 c 0
 360 56 369 73 383 85 c 0
 398 98 406 100 438 100 c 2
 461 100 l 1
 450 158 l 1
430 258 m 1
 392 450 l 1
 273 258 l 1
 430 258 l 1
385 824 m 2
 495 712 l 2
 506 701 511 692 511 683 c 0
 511 661 488 640 465 640 c 0
 456 640 447 645 437 656 c 2
 327 767 l 1
 316 777 311 787 311 794 c 0
 311 818 333 839 356 839 c 0
 367 839 373 836 385 824 c 2
EndSplineSet
EndChar
StartChar: Aacute
Encoding: 128 193 139
Width: 600
Flags: W
HStem: 0 100<44 68 176 200 414 461 575 577> 158 100<273 430> 483 100<239 304>
Fore
450 158 m 1
 212 158 l 1
 176 100 l 1
 199 100 l 2
 220 100 226 99 234 96 c 0
 247 92 256 76 256 60 c 128
 256 44 247 27 233 15 c 128
 219 3 207 0 178 0 c 2
 46 0 l 2
 5 0 -11 11 -11 40 c 0
 -11 56 -2 74 12 85 c 0
 27 97 37 100 68 100 c 1
 304 483 l 1
 241 483 l 2
 200 483 184 494 184 523 c 0
 184 539 193 557 207 569 c 0
 222 581 230 583 262 583 c 2
 478 583 l 1
 575 100 l 1
 595 100 602 99 611 96 c 0
 624 91 633 76 633 60 c 128
 633 44 624 26 610 15 c 0
 596 3 583 0 555 0 c 2
 416 0 l 2
 376 0 360 11 360 40 c 0
 360 56 369 73 383 85 c 0
 398 98 406 100 438 100 c 2
 461 100 l 1
 450 158 l 1
430 258 m 1
 392 450 l 1
 273 258 l 1
 430 258 l 1
573 767 m 2
 416 656 l 2
 400 645 390 640 381 640 c 0
 364 640 351 652 351 669 c 0
 351 684 361 698 382 712 c 2
 539 824 l 2
 555 835 564 839 575 839 c 0
 593 839 605 827 605 810 c 0
 605 794 597 784 573 767 c 2
EndSplineSet
EndChar
StartChar: Acircumflex
Encoding: 129 194 140
Width: 600
Flags: W
HStem: 0 100<44 68 176 200 414 461 575 577> 158 100<273 430> 483 100<239 304>
Fore
450 158 m 1
 212 158 l 1
 176 100 l 1
 199 100 l 2
 220 100 226 99 234 96 c 0
 247 92 256 76 256 60 c 128
 256 44 247 27 233 15 c 128
 219 3 207 0 178 0 c 2
 46 0 l 2
 5 0 -11 11 -11 40 c 0
 -11 56 -2 74 12 85 c 0
 27 97 37 100 68 100 c 1
 304 483 l 1
 241 483 l 2
 200 483 184 494 184 523 c 0
 184 539 193 557 207 569 c 0
 222 581 230 583 262 583 c 2
 478 583 l 1
 575 100 l 1
 595 100 602 99 611 96 c 0
 624 91 633 76 633 60 c 128
 633 44 624 26 610 15 c 0
 596 3 583 0 555 0 c 2
 416 0 l 2
 376 0 360 11 360 40 c 0
 360 56 369 73 383 85 c 0
 398 98 406 100 438 100 c 2
 461 100 l 1
 450 158 l 1
430 258 m 1
 392 450 l 1
 273 258 l 1
 430 258 l 1
444 750 m 1
 310 653 l 2
 296 643 288 640 279 640 c 0
 263 640 251 652 251 668 c 0
 251 685 256 692 283 711 c 2
 463 839 l 1
 586 711 l 1
 594 703 604 695 604 683 c 0
 604 661 582 640 561 640 c 0
 552 640 544 644 535 653 c 2
 444 750 l 1
EndSplineSet
EndChar
StartChar: Atilde
Encoding: 130 195 141
Width: 600
Flags: W
HStem: 0 100<44 68 176 200 412 461 575 577> 158 100<273 430> 483 100<239 304> 667 69<500 515>
Fore
450 158 m 1
 212 158 l 1
 176 100 l 1
 199 100 l 2
 220 100 226 99 234 96 c 0
 247 92 256 76 256 60 c 128
 256 44 247 27 233 15 c 128
 219 3 207 0 178 0 c 2
 46 0 l 2
 5 0 -11 11 -11 40 c 0
 -11 56 -2 74 12 85 c 0
 27 97 37 100 68 100 c 1
 304 483 l 1
 241 483 l 2
 200 483 184 494 184 523 c 0
 184 539 193 557 207 569 c 0
 222 581 230 583 262 583 c 2
 478 583 l 1
 575 100 l 1
 595 100 602 99 611 96 c 0
 624 91 633 76 633 60 c 128
 633 44 624 26 610 15 c 0
 596 3 583 0 555 0 c 2
 416 0 l 2
 376 0 360 11 360 40 c 0
 360 56 369 73 383 85 c 0
 398 98 406 100 438 100 c 2
 461 100 l 1
 450 158 l 1
430 258 m 1
 392 450 l 1
 273 258 l 1
 430 258 l 1
606 799 m 0
 620 799 633 788 633 776 c 128
 633 764 624 750 604 728 c 0
 564 685 534 667 501 667 c 0
 479 667 450 681 412 709 c 0
 388 726 380 730 366 730 c 0
 348 730 339 724 298 682 c 0
 291 674 281 670 272 670 c 0
 258 670 247 680 247 693 c 0
 247 708 259 726 283 751 c 1
 315 782 348 799 379 799 c 0
 401 799 418 792 461 762 c 0
 489 743 502 736 513 736 c 0
 529 736 534 740 566 775 c 0
 578 788 596 799 606 799 c 0
EndSplineSet
EndChar
StartChar: Adieresis
Encoding: 131 196 142
Width: 600
Flags: W
HStem: 0 100<44 68 176 200 414 461 575 577> 158 100<273 430> 483 100<239 304> 678 122<323 348 531 556>
VStem: 275 122<727 751> 483 122<727 751>
Fore
450 158 m 1
 212 158 l 1
 176 100 l 1
 199 100 l 2
 220 100 226 99 234 96 c 0
 247 92 256 76 256 60 c 128
 256 44 247 27 233 15 c 128
 219 3 207 0 178 0 c 2
 46 0 l 2
 5 0 -11 11 -11 40 c 0
 -11 56 -2 74 12 85 c 0
 27 97 37 100 68 100 c 1
 304 483 l 1
 241 483 l 2
 200 483 184 494 184 523 c 0
 184 539 193 557 207 569 c 0
 222 581 230 583 262 583 c 2
 478 583 l 1
 575 100 l 1
 595 100 602 99 611 96 c 0
 624 91 633 76 633 60 c 128
 633 44 624 26 610 15 c 0
 596 3 583 0 555 0 c 2
 416 0 l 2
 376 0 360 11 360 40 c 0
 360 56 369 73 383 85 c 0
 398 98 406 100 438 100 c 2
 461 100 l 1
 450 158 l 1
430 258 m 1
 392 450 l 1
 273 258 l 1
 430 258 l 1
348 800 m 0
 376 800 397 779 397 751 c 0
 397 713 361 678 323 678 c 0
 298 678 275 701 275 727 c 0
 275 763 312 800 348 800 c 0
556 800 m 0
 584 800 605 779 605 751 c 0
 605 713 569 678 531 678 c 0
 506 678 483 701 483 727 c 0
 483 763 520 800 556 800 c 0
EndSplineSet
EndChar
StartChar: Aring
Encoding: 132 197 143
Width: 600
Flags: W
HStem: 0 100<44 68 176 200 414 461 575 577> 158 100<273 430> 483 100<239 304> 630 54<416 432> 817 54<454 469>
VStem: 318 54<727 741>
Fore
450 158 m 1
 212 158 l 1
 176 100 l 1
 199 100 l 2
 220 100 226 99 234 96 c 0
 247 92 256 76 256 60 c 128
 256 44 247 27 233 15 c 128
 219 3 207 0 178 0 c 2
 46 0 l 2
 5 0 -11 11 -11 40 c 0
 -11 56 -2 74 12 85 c 0
 27 97 37 100 68 100 c 1
 304 483 l 1
 241 483 l 2
 200 483 184 494 184 523 c 0
 184 539 193 557 207 569 c 0
 222 581 230 583 262 583 c 2
 478 583 l 1
 575 100 l 1
 595 100 602 99 611 96 c 0
 624 91 633 76 633 60 c 128
 633 44 624 26 610 15 c 0
 596 3 583 0 555 0 c 2
 416 0 l 2
 376 0 360 11 360 40 c 0
 360 56 369 73 383 85 c 0
 398 98 406 100 438 100 c 2
 461 100 l 1
 450 158 l 1
430 258 m 1
 392 450 l 1
 273 258 l 1
 430 258 l 1
469 871 m 0
 525 871 567 831 567 776 c 0
 567 738 555 710 528 682 c 0
 496 649 456 630 416 630 c 0
 361 630 318 672 318 726 c 0
 318 799 393 871 469 871 c 0
456 817 m 0
 413 817 372 778 372 738 c 0
 372 707 396 684 428 684 c 0
 471 684 513 723 513 762 c 0
 513 796 491 817 456 817 c 0
EndSplineSet
EndChar
StartChar: AE
Encoding: 133 198 144
Width: 600
Flags: W
HStem: 0 100<45 75 269 289 389 535> 0 189<594 614> 187 210<476 521> 352 231<612 620>
VStem: -10 221<40 65>
Fore
75 100 m 1
 271 483 l 1
 257 483 l 2
 216 483 201 494 201 523 c 0
 201 539 210 556 224 569 c 0
 239 581 247 583 279 583 c 2
 717 583 l 1
 682 418 l 1
 676 391 673 383 663 373 c 0
 650 360 634 352 617 352 c 0
 596 352 578 369 578 389 c 0
 578 396 579 405 582 418 c 2
 596 483 l 1
 470 483 l 1
 440 342 l 1
 459 342 l 1
 469 377 491 397 521 397 c 0
 543 397 561 380 561 360 c 0
 561 352 561 351 556 331 c 1
 540 253 l 1
 534 226 531 218 521 208 c 0
 508 195 492 187 476 187 c 0
 453 187 436 204 436 225 c 0
 436 229 436 233 438 243 c 1
 419 243 l 1
 389 100 l 1
 535 100 l 1
 540 123 l 2
 546 149 550 158 560 168 c 0
 572 181 589 189 604 189 c 0
 628 189 645 173 645 151 c 0
 645 143 645 142 640 123 c 1
 614 0 l 1
 266 0 l 2
 236 0 219 14 219 41 c 0
 219 72 247 100 280 100 c 2
 289 100 l 1
 301 158 l 1
 208 158 l 1
 178 100 l 1
 200 97 211 85 211 65 c 0
 211 27 182 0 141 0 c 2
 47 0 l 2
 6 0 -10 12 -10 40 c 0
 -10 56 -1 74 13 85 c 0
 28 98 37 100 68 100 c 2
 75 100 l 1
322 259 m 1
 367 471 l 1
 258 259 l 1
 322 259 l 1
EndSplineSet
EndChar
StartChar: Ccedilla
Encoding: 134 199 145
Width: 600
Flags: W
HStem: -229 70<259 274> 367 216<577 623> 497 100<413 434>
VStem: 80 102<194 216> 314 72<-128 -109>
Fore
334 -14 m 1
 328 -42 l 1
 370 -50 386 -69 386 -109 c 0
 386 -174 328 -229 258 -229 c 0
 201 -229 148 -203 148 -174 c 0
 148 -152 169 -131 192 -131 c 0
 200 -131 202 -132 218 -142 c 0
 234 -153 255 -159 272 -159 c 0
 298 -159 314 -147 314 -128 c 0
 314 -111 298 -100 273 -100 c 0
 267 -100 263 -100 246 -102 c 1
 265 -9 l 1
 150 14 80 83 80 195 c 0
 80 213 82 231 86 249 c 2
 100 315 l 2
 134 475 277 597 432 597 c 0
 484 597 517 589 567 563 c 2
 576 559 l 1
 593 576 606 583 623 583 c 0
 646 583 663 567 663 545 c 0
 663 538 663 534 659 517 c 1
 641 433 l 1
 635 407 631 398 622 388 c 0
 610 375 593 367 577 367 c 0
 553 367 537 383 538 406 c 1
 539 425 l 2
 541 463 483 497 415 497 c 0
 313 497 222 420 200 315 c 1
 193 284 182 249 182 214 c 0
 182 135 245 86 347 86 c 0
 393 86 436 95 463 109 c 0
 475 116 476 116 508 143 c 0
 522 154 534 159 547 159 c 0
 570 159 588 141 588 118 c 0
 588 93 564 64 518 36 c 0
 470 5 415 -9 334 -14 c 1
EndSplineSet
EndChar
StartChar: Egrave
Encoding: 135 200 146
Width: 600
Flags: W
HStem: 0 100<78 116 216 471> 0 219<536.449 551> 366 217<546 558>
Fore
246 243 m 1
 216 100 l 1
 471 100 l 1
 483 152 l 1
 488 180 492 188 502 198 c 0
 514 211 531 219 546 219 c 0
 569 219 587 203 587 182 c 0
 587 175 586 170 583 152 c 1
 550 0 l 1
 80 0 l 2
 39 0 23 12 23 40 c 0
 23 56 32 74 46 85 c 0
 61 98 70 100 101 100 c 2
 116 100 l 1
 197 483 l 1
 182 483 l 2
 141 483 125 494 125 523 c 0
 125 539 134 556 149 569 c 0
 163 581 172 583 204 583 c 2
 652 583 l 1
 620 433 l 2
 614 405 611 397 601 387 c 0
 589 374 572 366 556 366 c 0
 534 366 516 382 516 404 c 128
 516 426 526 462 531 483 c 1
 297 483 l 1
 267 342 l 1
 352 342 l 1
 353 349 l 1
 359 378 362 385 372 395 c 0
 385 408 402 416 417 416 c 0
 440 416 457 400 457 379 c 0
 457 371 456 367 453 349 c 1
 428 236 l 2
 422 208 419 201 409 190 c 0
 397 178 380 170 365 170 c 0
 342 170 325 186 325 207 c 0
 325 213 328 233 331 243 c 1
 246 243 l 1
386 824 m 2
 496 712 l 1
 507 702 512 692 512 683 c 0
 512 661 489 640 466 640 c 0
 457 640 449 645 438 656 c 2
 328 767 l 2
 317 778 312 787 312 795 c 0
 312 818 334 839 358 839 c 0
 368 839 375 835 386 824 c 2
EndSplineSet
EndChar
StartChar: Eacute
Encoding: 136 201 147
Width: 600
Flags: W
HStem: 0 100<78 116 216 471> 0 219<535.937 551> 366 217<546 558>
Fore
246 243 m 1
 216 100 l 1
 471 100 l 1
 483 152 l 1
 488 180 492 188 502 198 c 0
 514 212 531 219 546 219 c 0
 569 219 587 203 587 182 c 0
 587 174 586 170 583 152 c 1
 550 0 l 1
 80 0 l 2
 40 0 23 12 23 40 c 0
 23 56 32 74 46 85 c 0
 61 98 70 100 101 100 c 2
 116 100 l 1
 197 483 l 1
 182 483 l 2
 141 483 125 494 125 523 c 0
 125 539 134 557 149 569 c 0
 163 581 172 583 204 583 c 2
 652 583 l 1
 620 433 l 2
 614 405 611 397 601 387 c 0
 589 374 572 366 556 366 c 0
 534 366 516 382 516 404 c 128
 516 426 526 462 531 483 c 1
 297 483 l 1
 267 342 l 1
 352 342 l 1
 353 349 l 1
 359 378 362 385 372 395 c 0
 385 408 402 416 417 416 c 0
 440 416 457 400 457 378 c 0
 457 370 457 369 453 349 c 1
 428 236 l 2
 422 208 419 201 409 190 c 0
 397 178 380 170 365 170 c 0
 342 170 325 186 325 207 c 0
 325 213 328 233 331 243 c 1
 246 243 l 1
581 767 m 2
 424 656 l 2
 409 645 398 640 388 640 c 0
 371 640 358 652 358 669 c 0
 358 684 367 696 390 712 c 2
 547 824 l 2
 564 836 572 839 582 839 c 0
 600 839 612 827 612 810 c 0
 612 795 603 782 581 767 c 2
EndSplineSet
EndChar
StartChar: Ecircumflex
Encoding: 137 202 148
Width: 600
Flags: W
HStem: 0 100<78 116 216 471> 0 219<541 551> 366 217<546 558>
Fore
246 243 m 1
 216 100 l 1
 471 100 l 1
 483 152 l 1
 488 180 492 188 502 198 c 0
 514 211 531 219 546 219 c 0
 569 219 587 203 587 182 c 0
 587 175 586 170 583 152 c 1
 550 0 l 1
 80 0 l 2
 39 0 23 12 23 40 c 0
 23 56 32 74 46 85 c 0
 61 98 70 100 101 100 c 2
 116 100 l 1
 197 483 l 1
 182 483 l 2
 141 483 125 494 125 523 c 0
 125 539 134 556 149 569 c 0
 163 581 172 583 204 583 c 2
 652 583 l 1
 620 433 l 2
 614 405 611 397 601 387 c 0
 589 374 572 366 556 366 c 0
 534 366 516 382 516 404 c 128
 516 426 526 462 531 483 c 1
 297 483 l 1
 267 342 l 1
 352 342 l 1
 353 349 l 1
 359 378 362 385 372 395 c 0
 385 408 402 416 417 416 c 0
 440 416 457 400 457 379 c 0
 457 371 456 367 453 349 c 1
 428 236 l 2
 422 208 419 201 409 190 c 0
 397 178 380 170 365 170 c 0
 342 170 325 186 325 207 c 0
 325 213 328 233 331 243 c 1
 246 243 l 1
452 750 m 1
 318 653 l 1
 304 644 296 640 287 640 c 0
 271 640 259 652 259 669 c 0
 259 685 264 691 291 711 c 2
 471 839 l 1
 594 711 l 2
 601 704 612 697 612 683 c 0
 612 662 590 640 569 640 c 0
 560 640 552 644 543 653 c 2
 452 750 l 1
EndSplineSet
EndChar
StartChar: Edieresis
Encoding: 138 203 149
Width: 600
Flags: W
HStem: 0 100<78 116 216 471> 0 219<537 550> 366 217<546 566> 678 122<331 356 539 564>
VStem: 283 122<727 751> 491 122<727 751>
Fore
246 243 m 1
 216 100 l 1
 471 100 l 1
 483 152 l 1
 488 180 492 188 502 198 c 0
 514 212 531 219 546 219 c 0
 569 219 587 203 587 182 c 0
 587 174 586 170 583 152 c 1
 550 0 l 1
 80 0 l 2
 40 0 23 12 23 40 c 0
 23 56 32 74 46 85 c 0
 61 98 70 100 101 100 c 2
 116 100 l 1
 197 483 l 1
 182 483 l 2
 141 483 125 494 125 523 c 0
 125 539 134 557 149 569 c 0
 163 581 172 583 204 583 c 2
 652 583 l 1
 620 433 l 2
 614 405 611 397 601 387 c 0
 589 374 572 366 556 366 c 0
 534 366 516 382 516 404 c 128
 516 426 526 462 531 483 c 1
 297 483 l 1
 267 342 l 1
 352 342 l 1
 353 349 l 1
 359 378 362 385 372 395 c 0
 385 408 402 416 417 416 c 0
 440 416 457 400 457 378 c 0
 457 370 457 369 453 349 c 1
 428 236 l 2
 422 208 419 201 409 190 c 0
 397 178 380 170 365 170 c 0
 342 170 325 186 325 207 c 0
 325 213 328 233 331 243 c 1
 246 243 l 1
356 800 m 0
 384 800 405 779 405 751 c 0
 405 713 369 678 331 678 c 0
 306 678 283 701 283 727 c 0
 283 763 320 800 356 800 c 0
564 800 m 0
 592 800 613 779 613 751 c 0
 613 713 577 678 539 678 c 0
 514 678 491 701 491 727 c 0
 491 763 528 800 564 800 c 0
EndSplineSet
EndChar
StartChar: Igrave
Encoding: 139 204 150
Width: 600
Flags: W
HStem: 0 100<148 272 372 474> 483 100<250 353 452 576>
Fore
453 483 m 1
 372 100 l 1
 472 100 l 2
 492 100 499 99 507 96 c 0
 520 92 529 77 529 61 c 0
 529 44 520 27 506 15 c 128
 492 3 480 0 451 0 c 2
 150 0 l 2
 109 0 93 11 93 40 c 0
 93 56 102 73 116 85 c 0
 131 98 139 100 171 100 c 2
 272 100 l 1
 353 483 l 1
 252 483 l 2
 211 483 196 494 196 523 c 0
 196 539 205 557 219 568 c 0
 234 581 242 583 274 583 c 2
 575 583 l 2
 595 583 602 582 610 579 c 0
 622 575 632 559 632 544 c 0
 632 527 623 509 609 498 c 0
 594 486 584 483 554 483 c 2
 453 483 l 1
395 824 m 2
 505 712 l 1
 516 702 521 692 521 683 c 0
 521 661 498 640 475 640 c 0
 467 640 457 645 447 656 c 2
 337 767 l 1
 326 777 321 787 321 795 c 0
 321 818 343 839 367 839 c 0
 377 839 383 836 395 824 c 2
EndSplineSet
EndChar
StartChar: Iacute
Encoding: 140 205 151
Width: 600
Flags: W
HStem: 0 100<148 272 372 474> 483 100<250 353 452 576>
Fore
453 483 m 1
 372 100 l 1
 472 100 l 2
 492 100 499 99 507 96 c 0
 520 92 529 77 529 61 c 0
 529 44 520 27 506 15 c 128
 492 3 480 0 451 0 c 2
 150 0 l 2
 109 0 93 11 93 40 c 0
 93 56 102 73 116 85 c 0
 131 98 139 100 171 100 c 2
 272 100 l 1
 353 483 l 1
 252 483 l 2
 211 483 196 494 196 523 c 0
 196 539 205 557 219 568 c 0
 234 581 242 583 274 583 c 2
 575 583 l 2
 595 583 602 582 610 579 c 0
 622 575 632 559 632 544 c 0
 632 527 623 509 609 498 c 0
 594 486 584 483 554 483 c 2
 453 483 l 1
569 767 m 1
 419 656 l 1
 393 640 393 640 384 640 c 0
 367 640 354 652 354 669 c 0
 354 684 362 696 384 712 c 2
 535 824 l 2
 550 835 559 839 569 839 c 0
 587 839 600 827 600 810 c 0
 600 792 585 778 569 767 c 1
EndSplineSet
EndChar
StartChar: Icircumflex
Encoding: 141 206 152
Width: 600
Flags: W
HStem: 0 100<148 272 372 474> 483 100<250 353 452 576>
Fore
453 483 m 1
 372 100 l 1
 472 100 l 2
 492 100 499 99 507 96 c 0
 520 92 529 77 529 61 c 0
 529 44 520 27 506 15 c 128
 492 3 480 0 451 0 c 2
 150 0 l 2
 109 0 93 11 93 40 c 0
 93 56 102 73 116 85 c 0
 131 98 139 100 171 100 c 2
 272 100 l 1
 353 483 l 1
 252 483 l 2
 211 483 196 494 196 523 c 0
 196 539 205 557 219 568 c 0
 234 581 242 583 274 583 c 2
 575 583 l 2
 595 583 602 582 610 579 c 0
 622 575 632 559 632 544 c 0
 632 527 623 509 609 498 c 0
 594 486 584 483 554 483 c 2
 453 483 l 1
461 750 m 1
 326 653 l 2
 313 644 305 640 296 640 c 0
 280 640 268 652 268 668 c 0
 268 685 274 692 300 711 c 2
 480 839 l 1
 603 711 l 2
 619 694 620 693 620 683 c 0
 620 661 599 640 577 640 c 0
 569 640 561 644 552 653 c 2
 461 750 l 1
EndSplineSet
EndChar
StartChar: Idieresis
Encoding: 142 207 153
Width: 600
Flags: W
HStem: 0 100<148 272 372 474> 483 100<250 353 452 577> 678 122<340 365 548 573>
VStem: 292 122<727 751> 500 122<727 751>
Fore
453 483 m 1
 372 100 l 1
 472 100 l 2
 492 100 499 99 507 96 c 0
 520 92 529 77 529 61 c 0
 529 44 520 27 506 15 c 128
 492 3 480 0 451 0 c 2
 150 0 l 2
 109 0 93 11 93 40 c 0
 93 56 102 73 116 85 c 0
 131 98 139 100 171 100 c 2
 272 100 l 1
 353 483 l 1
 252 483 l 2
 211 483 196 494 196 523 c 0
 196 539 205 557 219 568 c 0
 234 581 242 583 274 583 c 2
 575 583 l 2
 595 583 602 582 610 579 c 0
 622 575 632 559 632 544 c 0
 632 527 623 509 609 498 c 0
 594 486 584 483 554 483 c 2
 453 483 l 1
365 800 m 0
 393 800 414 779 414 751 c 0
 414 713 378 678 340 678 c 0
 315 678 292 701 292 727 c 0
 292 763 329 800 365 800 c 0
573 800 m 0
 601 800 622 779 622 751 c 0
 622 713 586 678 548 678 c 0
 523 678 500 701 500 727 c 0
 500 763 537 800 573 800 c 0
EndSplineSet
EndChar
StartChar: Eth
Encoding: 143 208 154
Width: 600
Flags: W
HStem: 0 100<78 96 196 312> 243 100<117 126 247 321> 483 100<276 408>
Fore
126 243 m 1
 119 243 l 2
 78 243 62 254 62 283 c 0
 62 299 71 316 85 328 c 0
 100 341 108 343 140 343 c 2
 147 343 l 1
 177 483 l 1
 142 483 126 496 126 523 c 0
 126 539 135 556 149 569 c 0
 164 581 172 583 204 583 c 2
 417 583 l 2
 539 583 622 497 622 369 c 0
 622 330 612 292 605 258 c 1
 590 185 553 123 497 75 c 0
 437 23 371 0 285 0 c 2
 80 0 l 2
 39 0 23 12 23 40 c 0
 23 56 32 73 46 85 c 128
 60 97 71 100 96 100 c 1
 126 243 l 1
226 243 m 1
 196 100 l 1
 306 100 l 2
 366 100 401 112 440 144 c 0
 475 174 495 210 506 261 c 2
 516 307 l 2
 519 321 520 335 520 350 c 0
 520 392 503 434 475 457 c 0
 456 474 424 483 387 483 c 2
 277 483 l 1
 247 343 l 1
 321 343 l 2
 341 343 348 342 356 339 c 0
 368 335 378 319 378 304 c 0
 378 287 369 269 355 258 c 0
 341 246 328 243 300 243 c 2
 226 243 l 1
EndSplineSet
EndChar
StartChar: Ntilde
Encoding: 144 209 155
Width: 600
Flags: W
HStem: 0 100<76 94 194 214> 483 100<158 175 496 532 633.031 651> 667 69<515 528>
VStem: 21 264<40 61> 442 264<523 543>
Fore
380 730 m 0
 362 730 353 724 314 684 c 0
 305 674 296 670 286 670 c 0
 272 670 261 680 261 693 c 0
 261 708 273 728 299 753 c 0
 331 783 363 799 393 799 c 0
 416 799 432 792 476 762 c 0
 504 742 517 736 528 736 c 0
 543 736 548 739 576 770 c 0
 593 788 610 799 621 799 c 0
 635 799 648 788 648 776 c 128
 648 764 639 749 619 728 c 0
 579 685 548 667 516 667 c 0
 494 667 462 682 426 709 c 0
 403 726 395 730 380 730 c 0
256 394 m 1
 194 100 l 1
 229 100 l 2
 249 100 255 99 263 96 c 0
 276 92 285 77 285 61 c 0
 285 44 276 27 262 15 c 0
 249 4 235 0 207 0 c 2
 78 0 l 2
 37 0 21 11 21 40 c 0
 21 56 30 73 44 85 c 128
 58 97 68 100 94 100 c 1
 175 483 l 1
 160 483 l 2
 119 483 104 494 104 523 c 0
 104 539 113 556 127 568 c 128
 141 580 151 583 182 583 c 2
 296 583 l 1
 471 191 l 1
 533 483 l 1
 498 483 l 2
 457 483 442 494 442 523 c 0
 442 539 451 556 465 569 c 0
 480 581 488 583 519 583 c 2
 649 583 l 2
 669 583 676 582 684 579 c 0
 697 575 706 560 706 543 c 0
 706 527 697 510 683 498 c 128
 669 486 658 483 633 483 c 1
 530 0 l 1
 432 0 l 1
 256 394 l 1
EndSplineSet
EndChar
StartChar: Ograve
Encoding: 145 210 156
Width: 600
Flags: W
HStem: -14 100<296 318>
VStem: 75 103<219 245>
Fore
426 597 m 0
 554 597 649 498 649 366 c 0
 649 270 610 174 541 102 c 128
 472 30 380 -14 297 -14 c 0
 170 -14 75 86 75 220 c 0
 75 312 116 411 182 481 c 0
 250 552 345 597 426 597 c 0
405 497 m 0
 290 497 178 371 178 243 c 0
 178 153 237 86 317 86 c 0
 434 86 546 211 546 342 c 0
 546 431 486 497 405 497 c 0
398 824 m 2
 508 712 l 1
 519 702 524 692 524 683 c 0
 524 661 501 640 478 640 c 0
 469 640 460 645 450 656 c 2
 340 767 l 1
 329 777 324 787 324 795 c 0
 324 818 346 839 370 839 c 0
 380 839 386 836 398 824 c 2
EndSplineSet
EndChar
StartChar: Oacute
Encoding: 146 211 157
Width: 600
Flags: W
HStem: -14 100<296 318>
VStem: 75 103<219 245>
Fore
426 597 m 0
 554 597 649 498 649 366 c 0
 649 270 610 174 541 102 c 128
 472 30 380 -14 297 -14 c 0
 170 -14 75 86 75 220 c 0
 75 312 116 411 182 481 c 0
 250 552 345 597 426 597 c 0
405 497 m 0
 290 497 178 371 178 243 c 0
 178 153 237 86 317 86 c 0
 434 86 546 211 546 342 c 0
 546 431 486 497 405 497 c 0
587 767 m 2
 429 656 l 2
 413 644 403 640 394 640 c 0
 376 640 364 652 364 670 c 0
 364 684 374 698 395 712 c 2
 552 824 l 1
 569 835 577 839 588 839 c 0
 605 839 618 827 618 810 c 0
 618 795 610 783 587 767 c 2
EndSplineSet
EndChar
StartChar: Ocircumflex
Encoding: 147 212 158
Width: 600
Flags: W
HStem: -14 100<296 318>
VStem: 75 103<219 245>
Fore
426 597 m 0
 554 597 649 498 649 366 c 0
 649 270 610 174 541 102 c 128
 472 30 380 -14 297 -14 c 0
 170 -14 75 86 75 220 c 0
 75 312 116 411 182 481 c 0
 250 552 345 597 426 597 c 0
405 497 m 0
 290 497 178 371 178 243 c 0
 178 153 237 86 317 86 c 0
 434 86 546 211 546 342 c 0
 546 431 486 497 405 497 c 0
460 750 m 1
 326 653 l 2
 313 644 304 640 295 640 c 0
 279 640 267 652 267 668 c 0
 267 685 271 691 299 711 c 2
 479 839 l 1
 603 711 l 2
 620 693 620 693 620 683 c 0
 620 661 599 640 577 640 c 0
 568 640 561 644 552 653 c 2
 460 750 l 1
EndSplineSet
EndChar
StartChar: Otilde
Encoding: 148 213 159
Width: 600
Flags: W
HStem: -14 100<296 318> 667 69<523 538>
VStem: 75 103<219 245>
Fore
426 597 m 0
 554 597 649 498 649 366 c 0
 649 270 610 174 541 102 c 128
 472 30 380 -14 297 -14 c 0
 169 -14 75 85 75 220 c 0
 75 312 116 411 182 481 c 0
 250 552 345 597 426 597 c 0
405 497 m 0
 290 497 178 371 178 243 c 0
 178 153 237 86 317 86 c 0
 434 86 546 211 546 342 c 0
 546 431 486 497 405 497 c 0
629 799 m 0
 643 799 656 788 656 776 c 128
 656 764 647 750 627 728 c 0
 586 684 557 667 524 667 c 0
 502 667 472 681 434 709 c 0
 410 726 402 730 388 730 c 0
 370 730 361 724 320 682 c 0
 313 675 303 670 294 670 c 0
 280 670 269 680 269 693 c 0
 269 709 282 729 309 754 c 0
 340 784 372 799 401 799 c 0
 424 799 440 791 484 762 c 0
 512 742 525 736 536 736 c 0
 551 736 556 740 584 770 c 0
 602 789 617 799 629 799 c 0
EndSplineSet
EndChar
StartChar: Odieresis
Encoding: 149 214 160
Width: 600
Flags: W
HStem: -14 100<296 318> 678 122<339 364 547 572>
VStem: 75 103<219 245> 291 122<727 751> 499 122<727 751>
Fore
426 597 m 0
 554 597 649 498 649 366 c 0
 649 270 610 174 541 102 c 128
 472 30 380 -14 297 -14 c 0
 170 -14 75 86 75 220 c 0
 75 312 116 411 182 481 c 0
 250 552 345 597 426 597 c 0
405 497 m 0
 290 497 178 371 178 243 c 0
 178 153 237 86 317 86 c 0
 434 86 546 211 546 342 c 0
 546 431 486 497 405 497 c 0
364 800 m 0
 392 800 413 779 413 751 c 0
 413 713 377 678 339 678 c 0
 314 678 291 701 291 727 c 0
 291 763 328 800 364 800 c 0
572 800 m 0
 600 800 621 779 621 751 c 0
 621 713 585 678 547 678 c 0
 522 678 499 701 499 727 c 0
 499 763 536 800 572 800 c 0
EndSplineSet
EndChar
StartChar: multiply
Encoding: 150 215 161
Width: 600
Flags: W
Fore
344 209 m 1
 219 106 l 2
 194 85 183 80 167 80 c 0
 143 80 126 97 126 120 c 0
 126 141 134 153 163 177 c 2
 288 280 l 1
 207 383 l 2
 192 401 189 408 189 421 c 0
 189 450 221 480 252 480 c 0
 267 480 277 474 293 454 c 2
 374 351 l 1
 499 454 l 2
 525 475 534 480 551 480 c 0
 575 480 592 463 592 440 c 0
 592 420 583 407 555 383 c 2
 430 280 l 1
 511 177 l 2
 525 159 529 151 529 139 c 0
 529 110 497 80 466 80 c 0
 450 80 441 85 425 106 c 2
 344 209 l 1
EndSplineSet
EndChar
StartChar: Oslash
Encoding: 151 216 162
Width: 600
Flags: W
HStem: -14 100<297 319>
VStem: 75 103<219 245> 546 103<340 365>
Fore
165 28 m 1
 97 -40 l 2
 72 -65 63 -70 44 -70 c 0
 21 -70 4 -54 4 -33 c 0
 4 -16 10 -5 35 19 c 2
 108 92 l 1
 85 132 75 171 75 220 c 0
 75 413 247 597 427 597 c 0
 480 597 525 581 566 549 c 1
 624 607 l 2
 649 632 660 638 678 638 c 0
 700 638 717 622 717 600 c 0
 717 582 711 573 687 548 c 1
 621 483 l 1
 640 449 649 409 649 365 c 0
 649 270 610 174 542 102 c 0
 473 30 381 -14 298 -14 c 0
 248 -14 203 0 165 28 c 1
538 400 m 1
 244 107 l 1
 267 93 292 86 319 86 c 0
 435 86 546 212 546 342 c 0
 546 364 544 380 538 400 c 1
190 174 m 1
 487 471 l 1
 463 488 436 497 405 497 c 0
 290 497 178 371 178 243 c 0
 178 217 182 197 190 174 c 1
EndSplineSet
EndChar
StartChar: Ugrave
Encoding: 152 217 163
Width: 600
Flags: W
HStem: -14 100<297 321> 483 100<273 331 493 532 632.063 647.096>
VStem: 110 101<157 178>
Fore
705 544 m 0
 705 510 679 483 632 483 c 1
 573 205 l 1
 547 81 427 -14 298 -14 c 0
 189 -14 110 59 110 158 c 0
 110 173 112 188 115 205 c 1
 174 483 l 1
 138 483 123 495 123 523 c 0
 123 539 132 557 146 569 c 0
 161 581 170 583 201 583 c 2
 331 583 l 2
 353 583 357 583 365 579 c 0
 378 575 387 559 387 544 c 0
 387 527 378 509 364 498 c 0
 350 486 339 483 309 483 c 2
 274 483 l 1
 213 196 l 1
 212 189 211 182 211 176 c 0
 211 124 257 86 319 86 c 0
 390 86 458 135 471 196 c 2
 532 483 l 1
 497 483 l 2
 456 483 441 494 441 523 c 0
 441 539 450 556 464 569 c 0
 479 581 487 583 519 583 c 2
 648 583 l 2
 668 583 675 582 683 579 c 0
 696 575 705 560 705 544 c 0
399 824 m 2
 509 712 l 2
 520 701 525 692 525 683 c 0
 525 661 502 640 479 640 c 0
 470 640 461 645 451 656 c 2
 340 767 l 2
 330 777 325 787 325 795 c 0
 325 818 347 839 370 839 c 0
 381 839 387 836 399 824 c 2
EndSplineSet
EndChar
StartChar: Uacute
Encoding: 153 218 164
Width: 600
Flags: W
HStem: -14 100<297 321> 483 100<273 331 493 532 632.063 647.096>
VStem: 110 101<157 178>
Fore
705 544 m 0
 705 510 679 483 632 483 c 1
 573 205 l 1
 547 81 427 -14 298 -14 c 0
 189 -14 110 59 110 158 c 0
 110 173 112 188 115 205 c 1
 174 483 l 1
 138 483 123 495 123 523 c 0
 123 539 132 557 146 569 c 0
 161 581 170 583 201 583 c 2
 331 583 l 2
 353 583 357 583 365 579 c 0
 378 575 387 559 387 544 c 0
 387 527 378 509 364 498 c 0
 350 486 339 483 309 483 c 2
 274 483 l 1
 213 196 l 1
 212 189 211 182 211 176 c 0
 211 124 257 86 319 86 c 0
 390 86 458 135 471 196 c 2
 532 483 l 1
 497 483 l 2
 456 483 441 494 441 523 c 0
 441 539 450 556 464 569 c 0
 479 581 487 583 519 583 c 2
 648 583 l 2
 668 583 675 582 683 579 c 0
 696 575 705 560 705 544 c 0
587 767 m 2
 429 656 l 1
 414 644 404 640 395 640 c 0
 377 640 365 652 365 670 c 0
 365 684 375 698 395 712 c 2
 553 824 l 2
 569 835 578 839 589 839 c 0
 606 839 619 827 619 810 c 0
 619 794 612 784 587 767 c 2
EndSplineSet
EndChar
StartChar: Ucircumflex
Encoding: 154 219 165
Width: 600
Flags: W
HStem: -14 100<297 321> 483 100<273 331 493 532 632.063 647.096>
VStem: 110 101<157 178>
Fore
705 544 m 0
 705 510 679 483 632 483 c 1
 573 205 l 1
 547 81 427 -14 298 -14 c 0
 189 -14 110 59 110 158 c 0
 110 173 112 188 115 205 c 1
 174 483 l 1
 138 483 123 495 123 523 c 0
 123 539 132 557 146 569 c 0
 161 581 170 583 201 583 c 2
 331 583 l 2
 353 583 357 583 365 579 c 0
 378 575 387 559 387 544 c 0
 387 527 378 509 364 498 c 0
 350 486 339 483 309 483 c 2
 274 483 l 1
 213 196 l 1
 212 189 211 182 211 176 c 0
 211 124 257 86 319 86 c 0
 390 86 458 135 471 196 c 2
 532 483 l 1
 497 483 l 2
 456 483 441 494 441 523 c 0
 441 539 450 556 464 569 c 0
 479 581 487 583 519 583 c 2
 648 583 l 2
 668 583 675 582 683 579 c 0
 696 575 705 560 705 544 c 0
461 750 m 1
 327 653 l 2
 313 643 305 640 296 640 c 0
 280 640 268 652 268 669 c 0
 268 685 273 692 300 711 c 2
 480 839 l 1
 611 703 l 1
 619 696 621 691 621 683 c 0
 621 661 599 640 578 640 c 0
 569 640 561 644 552 653 c 2
 461 750 l 1
EndSplineSet
EndChar
StartChar: Udieresis
Encoding: 155 220 166
Width: 600
Flags: W
HStem: -14 100<297 321> 483 100<273 331 493 532 632.063 647.096> 678 122<340 365 548 573>
VStem: 110 101<157 178> 292 122<727 751> 500 122<727 751>
Fore
705 544 m 0
 705 510 679 483 632 483 c 1
 573 205 l 1
 547 81 427 -14 298 -14 c 0
 189 -14 110 59 110 158 c 0
 110 173 112 188 115 205 c 1
 174 483 l 1
 138 483 123 495 123 523 c 0
 123 539 132 557 146 569 c 0
 161 581 170 583 201 583 c 2
 331 583 l 2
 353 583 357 583 365 579 c 0
 378 575 387 559 387 544 c 0
 387 527 378 509 364 498 c 0
 350 486 339 483 309 483 c 2
 274 483 l 1
 213 196 l 1
 212 189 211 182 211 176 c 0
 211 124 257 86 319 86 c 0
 390 86 458 135 471 196 c 2
 532 483 l 1
 497 483 l 2
 456 483 441 494 441 523 c 0
 441 539 450 556 464 569 c 0
 479 581 487 583 519 583 c 2
 648 583 l 2
 668 583 675 582 683 579 c 0
 696 575 705 560 705 544 c 0
365 800 m 0
 393 800 414 779 414 751 c 0
 414 713 378 678 340 678 c 0
 315 678 292 701 292 727 c 0
 292 763 329 800 365 800 c 0
573 800 m 0
 601 800 622 779 622 751 c 0
 622 713 586 678 548 678 c 0
 523 678 500 701 500 727 c 0
 500 763 537 800 573 800 c 0
EndSplineSet
EndChar
StartChar: Yacute
Encoding: 156 221 167
Width: 600
Flags: W
HStem: 0 100<181 272 372 437> 483 100<187 189 616 640>
VStem: 134 224<523 544>
Fore
590 767 m 2
 433 656 l 2
 417 644 407 640 398 640 c 0
 380 640 368 652 368 669 c 0
 368 684 378 698 398 712 c 2
 556 824 l 2
 572 835 581 839 592 839 c 0
 609 839 622 827 622 810 c 0
 622 794 614 784 590 767 c 2
402 245 m 1
 372 100 l 1
 437 100 l 2
 457 100 464 99 472 96 c 0
 485 92 494 76 494 61 c 0
 494 45 485 26 471 15 c 128
 457 4 444 0 416 0 c 2
 185 0 l 2
 144 0 128 12 128 40 c 0
 128 56 137 74 151 85 c 0
 166 98 175 100 206 100 c 2
 272 100 l 1
 302 245 l 1
 188 483 l 1
 182 483 l 2
 151 483 134 497 134 523 c 0
 134 539 143 557 157 568 c 0
 172 581 181 583 212 583 c 2
 302 583 l 2
 322 583 328 582 336 579 c 0
 349 575 358 560 358 544 c 0
 358 517 341 496 308 483 c 1
 374 348 l 1
 497 483 l 1
 475 492 467 503 467 523 c 0
 467 539 476 556 490 569 c 1
 504 580 514 583 545 583 c 2
 638 583 l 2
 658 583 664 582 672 579 c 0
 685 575 694 559 694 544 c 0
 694 527 685 510 671 498 c 128
 657 486 645 483 620 483 c 2
 617 483 l 1
 402 245 l 1
EndSplineSet
EndChar
StartChar: Thorn
Encoding: 157 222 168
Width: 600
Flags: W
HStem: 0 100<78 116 216 314> 140 100<246 360> 343 100<289 424> 483 100<181 197 296 419>
VStem: 484 104<302 321>
Fore
224 140 m 1
 216 100 l 1
 314 100 l 2
 335 100 341 99 350 96 c 0
 362 92 372 76 372 61 c 0
 372 45 363 26 349 15 c 128
 335 4 321 0 293 0 c 2
 80 0 l 2
 39 0 23 12 23 40 c 0
 23 56 32 73 46 85 c 128
 60 97 70 100 101 100 c 2
 116 100 l 1
 197 483 l 1
 182 483 l 2
 162 483 156 484 148 487 c 0
 135 491 126 507 126 523 c 128
 126 539 135 556 149 568 c 128
 163 580 175 583 204 583 c 2
 417 583 l 2
 458 583 474 572 474 543 c 0
 474 527 465 510 451 498 c 0
 436 486 427 483 396 483 c 2
 297 483 l 1
 289 443 l 1
 387 443 l 2
 461 443 503 435 535 415 c 0
 568 394 588 358 588 321 c 0
 588 279 566 234 530 201 c 0
 482 157 425 140 322 140 c 2
 224 140 l 1
246 240 m 1
 376 240 l 2
 448 240 484 261 484 302 c 0
 484 331 459 343 398 343 c 2
 267 343 l 1
 246 240 l 1
EndSplineSet
EndChar
StartChar: germandbls
Encoding: 158 223 169
Width: 600
Flags: W
HStem: -16 172<338 370> 0 100<76 116>
VStem: 467 102<191 214>
Fore
116 100 m 1
 196 478 l 2
 214 563 299 623 400 623 c 0
 488 623 546 570 546 490 c 0
 546 441 530 405 489 365 c 1
 542 328 569 278 569 214 c 0
 569 158 547 98 511 53 c 0
 473 7 427 -16 370 -16 c 0
 310 -16 272 18 272 74 c 0
 272 121 300 156 338 156 c 0
 359 156 375 143 375 125 c 2
 375 113 l 2
 375 94 383 84 399 84 c 0
 434 84 467 137 467 191 c 0
 467 227 449 261 418 281 c 0
 402 292 375 299 342 303 c 128
 309 307 296 318 296 342 c 0
 296 375 321 398 360 402 c 0
 394 406 407 411 423 425 c 0
 436 438 444 454 444 470 c 0
 444 503 420 523 380 523 c 0
 331 523 301 502 293 461 c 1
 216 100 l 1
 239 96 250 84 250 63 c 0
 250 41 237 19 216 7 c 0
 207 2 193 0 171 0 c 2
 78 0 l 2
 38 0 22 11 22 40 c 0
 22 56 31 73 45 85 c 128
 59 97 69 100 100 100 c 2
 116 100 l 1
EndSplineSet
EndChar
StartChar: agrave
Encoding: 159 224 170
Width: 600
Flags: W
HStem: -16 100<218 243> 0 21G<388 505> 196 92<318 350> 350 100<367 394>
VStem: 65 109<98 118> 453 104<311 337>
Fore
388 0 m 1
 393 23 l 1
 340 -2 278 -16 219 -16 c 0
 130 -16 65 32 65 98 c 0
 65 127 79 159 105 190 c 0
 158 253 244 288 346 288 c 0
 378 288 408 285 447 278 c 1
 450 290 453 297 453 311 c 0
 453 338 426 350 369 350 c 0
 337 350 295 344 249 333 c 0
 232 329 218 327 207 327 c 0
 185 327 169 343 169 366 c 0
 169 388 182 408 202 417 c 0
 236 433 334 450 389 450 c 0
 493 450 557 407 557 337 c 0
 557 324 556 314 553 302 c 1
 510 100 l 1
 527 100 l 2
 547 100 553 99 561 96 c 0
 574 92 583 77 583 61 c 0
 583 44 574 27 560 15 c 0
 547 3 534 0 505 0 c 2
 388 0 l 1
418 135 m 1
 428 185 l 1
 390 192 354 196 320 196 c 0
 271 196 230 182 198 156 c 0
 182 142 174 130 174 118 c 0
 174 99 203 84 241 84 c 0
 296 84 355 101 418 135 c 1
350 680 m 2
 460 569 l 1
 471 559 476 549 476 540 c 0
 476 517 453 496 430 496 c 0
 421 496 414 500 402 512 c 2
 292 624 l 1
 281 634 276 644 276 652 c 0
 276 675 298 696 322 696 c 0
 332 696 338 693 350 680 c 2
EndSplineSet
EndChar
StartChar: aacute
Encoding: 160 225 171
Width: 600
Flags: W
HStem: -16 100<219 244> 0 21G<389 506> 196 92<319 349> 350 100<368 395>
VStem: 66 109<98 118> 454 104<311 337>
Fore
389 0 m 1
 394 23 l 1
 341 -2 279 -16 220 -16 c 0
 131 -16 66 32 66 98 c 0
 66 127 80 159 106 190 c 0
 159 253 245 288 347 288 c 0
 379 288 409 285 448 278 c 1
 451 290 454 297 454 311 c 0
 454 338 427 350 370 350 c 0
 338 350 296 344 250 333 c 0
 233 329 219 327 208 327 c 0
 186 327 170 343 170 366 c 0
 170 388 183 408 203 417 c 0
 237 433 335 450 390 450 c 0
 494 450 558 407 558 337 c 0
 558 324 557 314 554 302 c 1
 511 100 l 1
 528 100 l 2
 548 100 554 99 562 96 c 0
 575 92 584 77 584 61 c 0
 584 44 575 27 561 15 c 0
 548 3 535 0 506 0 c 2
 389 0 l 1
419 135 m 1
 429 185 l 1
 391 192 355 196 321 196 c 0
 272 196 231 182 199 156 c 0
 183 142 175 130 175 118 c 0
 175 99 204 84 242 84 c 0
 297 84 356 101 419 135 c 1
553 624 m 2
 395 512 l 2
 377 499 370 496 360 496 c 0
 342 496 330 508 330 526 c 0
 330 541 340 554 361 569 c 2
 519 680 l 2
 537 693 543 696 554 696 c 0
 572 696 584 684 584 667 c 0
 584 652 575 639 553 624 c 2
EndSplineSet
EndChar
StartChar: acircumflex
Encoding: 161 226 172
Width: 600
Flags: W
HStem: -16 100<218 243> 0 21G<388 505> 196 92<318 348> 350 100<367 394>
VStem: 65 109<98 118> 453 104<311 337>
Fore
388 0 m 1
 393 23 l 1
 340 -2 278 -16 219 -16 c 0
 130 -16 65 32 65 98 c 0
 65 127 79 159 105 190 c 0
 158 253 244 288 346 288 c 0
 378 288 408 285 447 278 c 1
 450 290 453 297 453 311 c 0
 453 338 426 350 369 350 c 0
 337 350 295 344 249 333 c 0
 232 329 218 327 207 327 c 0
 185 327 169 343 169 366 c 0
 169 388 182 408 202 417 c 0
 236 433 334 450 389 450 c 0
 493 450 557 407 557 337 c 0
 557 324 556 314 553 302 c 1
 510 100 l 1
 527 100 l 2
 547 100 553 99 561 96 c 0
 574 92 583 77 583 61 c 0
 583 44 574 27 560 15 c 0
 547 3 534 0 505 0 c 2
 388 0 l 1
418 135 m 1
 428 185 l 1
 390 192 354 196 320 196 c 0
 271 196 230 182 198 156 c 0
 182 142 174 130 174 118 c 0
 174 99 203 84 241 84 c 0
 296 84 355 101 418 135 c 1
420 607 m 1
 286 510 l 2
 273 501 264 497 255 497 c 0
 239 497 227 509 227 525 c 0
 227 542 232 548 259 567 c 2
 439 696 l 1
 563 567 l 2
 579 551 580 550 580 540 c 0
 580 518 559 497 537 497 c 0
 528 497 520 501 512 510 c 2
 420 607 l 1
EndSplineSet
EndChar
StartChar: atilde
Encoding: 162 227 173
Width: 600
Flags: W
HStem: -16 100<218 243> 0 21G<388 505> 196 92<318 349> 350 100<367 394> 523 69<479 494>
VStem: 65 109<98 118> 453 104<311 337>
Fore
388 0 m 1
 393 23 l 1
 340 -2 278 -16 219 -16 c 0
 130 -16 65 32 65 98 c 0
 65 127 79 159 105 190 c 0
 158 253 244 288 346 288 c 0
 378 288 408 285 447 278 c 1
 450 290 453 297 453 311 c 0
 453 338 426 350 369 350 c 0
 337 350 295 344 249 333 c 0
 232 329 218 327 207 327 c 0
 185 327 169 343 169 366 c 0
 169 388 182 408 202 417 c 0
 236 433 334 450 389 450 c 0
 493 450 557 407 557 337 c 0
 557 324 556 314 553 302 c 1
 510 100 l 1
 527 100 l 2
 547 100 553 99 561 96 c 0
 574 92 583 77 583 61 c 0
 583 44 574 27 560 15 c 0
 547 3 534 0 505 0 c 2
 388 0 l 1
418 135 m 1
 428 185 l 1
 390 192 354 196 320 196 c 0
 271 196 230 182 198 156 c 0
 182 142 174 130 174 118 c 0
 174 99 203 84 241 84 c 0
 296 84 355 101 418 135 c 1
585 656 m 0
 599 656 612 645 612 633 c 128
 612 621 603 606 583 584 c 0
 542 540 513 523 480 523 c 0
 458 523 428 538 390 566 c 0
 367 583 359 587 345 587 c 0
 327 587 318 580 280 541 c 0
 270 530 261 526 251 526 c 0
 237 526 226 536 226 549 c 0
 226 565 239 585 266 611 c 0
 297 640 329 656 358 656 c 0
 380 656 397 648 440 618 c 0
 469 598 481 592 492 592 c 0
 507 592 512 595 540 626 c 0
 558 646 573 656 585 656 c 0
EndSplineSet
EndChar
StartChar: adieresis
Encoding: 163 228 174
Width: 600
Flags: W
HStem: -16 100<218 243> 0 21G<388 505> 196 92<318 348> 350 100<367 394> 534 120<298 324 506 532>
VStem: 65 109<98 118> 250 123<582 606> 453 104<311 337> 458 123<582 606>
Fore
388 0 m 1
 393 23 l 1
 340 -2 278 -16 219 -16 c 0
 130 -16 65 32 65 98 c 0
 65 127 79 159 105 190 c 0
 158 253 244 288 346 288 c 0
 378 288 408 285 447 278 c 1
 450 290 453 297 453 311 c 0
 453 338 426 350 369 350 c 0
 337 350 295 344 249 333 c 0
 232 329 218 327 207 327 c 0
 185 327 169 343 169 366 c 0
 169 388 182 408 202 417 c 0
 236 433 334 450 389 450 c 0
 493 450 557 407 557 337 c 0
 557 324 556 314 553 302 c 1
 510 100 l 1
 527 100 l 2
 547 100 553 99 561 96 c 0
 574 92 583 77 583 61 c 0
 583 44 574 27 560 15 c 0
 547 3 534 0 505 0 c 2
 388 0 l 1
418 135 m 1
 428 185 l 1
 390 192 354 196 320 196 c 0
 271 196 230 182 198 156 c 0
 182 142 174 130 174 118 c 0
 174 99 203 84 241 84 c 0
 296 84 355 101 418 135 c 1
324 654 m 0
 353 654 373 634 373 606 c 0
 373 569 337 534 298 534 c 0
 271 534 250 555 250 582 c 0
 250 618 287 654 324 654 c 0
532 654 m 0
 561 654 581 634 581 606 c 0
 581 569 545 534 506 534 c 0
 479 534 458 555 458 582 c 0
 458 618 495 654 532 654 c 0
EndSplineSet
EndChar
StartChar: aring
Encoding: 164 229 175
Width: 600
Flags: W
HStem: -16 100<218 243> 0 21G<388 505> 196 92<318 348> 350 100<367 394> 486 54<392 406> 674 53<427 443>
VStem: 65 109<98 118> 293 54<583 597> 453 104<311 337> 490 54<616 629>
Fore
388 0 m 1
 393 23 l 1
 340 -2 278 -16 219 -16 c 0
 130 -16 65 32 65 98 c 0
 65 127 79 159 105 190 c 0
 158 253 244 288 346 288 c 0
 378 288 408 285 447 278 c 1
 450 290 453 297 453 311 c 0
 453 338 426 350 369 350 c 0
 337 350 295 344 249 333 c 0
 232 329 218 327 207 327 c 0
 185 327 169 343 169 366 c 0
 169 388 182 408 202 417 c 0
 236 433 334 450 389 450 c 0
 493 450 557 407 557 337 c 0
 557 324 556 314 553 302 c 1
 510 100 l 1
 527 100 l 2
 547 100 553 99 561 96 c 0
 574 92 583 77 583 61 c 0
 583 44 574 27 560 15 c 0
 547 3 534 0 505 0 c 2
 388 0 l 1
418 135 m 1
 428 185 l 1
 390 192 354 196 320 196 c 0
 271 196 230 182 198 156 c 0
 182 142 174 130 174 118 c 0
 174 99 203 84 241 84 c 0
 296 84 355 101 418 135 c 1
443 727 m 0
 502 727 544 687 544 629 c 0
 544 556 469 486 392 486 c 0
 335 486 293 527 293 584 c 0
 293 656 368 727 443 727 c 0
432 674 m 0
 390 674 347 635 347 595 c 0
 347 563 371 540 404 540 c 0
 447 540 490 579 490 618 c 0
 490 651 466 674 432 674 c 0
EndSplineSet
EndChar
StartChar: ae
Encoding: 165 230 176
Width: 600
Flags: W
HStem: -16 100<155 179 445 459> 172 86<417 557> 197 89<237 259> 350 100<282 302 507 531>
VStem: 14 103<105 130> 557 108<257 292>
Fore
647 172 m 1
 397 172 l 1
 400 109 418 84 459 84 c 0
 481 84 500 89 531 101 c 128
 562 113 579 118 592 118 c 0
 613 118 628 102 628 80 c 128
 628 58 618 39 599 26 c 0
 567 4 490 -16 437 -16 c 0
 399 -16 377 -8 346 16 c 1
 334 5 320 -1 305 -1 c 128
 290 -1 280 5 272 16 c 1
 230 -7 198 -16 156 -16 c 0
 67 -16 14 30 14 106 c 0
 14 156 31 195 64 221 c 0
 112 258 194 286 256 286 c 0
 271 286 289 284 315 281 c 1
 317 291 320 302 320 314 c 0
 319 336 304 350 282 350 c 0
 265 350 256 348 187 329 c 0
 178 326 169 325 163 325 c 0
 141 325 125 342 125 365 c 0
 125 391 142 413 170 424 c 0
 201 435 275 450 302 450 c 0
 349 450 380 433 406 394 c 1
 451 433 488 450 531 450 c 0
 609 450 665 384 665 290 c 0
 665 251 655 207 647 172 c 1
283 130 m 1
 295 189 l 1
 273 195 258 197 241 197 c 0
 198 197 147 182 130 164 c 0
 122 155 117 143 117 130 c 0
 117 101 140 84 177 84 c 0
 207 84 234 96 283 130 c 1
417 258 m 1
 557 258 l 1
 558 268 558 275 558 280 c 0
 558 323 539 350 507 350 c 0
 483 350 457 333 440 307 c 0
 432 295 426 282 417 258 c 1
EndSplineSet
EndChar
StartChar: ccedilla
Encoding: 166 231 177
Width: 600
Flags: W
HStem: -229 70<264 278> 241 209<541 586> 350 100<379 408>
VStem: 92 103<155 179> 318 72<-128 -109>
Fore
338 -16 m 1
 332 -42 l 1
 374 -50 390 -69 390 -109 c 0
 390 -174 332 -229 263 -229 c 0
 205 -229 153 -203 153 -174 c 0
 153 -152 174 -131 197 -131 c 0
 204 -131 207 -132 223 -142 c 0
 238 -152 260 -159 276 -159 c 0
 302 -159 318 -147 318 -128 c 128
 318 -109 302 -100 269 -100 c 0
 265 -100 259 -101 250 -102 c 1
 268 -14 l 1
 239 -11 225 -8 205 -2 c 0
 135 22 92 82 92 156 c 0
 92 223 123 297 173 351 c 0
 233 416 314 450 406 450 c 0
 462 450 508 440 543 420 c 1
 554 441 566 450 586 450 c 0
 609 450 626 436 626 415 c 0
 626 406 626 404 621 384 c 1
 605 307 l 1
 600 281 595 271 586 261 c 0
 574 249 557 241 541 241 c 0
 528 241 514 247 507 255 c 0
 502 262 500 268 500 289 c 0
 500 306 496 316 485 325 c 0
 463 341 428 350 385 350 c 0
 321 350 271 328 234 282 c 0
 210 251 195 213 195 179 c 0
 195 115 245 84 348 84 c 0
 428 84 464 94 512 128 c 0
 523 136 533 140 544 140 c 0
 568 140 585 123 585 99 c 0
 585 70 556 40 504 16 c 0
 461 -3 409 -14 338 -16 c 1
EndSplineSet
EndChar
StartChar: egrave
Encoding: 167 232 178
Width: 600
Flags: W
HStem: -16 100<293 327> 172 88<200 495> 350 100<361 387>
Fore
587 172 m 1
 178 172 l 1
 189 112 237 84 325 84 c 0
 369 84 398 89 493 112 c 0
 506 115 519 117 528 117 c 0
 551 117 566 101 566 79 c 128
 566 57 554 39 533 28 c 0
 490 5 374 -16 294 -16 c 0
 158 -16 74 55 74 169 c 0
 74 318 221 450 387 450 c 0
 517 450 600 375 600 259 c 0
 600 228 592 199 587 172 c 1
200 260 m 1
 495 260 l 1
 490 314 439 350 367 350 c 0
 293 350 228 315 200 260 c 1
362 680 m 2
 472 569 l 1
 483 559 488 549 488 540 c 0
 488 517 465 496 442 496 c 0
 433 496 426 500 414 512 c 2
 304 624 l 1
 293 634 288 644 288 652 c 0
 288 675 310 696 334 696 c 0
 344 696 350 693 362 680 c 2
EndSplineSet
EndChar
StartChar: eacute
Encoding: 168 233 179
Width: 600
Flags: W
HStem: -16 100<293 327> 172 88<200 495> 350 100<361 387>
Fore
587 172 m 1
 178 172 l 1
 189 112 237 84 325 84 c 0
 369 84 398 89 493 112 c 0
 506 115 519 117 528 117 c 0
 551 117 566 101 566 79 c 128
 566 57 554 39 533 28 c 0
 490 5 374 -16 294 -16 c 0
 158 -16 74 55 74 169 c 0
 74 318 221 450 387 450 c 0
 517 450 600 375 600 259 c 0
 600 228 592 199 587 172 c 1
200 260 m 1
 495 260 l 1
 490 314 439 350 367 350 c 0
 293 350 228 315 200 260 c 1
564 624 m 2
 406 512 l 2
 388 499 381 496 371 496 c 0
 353 496 341 508 341 526 c 0
 341 541 351 554 372 569 c 2
 530 680 l 2
 548 693 554 696 565 696 c 0
 583 696 595 684 595 667 c 0
 595 652 586 639 564 624 c 2
EndSplineSet
EndChar
StartChar: ecircumflex
Encoding: 169 234 180
Width: 600
Flags: W
HStem: -16 100<293 327> 172 88<200 495> 350 100<361 387>
Fore
587 172 m 1
 178 172 l 1
 189 112 237 84 325 84 c 0
 369 84 398 89 493 112 c 0
 506 115 519 117 528 117 c 0
 551 117 566 101 566 79 c 128
 566 57 554 39 533 28 c 0
 490 5 374 -16 294 -16 c 0
 158 -16 74 55 74 169 c 0
 74 318 221 450 387 450 c 0
 517 450 600 375 600 259 c 0
 600 228 592 199 587 172 c 1
200 260 m 1
 495 260 l 1
 490 314 439 350 367 350 c 0
 293 350 228 315 200 260 c 1
435 607 m 1
 301 510 l 2
 288 501 279 497 270 497 c 0
 254 497 242 509 242 525 c 0
 242 542 247 548 274 567 c 2
 454 696 l 1
 578 567 l 2
 594 551 595 550 595 540 c 0
 595 518 574 497 552 497 c 0
 543 497 535 501 527 510 c 2
 435 607 l 1
EndSplineSet
EndChar
StartChar: edieresis
Encoding: 170 235 181
Width: 600
Flags: W
HStem: -16 100<293 327> 172 88<200 495> 350 100<361 387> 534 120<313 339 521 547>
VStem: 265 123<582 606> 473 123<582 606>
Fore
587 172 m 1
 178 172 l 1
 189 112 237 84 325 84 c 0
 369 84 398 89 493 112 c 0
 506 115 519 117 528 117 c 0
 551 117 566 101 566 79 c 128
 566 57 554 39 533 28 c 0
 490 5 374 -16 294 -16 c 0
 158 -16 74 55 74 169 c 0
 74 318 221 450 387 450 c 0
 517 450 600 375 600 259 c 0
 600 228 592 199 587 172 c 1
200 260 m 1
 495 260 l 1
 490 314 439 350 367 350 c 0
 293 350 228 315 200 260 c 1
339 654 m 0
 368 654 388 634 388 606 c 0
 388 569 352 534 313 534 c 0
 286 534 265 555 265 582 c 0
 265 618 302 654 339 654 c 0
547 654 m 0
 576 654 596 634 596 606 c 0
 596 569 560 534 521 534 c 0
 494 534 473 555 473 582 c 0
 473 618 510 654 547 654 c 0
EndSplineSet
EndChar
StartChar: igrave
Encoding: 171 236 182
Width: 600
Flags: W
HStem: 0 100<127 272 372 493> 337 100<242 322>
Fore
443 437 m 1
 372 100 l 1
 493 100 l 2
 513 100 520 99 528 96 c 0
 541 92 550 76 550 60 c 128
 550 44 541 27 527 15 c 0
 513 4 500 0 472 0 c 2
 129 0 l 2
 88 0 72 11 72 40 c 0
 72 56 81 73 95 85 c 0
 110 98 118 100 150 100 c 2
 272 100 l 1
 322 337 l 1
 244 337 l 2
 202 337 186 348 186 377 c 0
 186 393 195 411 209 422 c 0
 224 435 233 437 265 437 c 2
 443 437 l 1
351 680 m 2
 461 569 l 1
 472 559 477 549 477 540 c 0
 477 517 454 496 431 496 c 0
 422 496 415 500 403 512 c 2
 293 624 l 1
 282 634 277 644 277 652 c 0
 277 675 299 696 323 696 c 0
 333 696 339 693 351 680 c 2
EndSplineSet
EndChar
StartChar: iacute
Encoding: 172 237 183
Width: 600
Flags: W
HStem: 0 100<126 271 371 492> 337 100<241 320>
Fore
442 437 m 1
 371 100 l 1
 492 100 l 2
 512 100 519 99 527 96 c 0
 540 92 549 76 549 60 c 128
 549 44 540 27 526 15 c 0
 512 4 499 0 471 0 c 2
 128 0 l 2
 87 0 71 11 71 40 c 0
 71 56 80 73 94 85 c 0
 109 98 117 100 149 100 c 2
 271 100 l 1
 321 337 l 1
 243 337 l 2
 201 337 185 348 185 377 c 0
 185 393 194 411 208 422 c 0
 223 435 232 437 264 437 c 2
 442 437 l 1
543 624 m 2
 385 512 l 2
 367 499 360 496 350 496 c 0
 332 496 320 508 320 526 c 0
 320 541 330 554 351 569 c 2
 509 680 l 2
 527 693 533 696 544 696 c 0
 562 696 574 684 574 667 c 0
 574 652 565 639 543 624 c 2
EndSplineSet
EndChar
StartChar: icircumflex
Encoding: 173 238 184
Width: 600
Flags: W
HStem: 0 100<127 272 372 493> 337 100<242 322>
Fore
443 437 m 1
 372 100 l 1
 493 100 l 2
 513 100 520 99 528 96 c 0
 541 92 550 76 550 60 c 128
 550 44 541 27 527 15 c 0
 513 4 500 0 472 0 c 2
 129 0 l 2
 88 0 72 11 72 40 c 0
 72 56 81 73 95 85 c 0
 110 98 118 100 150 100 c 2
 272 100 l 1
 322 337 l 1
 244 337 l 2
 202 337 186 348 186 377 c 0
 186 393 195 411 209 422 c 0
 224 435 233 437 265 437 c 2
 443 437 l 1
413 607 m 1
 279 510 l 2
 266 501 257 497 248 497 c 0
 232 497 220 509 220 525 c 0
 220 542 225 548 252 567 c 2
 432 696 l 1
 556 567 l 2
 572 551 573 550 573 540 c 0
 573 518 552 497 530 497 c 0
 521 497 513 501 505 510 c 2
 413 607 l 1
EndSplineSet
EndChar
StartChar: idieresis
Encoding: 174 239 185
Width: 600
Flags: W
HStem: 0 100<127 272 372 493> 337 100<242 322> 534 122<293 318 501 526>
VStem: 245 122<583 607> 453 122<583 607>
Fore
443 437 m 1
 372 100 l 1
 493 100 l 2
 513 100 520 99 528 96 c 0
 541 92 550 76 550 60 c 128
 550 44 541 27 527 15 c 0
 513 4 500 0 472 0 c 2
 129 0 l 2
 88 0 72 11 72 40 c 0
 72 56 81 73 95 85 c 0
 110 98 118 100 150 100 c 2
 272 100 l 1
 322 337 l 1
 244 337 l 2
 202 337 186 348 186 377 c 0
 186 393 195 411 209 422 c 0
 224 435 233 437 265 437 c 2
 443 437 l 1
318 656 m 0
 346 656 367 635 367 607 c 0
 367 569 331 534 293 534 c 0
 268 534 245 557 245 583 c 0
 245 619 282 656 318 656 c 0
526 656 m 0
 554 656 575 635 575 607 c 0
 575 569 539 534 501 534 c 0
 476 534 453 557 453 583 c 0
 453 619 490 656 526 656 c 0
EndSplineSet
EndChar
StartChar: eth
Encoding: 175 240 186
Width: 600
Flags: W
HStem: -16 100<297 320> 350 93<370 388>
VStem: 83 104<169 188> 504 113<238 312>
Fore
542 583 m 2
 491 558 l 1
 528 528 543 512 562 486 c 0
 598 436 617 375 617 312 c 0
 617 224 585 137 533 84 c 0
 473 23 382 -16 298 -16 c 0
 173 -16 83 62 83 170 c 0
 83 226 112 292 159 343 c 0
 216 406 299 443 382 443 c 0
 431 443 459 433 514 396 c 1
 486 446 445 490 404 518 c 1
 301 468 l 2
 280 457 276 456 267 456 c 0
 253 456 244 467 244 484 c 0
 244 503 249 509 274 522 c 2
 331 551 l 1
 318 557 302 565 296 568 c 1
 280 573 260 579 260 597 c 0
 260 619 284 640 308 640 c 0
 331 640 360 630 401 609 c 2
 426 596 l 1
 512 637 l 2
 525 643 537 646 547 646 c 0
 562 646 572 635 572 620 c 128
 572 605 561 592 542 583 c 2
318 84 m 0
 402 84 504 143 504 238 c 0
 504 303 450 350 374 350 c 0
 278 350 187 271 187 188 c 0
 187 130 245 84 318 84 c 0
EndSplineSet
EndChar
StartChar: ntilde
Encoding: 176 241 187
Width: 600
Flags: W
HStem: 0 100<87 117 217 223 414 432> 350 100<394 428> 417 20G<194 288> 523 69<479 494>
VStem: 359 224<40 60> 472 103<301 328>
Fore
345 587 m 0
 327 587 318 581 279 540 c 0
 270 531 261 526 251 526 c 0
 237 526 226 536 226 549 c 0
 226 565 239 585 265 610 c 0
 296 640 329 656 358 656 c 0
 381 656 397 648 441 618 c 0
 469 598 481 592 492 592 c 0
 508 592 513 596 545 631 c 0
 557 645 576 656 586 656 c 0
 600 656 613 645 613 633 c 128
 613 621 603 605 582 583 c 0
 542 540 513 523 480 523 c 0
 459 523 427 538 391 566 c 0
 368 583 359 587 345 587 c 0
288 437 m 1
 278 389 l 1
 336 435 373 450 428 450 c 0
 516 450 575 401 575 328 c 0
 575 312 573 298 570 282 c 1
 531 100 l 1
 566 100 583 87 583 60 c 0
 583 44 574 27 560 15 c 128
 546 3 533 0 505 0 c 2
 416 0 l 2
 375 0 359 11 359 40 c 0
 359 56 368 73 382 85 c 128
 396 97 407 100 432 100 c 1
 469 278 l 2
 471 287 472 294 472 301 c 0
 472 333 444 350 394 350 c 0
 348 350 313 333 255 282 c 1
 217 100 l 1
 223 100 l 2
 243 100 249 99 257 96 c 0
 270 91 279 76 279 60 c 128
 279 44 270 27 256 15 c 128
 242 3 230 0 201 0 c 2
 89 0 l 2
 49 0 33 11 33 40 c 0
 33 56 42 73 56 85 c 128
 70 97 80 100 111 100 c 2
 117 100 l 1
 167 337 l 1
 132 337 115 350 115 377 c 0
 115 393 124 411 138 422 c 0
 153 434 163 437 194 437 c 2
 288 437 l 1
EndSplineSet
EndChar
StartChar: ograve
Encoding: 177 242 188
Width: 600
Flags: W
HStem: -16 100<296 320>
VStem: 84 102<173 194>
Fore
399 450 m 0
 523 450 609 372 609 260 c 0
 609 115 460 -16 297 -16 c 0
 169 -16 84 60 84 174 c 0
 84 231 111 295 158 346 c 0
 216 410 308 450 399 450 c 0
376 350 m 0
 274 350 186 277 186 192 c 0
 186 129 241 84 318 84 c 0
 419 84 507 158 507 242 c 0
 507 305 452 350 376 350 c 0
361 680 m 2
 471 569 l 1
 482 559 487 549 487 540 c 0
 487 517 464 496 441 496 c 0
 432 496 425 500 413 512 c 2
 303 624 l 1
 292 634 287 644 287 652 c 0
 287 675 309 696 333 696 c 0
 343 696 349 693 361 680 c 2
EndSplineSet
EndChar
StartChar: oacute
Encoding: 178 243 189
Width: 600
Flags: W
HStem: -16 100<296 320>
VStem: 84 102<173 194>
Fore
399 450 m 0
 523 450 609 372 609 260 c 0
 609 115 460 -16 297 -16 c 0
 169 -16 84 60 84 174 c 0
 84 231 111 295 158 346 c 0
 216 410 308 450 399 450 c 0
376 350 m 0
 274 350 186 277 186 192 c 0
 186 129 241 84 318 84 c 0
 419 84 507 158 507 242 c 0
 507 305 452 350 376 350 c 0
564 624 m 2
 406 512 l 2
 388 499 381 496 371 496 c 0
 353 496 341 508 341 526 c 0
 341 541 351 554 372 569 c 2
 530 680 l 2
 548 693 554 696 565 696 c 0
 583 696 595 684 595 667 c 0
 595 652 586 639 564 624 c 2
EndSplineSet
EndChar
StartChar: ocircumflex
Encoding: 179 244 190
Width: 600
Flags: W
HStem: -16 100<296 320>
VStem: 84 102<173 194>
Fore
399 450 m 0
 523 450 609 372 609 260 c 0
 609 115 460 -16 297 -16 c 0
 169 -16 84 60 84 174 c 0
 84 231 111 295 158 346 c 0
 216 410 308 450 399 450 c 0
376 350 m 0
 274 350 186 277 186 192 c 0
 186 129 241 84 318 84 c 0
 419 84 507 158 507 242 c 0
 507 305 452 350 376 350 c 0
430 607 m 1
 296 510 l 2
 283 501 274 497 265 497 c 0
 249 497 237 509 237 525 c 0
 237 542 242 548 269 567 c 2
 449 696 l 1
 573 567 l 2
 589 551 590 550 590 540 c 0
 590 518 569 497 547 497 c 0
 538 497 530 501 522 510 c 2
 430 607 l 1
EndSplineSet
EndChar
StartChar: otilde
Encoding: 180 245 191
Width: 600
Flags: W
HStem: -16 100<296 320> 523 69<493 508>
VStem: 84 102<173 194>
Fore
399 450 m 0
 523 450 609 372 609 260 c 0
 609 115 460 -16 297 -16 c 0
 169 -16 84 60 84 174 c 0
 84 231 111 295 158 346 c 0
 216 410 308 450 399 450 c 0
376 350 m 0
 274 350 186 277 186 192 c 0
 186 129 241 84 318 84 c 0
 419 84 507 158 507 242 c 0
 507 305 452 350 376 350 c 0
599 656 m 0
 613 656 626 645 626 633 c 128
 626 621 617 606 597 584 c 0
 556 540 527 523 494 523 c 0
 472 523 442 538 404 566 c 0
 381 583 373 587 359 587 c 0
 341 587 332 580 294 541 c 0
 284 530 275 526 265 526 c 0
 251 526 240 536 240 549 c 0
 240 565 253 585 280 611 c 0
 311 640 343 656 372 656 c 0
 394 656 411 648 454 618 c 0
 483 598 495 592 506 592 c 0
 521 592 526 595 554 626 c 0
 572 646 587 656 599 656 c 0
EndSplineSet
EndChar
StartChar: odieresis
Encoding: 181 246 192
Width: 600
Flags: W
HStem: -16 100<296 320> 534 120<309 335 517 543>
VStem: 84 102<173 194> 261 123<582 606> 469 123<582 606>
Fore
399 450 m 0
 523 450 609 372 609 260 c 0
 609 115 460 -16 297 -16 c 0
 169 -16 84 60 84 174 c 0
 84 231 111 295 158 346 c 0
 216 410 308 450 399 450 c 0
376 350 m 0
 274 350 186 277 186 192 c 0
 186 129 241 84 318 84 c 0
 419 84 507 158 507 242 c 0
 507 305 452 350 376 350 c 0
335 654 m 0
 364 654 384 634 384 606 c 0
 384 569 348 534 309 534 c 0
 282 534 261 555 261 582 c 0
 261 618 298 654 335 654 c 0
543 654 m 0
 572 654 592 634 592 606 c 0
 592 569 556 534 517 534 c 0
 490 534 469 555 469 582 c 0
 469 618 506 654 543 654 c 0
EndSplineSet
EndChar
StartChar: divide
Encoding: 182 247 193
Width: 600
Flags: W
HStem: 28 132<306 335> 230 100<156 564> 400 132<384 413>
VStem: 244 153<80 108> 323 153<452 480>
Fore
179 330 m 2
 562 330 l 2
 584 330 588 330 597 326 c 0
 610 321 619 307 619 290 c 0
 619 274 610 257 596 245 c 128
 582 233 570 230 541 230 c 2
 158 230 l 2
 117 230 101 241 101 270 c 0
 101 286 110 304 124 316 c 0
 139 328 148 330 179 330 c 2
335 160 m 0
 375 160 397 141 397 108 c 0
 397 63 357 28 306 28 c 0
 267 28 244 47 244 80 c 0
 244 125 284 160 335 160 c 0
413 532 m 0
 454 532 476 513 476 480 c 0
 476 435 436 400 385 400 c 0
 346 400 323 419 323 452 c 0
 323 496 363 532 413 532 c 0
EndSplineSet
EndChar
StartChar: oslash
Encoding: 183 248 194
Width: 600
Flags: W
HStem: -16 100<295 322> 350 100<368 392>
VStem: 83 102<173 194>
Fore
634 402 m 2
 583 359 l 1
 600 329 609 297 609 260 c 0
 609 116 460 -16 297 -16 c 0
 251 -16 211 -6 174 14 c 1
 106 -44 l 2
 82 -65 71 -70 56 -70 c 0
 33 -70 17 -54 17 -32 c 0
 17 -13 25 -1 52 22 c 2
 111 72 l 1
 92 103 83 136 83 174 c 0
 83 317 232 450 392 450 c 0
 437 450 491 437 521 419 c 1
 580 468 l 2
 604 489 614 494 630 494 c 0
 653 494 669 478 669 456 c 0
 669 437 661 424 634 402 c 2
496 286 m 1
 266 91 l 1
 283 86 297 84 316 84 c 0
 418 84 507 157 507 241 c 0
 507 258 504 271 496 286 c 1
197 145 m 1
 430 342 l 1
 410 347 393 350 374 350 c 0
 274 350 185 276 185 192 c 0
 185 177 189 161 197 145 c 1
EndSplineSet
EndChar
StartChar: ugrave
Encoding: 184 249 195
Width: 600
Flags: W
HStem: -13 100<269 301> 0 21G<410 504> 338 99<148 166 444 482>
VStem: 123 103<109 136>
Fore
603 437 m 1
 531 100 l 1
 566 100 583 87 583 61 c 0
 583 44 574 26 559 15 c 1
 546 3 533 0 504 0 c 2
 410 0 l 1
 420 48 l 1
 360 1 326 -13 270 -13 c 0
 182 -13 123 36 123 110 c 0
 123 127 124 140 128 156 c 1
 166 338 l 1
 150 338 l 2
 110 338 94 349 94 378 c 0
 94 393 103 411 117 423 c 0
 131 434 141 437 172 437 c 2
 288 437 l 1
 229 159 l 1
 227 151 226 144 226 136 c 0
 226 105 253 87 301 87 c 0
 351 87 380 101 443 155 c 1
 482 338 l 1
 447 338 l 2
 406 338 390 349 390 377 c 0
 390 393 399 411 413 423 c 0
 428 434 437 437 468 437 c 2
 603 437 l 1
359 680 m 2
 469 569 l 1
 480 559 485 549 485 540 c 0
 485 517 462 496 439 496 c 0
 430 496 423 500 411 512 c 2
 301 624 l 1
 290 634 285 644 285 652 c 0
 285 675 307 696 331 696 c 0
 341 696 347 693 359 680 c 2
EndSplineSet
EndChar
StartChar: uacute
Encoding: 185 250 196
Width: 600
Flags: W
HStem: -13 100<269 301> 0 21G<410 504> 338 99<148 166 444 482>
VStem: 123 103<109 136>
Fore
603 437 m 1
 531 100 l 1
 566 100 583 87 583 61 c 0
 583 44 574 26 559 15 c 1
 546 3 533 0 504 0 c 2
 410 0 l 1
 420 48 l 1
 360 1 326 -13 270 -13 c 0
 182 -13 123 36 123 110 c 0
 123 127 124 140 128 156 c 1
 166 338 l 1
 150 338 l 2
 110 338 94 349 94 378 c 0
 94 393 103 411 117 423 c 0
 131 434 141 437 172 437 c 2
 288 437 l 1
 229 159 l 1
 227 151 226 144 226 136 c 0
 226 105 253 87 301 87 c 0
 351 87 380 101 443 155 c 1
 482 338 l 1
 447 338 l 2
 406 338 390 349 390 377 c 0
 390 393 399 411 413 423 c 0
 428 434 437 437 468 437 c 2
 603 437 l 1
552 624 m 2
 394 512 l 2
 376 499 369 496 359 496 c 0
 341 496 329 508 329 526 c 0
 329 541 339 554 360 569 c 2
 518 680 l 2
 536 693 542 696 553 696 c 0
 571 696 583 684 583 667 c 0
 583 652 574 639 552 624 c 2
EndSplineSet
EndChar
StartChar: ucircumflex
Encoding: 186 251 197
Width: 600
Flags: W
HStem: -13 100<269 301> 0 21G<410 504> 338 99<148 166 444 482>
VStem: 123 103<109 136>
Fore
603 437 m 1
 531 100 l 1
 566 100 583 87 583 61 c 0
 583 44 574 26 559 15 c 1
 546 3 533 0 504 0 c 2
 410 0 l 1
 420 48 l 1
 360 1 326 -13 270 -13 c 0
 182 -13 123 36 123 110 c 0
 123 127 124 140 128 156 c 1
 166 338 l 1
 150 338 l 2
 110 338 94 349 94 378 c 0
 94 393 103 411 117 423 c 0
 131 434 141 437 172 437 c 2
 288 437 l 1
 229 159 l 1
 227 151 226 144 226 136 c 0
 226 105 253 87 301 87 c 0
 351 87 380 101 443 155 c 1
 482 338 l 1
 447 338 l 2
 406 338 390 349 390 377 c 0
 390 393 399 411 413 423 c 0
 428 434 437 437 468 437 c 2
 603 437 l 1
425 607 m 1
 291 510 l 2
 278 501 269 497 260 497 c 0
 244 497 232 509 232 525 c 0
 232 542 237 548 264 567 c 2
 444 696 l 1
 568 567 l 2
 584 551 585 550 585 540 c 0
 585 518 564 497 542 497 c 0
 533 497 525 501 517 510 c 2
 425 607 l 1
EndSplineSet
EndChar
StartChar: udieresis
Encoding: 187 252 198
Width: 600
Flags: W
HStem: -13 100<269 301> 0 21G<410 504> 338 99<148 166 444 482> 534 120<304 330 512 538>
VStem: 123 103<109 136> 256 123<582 606> 464 123<582 606>
Fore
603 437 m 1
 531 100 l 1
 566 100 583 87 583 61 c 0
 583 44 574 26 559 15 c 1
 546 3 533 0 504 0 c 2
 410 0 l 1
 420 48 l 1
 360 1 326 -13 270 -13 c 0
 182 -13 123 36 123 110 c 0
 123 127 124 140 128 156 c 1
 166 338 l 1
 150 338 l 2
 110 338 94 349 94 378 c 0
 94 393 103 411 117 423 c 0
 131 434 141 437 172 437 c 2
 288 437 l 1
 229 159 l 1
 227 151 226 144 226 136 c 0
 226 105 253 87 301 87 c 0
 351 87 380 101 443 155 c 1
 482 338 l 1
 447 338 l 2
 406 338 390 349 390 377 c 0
 390 393 399 411 413 423 c 0
 428 434 437 437 468 437 c 2
 603 437 l 1
330 654 m 0
 359 654 379 634 379 606 c 0
 379 569 343 534 304 534 c 0
 277 534 256 555 256 582 c 0
 256 618 293 654 330 654 c 0
538 654 m 0
 567 654 587 634 587 606 c 0
 587 569 551 534 512 534 c 0
 485 534 464 555 464 582 c 0
 464 618 501 654 538 654 c 0
EndSplineSet
EndChar
StartChar: yacute
Encoding: 188 253 199
Width: 600
Flags: W
HStem: -205 100<42 166 274 281> 337 100<255 261>
VStem: 102 224<377 398> 435 227<377 397>
Fore
243 3 m 1
 142 337 l 1
 115 341 102 353 102 377 c 0
 102 393 111 411 125 422 c 0
 140 434 149 437 180 437 c 2
 270 437 l 2
 290 437 296 436 304 433 c 0
 317 429 326 414 326 398 c 0
 326 362 297 338 255 337 c 1
 323 114 l 1
 489 337 l 1
 484 337 l 2
 452 337 435 351 435 377 c 0
 435 393 444 411 458 422 c 0
 472 434 482 437 513 437 c 2
 605 437 l 2
 625 437 632 436 640 433 c 0
 653 429 662 414 662 397 c 0
 662 365 636 341 599 337 c 1
 274 -105 l 1
 279 -105 l 2
 298 -105 306 -106 314 -109 c 0
 327 -113 336 -128 336 -144 c 0
 336 -161 327 -178 313 -190 c 128
 299 -202 287 -205 258 -205 c 2
 44 -205 l 2
 3 -205 -13 -194 -13 -165 c 0
 -13 -149 -4 -132 10 -120 c 0
 25 -108 34 -105 65 -105 c 2
 165 -105 l 1
 243 3 l 1
585 624 m 2
 427 512 l 2
 409 499 402 496 392 496 c 0
 374 496 362 508 362 526 c 0
 362 541 372 554 393 569 c 2
 551 680 l 2
 569 693 575 696 586 696 c 0
 604 696 616 684 616 667 c 0
 616 652 607 639 585 624 c 2
EndSplineSet
EndChar
StartChar: thorn
Encoding: 189 254 200
Width: 600
Flags: W
HStem: -205 100<12 52 152 210> 10 100<325 348> 604 20G<191 307>
Fore
188 66 m 1
 152 -105 l 1
 210 -105 l 2
 228 -105 236 -106 244 -109 c 0
 257 -113 266 -128 266 -144 c 0
 266 -161 257 -178 243 -190 c 128
 229 -202 218 -205 188 -205 c 2
 14 -205 l 2
 -26 -205 -42 -194 -42 -165 c 0
 -42 -149 -33 -132 -19 -120 c 128
 -5 -108 5 -105 36 -105 c 2
 52 -105 l 1
 185 524 l 1
 169 524 l 2
 128 524 113 535 113 564 c 0
 113 580 122 597 136 609 c 128
 150 621 160 624 191 624 c 2
 307 624 l 1
 257 392 l 1
 315 434 361 450 423 450 c 0
 545 450 623 379 623 269 c 0
 623 127 490 10 329 10 c 0
 272 10 231 27 188 66 c 1
398 350 m 0
 301 350 225 290 221 211 c 0
 220 186 232 157 251 139 c 0
 273 120 304 110 346 110 c 0
 387 110 423 120 453 139 c 0
 494 166 522 211 522 252 c 0
 522 312 473 350 398 350 c 0
EndSplineSet
EndChar
StartChar: ydieresis
Encoding: 190 255 201
Width: 600
Flags: W
HStem: -205 100<42 166 274 281> 337 100<255 263> 534 120<309 335 517 543>
VStem: 102 224<377 398> 261 123<582 606> 435 227<377 397> 469 123<582 606>
Fore
243 3 m 1
 142 337 l 1
 115 341 102 353 102 377 c 0
 102 393 111 411 125 422 c 0
 140 434 149 437 180 437 c 2
 270 437 l 2
 290 437 296 436 304 433 c 0
 317 429 326 414 326 398 c 0
 326 362 297 338 255 337 c 1
 323 114 l 1
 489 337 l 1
 484 337 l 2
 452 337 435 351 435 377 c 0
 435 393 444 411 458 422 c 0
 472 434 482 437 513 437 c 2
 605 437 l 2
 625 437 632 436 640 433 c 0
 653 429 662 414 662 397 c 0
 662 365 636 341 599 337 c 1
 274 -105 l 1
 279 -105 l 2
 298 -105 306 -106 314 -109 c 0
 327 -113 336 -128 336 -144 c 0
 336 -161 327 -178 313 -190 c 128
 299 -202 287 -205 258 -205 c 2
 44 -205 l 2
 3 -205 -13 -194 -13 -165 c 0
 -13 -149 -4 -132 10 -120 c 0
 25 -108 34 -105 65 -105 c 2
 165 -105 l 1
 243 3 l 1
335 654 m 0
 364 654 384 634 384 606 c 0
 384 569 348 534 309 534 c 0
 282 534 261 555 261 582 c 0
 261 618 298 654 335 654 c 0
543 654 m 0
 572 654 592 634 592 606 c 0
 592 569 556 534 517 534 c 0
 490 534 469 555 469 582 c 0
 469 618 506 654 543 654 c 0
EndSplineSet
EndChar
StartChar: uni0E01
Encoding: 191 3585 202
Width: 600
Flags: W
HStem: 0 21G<63 163 375 475> 363 82<334 363>
VStem: 433 101<285 299>
Fore
363 445 m 0
 474 445 534 375 534 297 c 0
 534 286 533 275 531 264 c 10
 475 0 l 25
 375 0 l 25
 431 264 l 18
 433 272 433 280 433 287 c 0
 433 339 391 363 347 363 c 8
 283 363 223 354 180 311 c 1
 303 311 l 1
 293 264 l 1
 228 251 211 228 206 202 c 10
 163 0 l 25
 63 0 l 25
 106 202 l 18
 111 227 141 257 170 264 c 1
 89 264 l 1
 99 311 l 1
 170 419 268 445 363 445 c 0
EndSplineSet
Comment: "Thai Gogai" 
EndChar
StartChar: uni0E02
Encoding: 192 3586 203
Width: 600
Flags: W
HStem: 0 102<153 187 287 397> 263 55<221 246> 425 20G<470 570>
VStem: 164 49<334 350>
Fore
263 398 m 0
 241 398 219 380 214 358 c 0
 213 355 213 352 213 350 c 0
 213 332 226 318 246 318 c 0
 268 318 289 336 294 358 c 0
 295 361 295 364 295 366 c 0
 295 384 282 398 263 398 c 0
167 358 m 8
 176 402 223 437 260 446 c 0
 276 450 290 452 303 452 c 0
 336 452 362 441 389 420 c 8
 419 398 430 372 430 335 c 1
 414 257 320 257 300 164 c 1
 295 140 287 102 287 102 c 25
 397 102 l 25
 470 445 l 25
 570 445 l 25
 475 0 l 17
 132 0 l 9
 154 102 l 25
 187 102 l 25
 203 179 l 18
 214 232 250 238 281 259 c 9
 310 284 349 289 357 324 c 16
 357 325 357 327 357 328 c 0
 357 342 344 358 344 358 c 1
 344 358 326 263 221 263 c 0
 186 263 164 294 164 334 c 0
 164 342 165 350 167 358 c 8
EndSplineSet
EndChar
StartChar: uni0E03
Encoding: 193 3587 204
Width: 600
Flags: W
HStem: 0 102<134 195 295 392> 204 50<149 161> 425 20G<465 565>
VStem: 82 43<275 292> 207 47<298 308>
Fore
176 334 m 0
 154 334 131 313 126 291 c 0
 126 288 125 286 125 283 c 0
 125 266 140 254 159 254 c 0
 181 254 202 269 206 291 c 0
 207 294 207 297 207 300 c 0
 207 318 195 334 176 334 c 0
82 291 m 8
 82 339 106 382 154 410 c 0
 179 425 217 446 255 446 c 0
 259 446 264 446 268 445 c 8
 298 440 325 399 325 399 c 1
 325 399 347 438 369 445 c 16
 374 446 378 447 382 447 c 0
 404 447 424 433 427 424 c 0
 433 406 436 392 436 378 c 0
 436 367 434 356 431 342 c 0
 414 259 321 223 306 152 c 2
 295 102 l 25
 392 102 l 25
 465 445 l 25
 565 445 l 25
 470 0 l 17
 113 0 l 9
 135 102 l 25
 195 102 l 25
 208 163 l 18
 224 236 278 245 324 274 c 1
 340 284 359 287 362 301 c 0
 364 308 364 322 364 335 c 0
 364 354 364 372 364 372 c 1
 325 300 l 1
 288 300 l 1
 274 372 l 1
 235 358 l 1
 235 358 254 337 254 306 c 0
 254 302 253 296 252 291 c 8
 243 245 189 204 149 204 c 0
 106 204 82 241 82 288 c 0
 82 291 l 8
EndSplineSet
EndChar
StartChar: uni0E04
Encoding: 194 3588 205
Width: 600
Flags: W
HStem: 0 21G<8 108 373 473> 138 48<271 282> 266 46<295 307> 363 82<311 335>
Fore
297 266 m 0
 275 266 257 248 253 226 c 0
 252 222 252 219 252 216 c 0
 252 199 262 186 280 186 c 0
 302 186 328 204 333 226 c 0
 333 228 333 231 333 233 c 0
 333 252 317 266 297 266 c 0
335 445 m 16
 433 445 534 405 534 308 c 0
 534 298 534 287 531 275 c 10
 473 0 l 25
 373 0 l 25
 431 275 l 18
 432 279 432 283 432 287 c 0
 432 332 375 363 318 363 c 8
 256 363 178 330 166 275 c 10
 138 144 l 17
 199 222 l 2
 216 243 250 312 307 312 c 0
 350 312 382 283 382 243 c 0
 382 238 381 232 380 226 c 8
 369 177 319 138 270 138 c 16
 251 138 236 155 231 162 c 9
 108 0 l 25
 8 0 l 25
 66 275 l 18
 90 386 223 445 335 445 c 16
EndSplineSet
EndChar
StartChar: uni0E05
Encoding: 195 3589 206
Width: 600
Flags: W
HStem: 0 21G<8 108 373 473> 111 48<266 277> 422 20G<270 270 398 399>
VStem: 434 103<300 319>
Fore
292 239 m 0
 270 239 252 221 247 199 c 0
 247 195 246 192 246 189 c 0
 246 172 256 159 275 159 c 0
 297 159 323 177 327 199 c 0
 328 201 328 204 328 206 c 0
 328 225 311 239 292 239 c 0
322 383 m 1
 398 442 l 1
 399 442 l 0
 408 442 537 440 537 319 c 0
 537 306 535 291 531 275 c 10
 473 0 l 25
 373 0 l 25
 431 275 l 18
 434 285 434 293 434 301 c 0
 434 357 383 358 380 358 c 0
 380 358 l 1
 334 316 l 1
 282 316 l 1
 252 358 l 1
 252 358 184 356 166 275 c 10
 139 144 l 17
 194 204 l 2
 219 227 245 282 302 282 c 0
 344 282 376 255 376 216 c 0
 376 210 376 205 374 199 c 8
 364 150 314 111 265 111 c 16
 246 111 230 128 226 135 c 9
 108 0 l 25
 8 0 l 25
 66 275 l 18
 102 440 262 442 270 442 c 0
 270 442 l 1
 322 383 l 1
EndSplineSet
EndChar
StartChar: uni0E06
Encoding: 196 3590 207
Width: 600
Flags: W
HStem: -8 62<160 179> 0 21G<324 474> 204 50<150 162> 425 20G<469 569>
VStem: 81 45<279 292> 86 50<64 86> 207 48<291 309>
Fore
177 334 m 0
 155 334 132 314 127 292 c 0
 127 289 126 287 126 284 c 0
 126 266 141 254 160 254 c 0
 182 254 203 270 207 292 c 0
 208 295 208 298 208 301 c 0
 208 319 196 334 177 334 c 0
186 134 m 0
 164 134 142 116 137 94 c 0
 137 91 136 88 136 86 c 0
 136 68 150 54 169 54 c 0
 191 54 213 72 217 94 c 0
 218 97 218 100 218 102 c 0
 218 120 205 134 186 134 c 0
363 301 m 16
 368 311 369 323 369 334 c 0
 369 354 364 372 364 372 c 1
 326 300 l 1
 289 300 l 1
 274 372 l 1
 235 358 l 1
 235 358 255 338 255 307 c 0
 255 302 255 297 253 292 c 8
 244 246 190 204 150 204 c 0
 107 204 81 241 81 288 c 0
 81 289 81 291 81 292 c 8
 81 339 107 382 155 410 c 0
 180 425 218 446 256 446 c 0
 260 446 265 446 269 445 c 8
 299 440 326 399 326 399 c 1
 326 399 347 438 370 445 c 16
 374 446 379 447 383 447 c 0
 405 447 424 433 428 424 c 0
 434 406 437 392 437 378 c 0
 437 367 435 356 432 342 c 0
 415 261 314 154 314 154 c 1
 395 98 l 9
 469 445 l 25
 569 445 l 25
 474 0 l 17
 324 0 l 1
 254 59 l 1
 254 59 247 20 227 8 c 16
 208 -3 189 -8 170 -8 c 0
 145 -8 122 2 104 20 c 0
 90 33 86 47 86 64 c 0
 86 79 90 95 93 113 c 0
 99 141 130 176 167 192 c 16
 177 196 188 198 199 198 c 0
 229 198 259 186 259 186 c 9
 299 231 341 248 363 301 c 16
EndSplineSet
EndChar
StartChar: uni0E07
Encoding: 197 3591 208
Width: 600
Flags: W
HStem: 0 21G<308 468>
VStem: 337 59<322 335>
Fore
447 382 m 0
 425 382 402 363 397 341 c 0
 397 338 396 336 396 333 c 0
 396 315 411 302 430 302 c 0
 452 302 473 319 477 341 c 0
 478 344 478 347 478 350 c 0
 478 368 466 382 447 382 c 0
460 445 m 16
 504 445 542 408 542 361 c 0
 542 354 542 348 540 341 c 10
 468 0 l 25
 308 0 l 25
 121 270 l 25
 217 347 l 25
 388 104 l 25
 420 256 l 17
 419 256 l 0
 416 256 409 252 400 252 c 0
 394 252 387 254 380 259 c 0
 362 271 337 288 337 323 c 0
 337 329 338 335 339 341 c 8
 351 397 404 445 460 445 c 16
EndSplineSet
EndChar
StartChar: uni0E08
Encoding: 198 3592 209
Width: 600
Flags: W
HStem: 0 21G<373 478> 120 52<293 309> 363 82<333 367>
VStem: 224 52<186 204> 357 50<212 225>
Fore
326 252 m 0
 304 252 281 234 277 212 c 0
 276 209 276 207 276 204 c 0
 276 186 290 172 309 172 c 0
 331 172 352 190 357 212 c 0
 357 215 358 218 358 221 c 0
 358 239 345 252 326 252 c 0
367 445 m 0
 483 445 544 380 544 320 c 0
 544 314 543 308 542 302 c 10
 478 0 l 25
 373 0 l 25
 335 141 l 17
 324 126 309 120 293 120 c 0
 279 120 264 125 253 132 c 0
 232 144 224 163 224 186 c 0
 224 194 225 203 227 212 c 0
 237 262 301 300 336 300 c 8
 362 300 378 294 393 276 c 24
 406 261 402 245 407 225 c 25
 407 161 l 25
 441 300 l 18
 442 303 442 306 442 308 c 0
 442 343 393 363 350 363 c 8
 296 363 266 348 210 311 c 9
 167 370 l 17
 242 432 287 445 367 445 c 0
EndSplineSet
EndChar
StartChar: uni0E09
Encoding: 199 3593 210
Width: 600
Flags: W
HStem: 0 58<403 437> 263 31<209 219>
VStem: 119 41<196 214> 241 48<222 233> 375 102<306 325> 472 57<93 103>
Fore
211 263 m 0
 189 263 166 244 161 222 c 0
 160 219 160 217 160 214 c 0
 160 196 174 183 194 183 c 0
 216 183 236 200 241 222 c 0
 242 225 242 228 242 231 c 0
 242 249 230 263 211 263 c 0
426 119 m 0
 411 117 401 105 399 96 c 0
 398 91 398 87 398 83 c 0
 398 64 410 58 437 58 c 0
 453 58 468 74 472 93 c 0
 473 94 473 96 473 97 c 0
 473 111 458 120 438 120 c 0
 435 120 430 120 426 119 c 0
314 445 m 16
 413 445 477 407 477 325 c 0
 477 313 475 299 472 285 c 10
 446 163 l 17
 454 165 465 167 475 167 c 128
 485 167 495 165 502 159 c 0
 519 143 529 123 529 100 c 0
 529 86 525 71 517 55 c 0
 496 13 449 0 404 0 c 24
 367 0 339 56 339 56 c 1
 236 0 l 9
 137 0 l 25
 169 150 l 17
 169 150 167 148 162 148 c 128
 157 148 150 150 140 157 c 0
 124 169 119 181 119 197 c 0
 119 205 120 213 122 222 c 0
 130 262 175 294 217 294 c 16
 249 294 290 264 290 231 c 0
 290 228 290 225 289 222 c 2
 289 222 277 168 267 117 c 1
 347 166 l 9
 372 285 l 18
 374 293 375 301 375 307 c 0
 375 350 339 357 301 363 c 0
 295 364 288 364 282 364 c 0
 223 364 169 323 124 288 c 9
 84 352 l 17
 149 413 224 445 314 445 c 16
EndSplineSet
EndChar
StartChar: uni0E0A
Encoding: 200 3594 211
Width: 600
Flags: W
HStem: 0 102<148 182 282 392> 266 52<229 244>
VStem: 160 48<339 352>
Fore
258 398 m 0
 236 398 214 380 209 358 c 0
 208 355 208 352 208 350 c 0
 208 332 221 318 241 318 c 0
 263 318 284 336 289 358 c 0
 290 361 290 364 290 366 c 0
 290 384 277 398 258 398 c 0
162 358 m 8
 172 407 231 439 268 448 c 0
 281 451 292 452 303 452 c 0
 334 452 359 440 384 420 c 8
 412 397 425 372 425 335 c 1
 409 257 315 257 295 164 c 1
 290 140 282 102 282 102 c 25
 392 102 l 17
 426 263 l 1
 426 337 l 1
 448 391 465 445 476 499 c 9
 576 499 l 17
 562 434 547 376 528 337 c 1
 528 263 l 1
 472 0 l 1
 127 0 l 9
 149 102 l 25
 182 102 l 25
 198 179 l 18
 209 232 245 238 276 259 c 9
 305 284 340 289 352 324 c 16
 352 326 353 328 353 330 c 0
 353 343 339 358 339 358 c 1
 339 358 316 266 230 266 c 0
 193 266 160 299 160 340 c 0
 160 346 161 352 162 358 c 8
EndSplineSet
EndChar
StartChar: uni0E0B
Encoding: 201 3595 212
Width: 600
Flags: W
HStem: 0 102<128 189 289 386> 204 50<144 154>
VStem: 77 43<280 294> 201 48<292 310>
Fore
171 334 m 0
 149 334 126 315 121 293 c 0
 120 290 120 288 120 285 c 0
 120 267 134 254 154 254 c 0
 176 254 196 271 201 293 c 0
 202 296 202 299 202 302 c 0
 202 320 190 334 171 334 c 0
77 293 m 8
 77 339 100 382 148 410 c 0
 173 425 211 446 249 446 c 0
 253 446 258 446 262 445 c 8
 292 440 320 399 320 399 c 1
 320 399 341 438 363 445 c 16
 368 446 372 447 377 447 c 0
 398 447 418 433 421 424 c 0
 427 406 430 392 430 378 c 0
 430 367 428 356 425 342 c 0
 408 259 317 233 302 162 c 2
 289 102 l 25
 386 102 l 17
 425 282 l 1
 425 342 l 1
 446 395 460 448 471 501 c 9
 571 501 l 17
 560 447 547 394 527 342 c 1
 527 282 l 1
 465 0 l 1
 108 0 l 9
 129 102 l 25
 189 102 l 25
 202 162 l 18
 218 235 272 245 318 274 c 1
 334 284 354 287 357 301 c 0
 358 308 359 322 359 335 c 0
 359 354 358 372 358 372 c 1
 320 300 l 1
 283 300 l 1
 268 372 l 1
 229 358 l 1
 229 358 249 339 249 308 c 0
 249 303 248 298 247 293 c 8
 237 247 183 204 143 204 c 0
 100 204 77 242 77 289 c 0
 77 290 77 292 77 293 c 8
EndSplineSet
EndChar
StartChar: uni0E0C
Encoding: 202 3596 213
Width: 600
Flags: W
HStem: 0 50<92 100> 363 84<217 242> 425 20G<466 566>
VStem: 14 52<71 85> 148 40<98 128> 191 38<57 77> 294 102<324 341>
Fore
115 130 m 0
 93 130 72 112 67 90 c 0
 66 87 66 84 66 82 c 0
 66 64 79 50 98 50 c 0
 120 50 142 68 147 90 c 0
 148 93 148 96 148 98 c 0
 148 116 135 130 115 130 c 0
263 112 m 0
 246 112 232 96 230 84 c 0
 229 81 229 79 229 77 c 0
 229 59 243 46 250 46 c 0
 264 46 278 56 282 78 c 0
 283 79 283 81 283 83 c 0
 283 93 280 112 263 112 c 0
239 447 m 0
 323 447 396 415 396 341 c 0
 396 332 394 323 392 313 c 2
 359 156 l 1
 396 112 l 1
 466 445 l 1
 566 445 l 1
 472 0 l 1
 365 0 l 1
 325 50 l 1
 325 50 313 15 298 6 c 0
 287 -0 275 -3 264 -3 c 0
 247 -3 232 2 219 8 c 0
 198 18 191 36 191 58 c 0
 191 69 193 81 196 94 c 0
 201 119 207 141 231 155 c 0
 242 162 250 163 254 163 c 128
 258 163 260 162 260 162 c 1
 292 313 l 2
 293 317 294 320 294 324 c 0
 294 359 249 363 221 363 c 8
 182 363 155 356 122 317 c 1
 238 317 l 1
 229 276 l 1
 177 264 150 251 146 230 c 2
 131 162 l 1
 131 162 140 166 151 166 c 0
 155 166 160 165 165 163 c 0
 183 155 188 143 188 128 c 0
 188 118 185 106 183 94 c 0
 171 40 131 0 94 0 c 0
 50 0 14 27 14 72 c 0
 14 79 15 86 17 93 c 10
 46 230 l 18
 51 253 80 271 106 276 c 1
 25 276 l 1
 34 317 l 1
 98 421 159 447 239 447 c 0
EndSplineSet
EndChar
StartChar: uni0E0D
Encoding: 203 3597 214
Width: 600
Flags: W
HStem: -198 58<263 308> 0 43<139 158> 123 194<165 178> 425 20G<504 604>
VStem: 63 61<64 77> 193 40<-121 -106> 205 45<91 106> 325 103<319 332>
Fore
173 123 m 0
 151 123 129 105 124 83 c 0
 124 80 124 77 124 75 c 0
 124 57 137 43 156 43 c 0
 178 43 200 61 204 83 c 0
 205 86 205 89 205 91 c 0
 205 109 192 123 173 123 c 0
279 -67 m 0
 259 -67 238 -86 233 -106 c 0
 233 -108 233 -111 233 -113 c 0
 233 -129 245 -140 263 -140 c 0
 283 -140 303 -126 307 -106 c 0
 308 -103 308 -101 308 -98 c 0
 308 -81 296 -67 279 -67 c 0
289 -16 m 16
 312 -16 331 -25 344 -37 c 0
 353 -46 356 -55 356 -65 c 0
 356 -78 351 -91 348 -106 c 1
 401 -106 448 -51 475 -30 c 9
 523 -86 l 17
 472 -138 443 -161 382 -183 c 16
 354 -194 330 -198 308 -198 c 0
 287 -198 268 -194 247 -186 c 0
 218 -175 193 -153 193 -121 c 0
 193 -116 193 -111 194 -106 c 8
 204 -59 242 -16 289 -16 c 16
268 445 m 16
 349 445 428 399 428 332 c 0
 428 326 427 320 426 314 c 2
 380 102 l 1
 431 102 l 1
 504 445 l 1
 604 445 l 1
 510 0 l 1
 258 0 l 17
 325 314 l 2
 325 316 325 318 325 319 c 0
 325 345 286 363 251 363 c 136
 216 363 196 356 165 317 c 1
 288 317 l 1
 279 276 l 1
 227 264 203 266 196 230 c 2
 178 147 l 1
 178 147 186 153 198 153 c 0
 204 153 210 151 217 148 c 0
 236 139 250 132 250 106 c 0
 250 100 249 92 248 84 c 0
 233 17 183 0 140 0 c 0
 98 0 63 22 63 65 c 0
 63 71 63 77 65 84 c 9
 96 230 l 18
 101 253 129 271 156 276 c 1
 75 276 l 1
 84 317 l 1
 146 421 189 445 268 445 c 16
EndSplineSet
EndChar
StartChar: uni0E0E
Encoding: 204 3598 215
Width: 600
Flags: W
HStem: -20 41<118 136> 101 43<134 144> 363 82<368 393>
VStem: 55 39<44 61> 111 58<-120 -103>
Fore
144 101 m 0
 122 101 100 83 95 61 c 0
 94 58 94 55 94 53 c 0
 94 35 107 21 127 21 c 0
 149 21 170 39 175 61 c 0
 176 64 176 67 176 69 c 0
 176 87 163 101 144 101 c 0
259 -90 m 17
 255 -80 234 -62 221 -58 c 0
 218 -57 215 -57 212 -57 c 0
 200 -57 188 -65 179 -76 c 0
 172 -85 169 -95 169 -103 c 0
 169 -110 171 -116 175 -121 c 0
 181 -127 188 -129 196 -129 c 0
 205 -129 215 -126 225 -122 c 8
 242 -115 245 -102 259 -90 c 17
391 445 m 0
 478 445 558 412 558 334 c 0
 558 325 557 316 555 306 c 10
 451 -182 l 25
 351 -182 l 17
 288 -119 l 1
 288 -119 252 -155 242 -160 c 0
 231 -165 201 -177 173 -177 c 0
 160 -177 148 -174 138 -168 c 0
 121 -156 111 -140 111 -120 c 0
 111 -111 113 -101 118 -91 c 8
 136 -45 175 -24 224 -12 c 0
 229 -11 233 -11 237 -11 c 0
 257 -11 277 -21 288 -28 c 1
 345 34 l 1
 378 0 l 1
 327 -50 l 1
 370 -94 l 1
 455 306 l 2
 456 311 457 315 457 319 c 0
 457 358 410 363 373 363 c 8
 318 363 271 352 232 311 c 1
 334 311 l 1
 324 264 l 1
 285 251 271 253 262 211 c 10
 229 57 l 18
 222 24 175 -20 124 -20 c 0
 84 -20 55 8 55 46 c 0
 55 52 55 57 56 63 c 0
 64 99 82 126 117 140 c 16
 125 143 132 144 136 144 c 0
 145 144 149 141 149 141 c 1
 164 211 l 2
 169 236 198 257 222 264 c 1
 120 264 l 1
 130 311 l 1
 202 419 297 445 391 445 c 0
EndSplineSet
EndChar
StartChar: uni0E0F
Encoding: 205 3599 216
Width: 600
Flags: W
HStem: -180 60<109 128> 0 50<134 148> 363 82<369 403>
VStem: 68 49<73 90>
Fore
165 130 m 0
 143 130 122 112 117 90 c 0
 116 87 117 84 117 82 c 0
 117 64 129 50 148 50 c 0
 170 50 192 68 197 90 c 0
 198 93 198 96 198 98 c 0
 198 116 185 130 165 130 c 0
200 -87 m 25
 185 -76 181 -60 161 -60 c 24
 146 -60 134 -63 121 -74 c 16
 112 -82 101 -91 101 -100 c 0
 101 -101 101 -103 102 -104 c 0
 106 -116 116 -120 128 -120 c 0
 139 -120 151 -117 163 -114 c 8
 179 -109 185 -97 200 -87 c 25
397 445 m 0
 485 445 568 414 568 338 c 0
 568 330 567 322 565 313 c 10
 461 -180 l 25
 359 -180 l 17
 310 -126 l 1
 270 -175 l 1
 218 -129 l 1
 218 -129 190 -151 189 -156 c 0
 172 -166 140 -180 110 -180 c 0
 97 -180 85 -177 74 -171 c 0
 58 -161 50 -144 50 -125 c 0
 50 -114 52 -103 56 -92 c 8
 68 -55 110 -22 130 -16 c 0
 165 -5 187 0 202 0 c 0
 221 0 229 -8 241 -12 c 1
 297 60 l 1
 335 24 l 1
 276 -44 l 1
 293 -65 l 1
 331 -18 l 1
 379 -84 l 1
 463 313 l 2
 464 317 465 320 465 323 c 0
 465 359 417 363 380 363 c 8
 326 363 278 355 240 317 c 1
 342 317 l 1
 334 276 l 1
 295 264 280 266 273 229 c 10
 244 93 l 18
 235 53 185 0 135 0 c 16
 93 0 68 33 68 73 c 0
 68 80 68 87 70 94 c 0
 77 128 100 161 137 174 c 16
 138 174 139 175 141 175 c 0
 150 175 162 168 162 168 c 1
 175 229 l 2
 179 252 207 270 232 276 c 1
 132 276 l 1
 140 317 l 1
 210 421 304 445 397 445 c 0
EndSplineSet
EndChar
StartChar: uni0E10
Encoding: 206 3600 217
Width: 600
Flags: W
HStem: -198 54<93 112> -198 107<427 439> -71 54<110 122> -36 27<436 452> 0 21G<394 494> 79 54<301 312> 376 69<427 448>
VStem: 233 44<145 165> 375 34<-76 -66> 449 99<239 269> 466 35<-57 -53>
Fore
444 -36 m 0
 428 -36 414 -48 410 -63 c 0
 410 -65 409 -67 409 -69 c 0
 409 -82 419 -91 432 -91 c 0
 447 -91 462 -79 465 -63 c 0
 466 -61 466 -59 466 -57 c 0
 466 -45 457 -36 444 -36 c 0
327 213 m 0
 305 213 283 195 279 173 c 0
 278 170 277 167 277 165 c 0
 277 147 291 133 310 133 c 0
 332 133 354 151 359 173 c 0
 359 176 359 179 359 181 c 0
 359 199 346 213 327 213 c 0
543 233 m 10
 494 0 l 25
 394 0 l 25
 346 102 l 17
 335 86 318 79 301 79 c 0
 288 79 275 83 265 89 c 0
 242 101 233 121 233 145 c 0
 233 154 234 163 237 173 c 0
 247 223 302 257 337 257 c 8
 365 257 386 246 396 228 c 8
 406 211 410 200 418 182 c 25
 429 144 l 25
 448 231 l 18
 449 234 449 237 449 239 c 0
 449 274 399 291 356 291 c 0
 320 291 283 290 236 290 c 9
 251 358 l 17
 300 405 333 445 437 445 c 0
 524 445 606 405 606 405 c 1
 574 322 l 1
 574 322 496 376 432 376 c 24
 408 376 370 359 370 359 c 1
 370 359 377 359 387 359 c 0
 410 359 451 357 475 345 c 0
 511 327 548 321 548 269 c 0
 548 259 546 247 543 233 c 10
449 -9 m 0
 477 -9 502 -25 502 -49 c 0
 502 -52 502 -54 501 -57 c 1
 471 -198 l 1
 392 -198 l 1
 316 -92 l 1
 252 -185 l 1
 204 -119 l 1
 204 -119 173 -164 165 -174 c 0
 151 -187 121 -198 93 -198 c 0
 79 -198 66 -196 55 -189 c 0
 31 -174 18 -150 18 -123 c 0
 18 -108 22 -92 30 -75 c 8
 48 -39 92 -17 118 -17 c 0
 164 -17 193 -40 193 -40 c 1
 244 21 l 1
 284 -4 l 1
 237 -55 l 1
 271 -99 l 1
 329 -30 l 1
 404 -140 l 1
 408 -123 l 1
 408 -123 375 -108 375 -73 c 0
 375 -70 376 -65 377 -61 c 1
 382 -38 398 -9 449 -9 c 0
168 -106 m 1
 168 -106 142 -71 114 -71 c 24
 101 -71 91 -79 82 -90 c 16
 76 -97 72 -104 72 -110 c 0
 72 -112 72 -114 73 -116 c 0
 79 -135 93 -144 112 -144 c 0
 115 -144 117 -144 120 -144 c 8
 142 -141 168 -106 168 -106 c 1
EndSplineSet
EndChar
StartChar: uni0E11
Encoding: 207 3601 218
Width: 600
Flags: W
HStem: 0 21G<120 215 426 527> 204 50<96 108>
VStem: 28 44<275 292> 154 47<298 308> 496 103<332 349>
Fore
123 334 m 0
 101 334 78 313 73 291 c 0
 73 288 72 286 72 283 c 0
 72 266 87 254 106 254 c 0
 128 254 149 269 153 291 c 0
 154 294 154 297 154 300 c 0
 154 318 142 334 123 334 c 0
502 445 m 0
 559 445 599 405 599 349 c 0
 599 341 598 331 596 322 c 2
 527 0 l 25
 426 0 l 17
 495 322 l 2
 496 326 496 329 496 332 c 0
 496 342 492 350 484 350 c 0
 483 350 481 349 480 349 c 0
 469 346 454 318 454 318 c 1
 215 0 l 9
 120 0 l 25
 155 163 l 18
 171 236 225 245 271 274 c 1
 287 284 306 287 309 301 c 0
 311 308 311 322 311 335 c 0
 311 354 311 372 311 372 c 1
 272 300 l 1
 235 300 l 1
 221 372 l 1
 182 358 l 1
 182 358 201 337 201 306 c 0
 201 302 200 296 199 291 c 8
 189 244 136 204 96 204 c 0
 53 204 28 242 28 288 c 0
 28 291 l 8
 28 340 53 382 101 410 c 0
 126 425 164 446 202 446 c 0
 206 446 211 446 215 445 c 8
 245 440 272 399 272 399 c 1
 272 399 294 438 316 445 c 16
 321 446 325 447 329 447 c 0
 351 447 371 433 374 424 c 0
 380 406 383 392 383 378 c 0
 383 367 381 356 378 342 c 0
 361 259 262 232 247 164 c 1
 241 136 l 9
 327 246 l 25
 416 370 l 17
 454 434 467 445 502 445 c 0
EndSplineSet
EndChar
StartChar: uni0E12
Encoding: 208 3602 219
Width: 600
Flags: W
HStem: 0 45<297 313> 95 42<320 328> 423 20G<533 633> 425 20G<211 211 342 350>
VStem: 150 35<201 214> 244 41<55 65> 369 104<315 345>
Fore
235 254 m 0
 213 254 191 236 186 214 c 0
 186 211 185 208 185 206 c 0
 185 188 199 174 218 174 c 0
 240 174 262 192 266 214 c 0
 267 217 267 220 267 222 c 0
 267 240 254 254 235 254 c 0
349 83 m 1
 349 83 336 95 324 95 c 0
 322 95 321 95 320 95 c 0
 302 91 285 78 285 62 c 0
 285 61 285 61 285 61 c 0
 285 50 295 45 306 45 c 0
 308 45 311 45 314 46 c 8
 332 51 349 83 349 83 c 1
271 400 m 1
 342 445 l 1
 342 445 345 445 350 445 c 0
 377 445 473 439 473 345 c 0
 473 334 471 322 468 309 c 2
 432 139 l 1
 459 97 l 1
 533 443 l 1
 633 443 l 1
 539 0 l 1
 418 0 l 1
 389 46 l 1
 368 29 336 0 303 0 c 0
 300 0 298 -0 295 0 c 0
 265 5 244 27 244 56 c 0
 244 60 245 65 246 70 c 8
 252 99 271 118 299 133 c 16
 305 136 312 137 319 137 c 128
 326 137 332 136 332 136 c 1
 368 309 l 2
 369 311 369 313 369 315 c 0
 369 343 325 364 325 364 c 1
 278 326 l 1
 228 326 l 1
 194 364 l 1
 194 364 142 340 135 309 c 10
 92 106 l 17
 166 158 l 1
 165 158 150 180 150 203 c 0
 150 207 150 210 151 213 c 0
 163 268 202 296 246 296 c 144
 290 296 312 273 312 237 c 0
 312 229 311 221 309 212 c 0
 296 152 231 97 215 87 c 9
 87 0 l 25
 -30 0 l 25
 35 309 l 18
 64 442 199 445 211 445 c 0
 211 445 l 1
 271 400 l 1
EndSplineSet
EndChar
StartChar: uni0E13
Encoding: 209 3603 220
Width: 600
Flags: W
HStem: 0 42<95 106> 423 20G<460 562>
VStem: 24 48<62 75> 154 37<90 108>
Fore
121 122 m 0
 99 122 78 104 73 82 c 0
 72 79 72 76 72 74 c 0
 72 56 85 42 104 42 c 0
 126 42 148 60 153 82 c 0
 154 85 154 88 154 90 c 0
 154 108 141 122 121 122 c 0
497 125 m 1
 493 108 483 86 483 71 c 0
 483 62 486 56 495 54 c 0
 496 54 498 54 499 54 c 0
 520 54 534 84 539 107 c 0
 540 112 541 117 541 122 c 0
 541 128 539 134 533 137 c 0
 531 138 529 138 527 138 c 0
 517 138 509 129 497 125 c 1
230 445 m 0
 313 445 368 391 368 332 c 0
 368 326 367 319 366 313 c 2
 321 100 l 1
 397 146 l 1
 460 443 l 1
 562 443 l 1
 507 188 l 1
 507 188 525 194 541 194 c 0
 547 194 553 193 558 190 c 0
 575 179 582 158 582 135 c 0
 582 94 560 45 537 26 c 0
 512 6 484 -7 460 -7 c 0
 450 -7 440 -5 432 0 c 0
 423 6 420 18 420 32 c 0
 420 54 428 78 428 78 c 1
 297 0 l 1
 199 0 l 17
 199 0 l 0
 199 5 266 313 266 313 c 2
 267 316 267 318 267 320 c 0
 267 345 241 363 213 363 c 8
 178 363 158 356 127 317 c 1
 239 317 l 1
 230 276 l 1
 176 264 165 266 157 230 c 2
 140 148 l 1
 140 148 144 151 152 151 c 0
 157 151 163 149 171 144 c 0
 185 134 191 123 191 108 c 0
 191 101 190 93 188 83 c 0
 175 23 134 0 95 0 c 128
 56 0 24 20 24 63 c 0
 24 69 25 76 26 83 c 10
 57 230 l 18
 62 253 91 271 118 276 c 1
 37 276 l 1
 46 317 l 1
 108 421 153 445 230 445 c 0
EndSplineSet
EndChar
StartChar: uni0E14
Encoding: 210 3604 221
Width: 600
Flags: W
HStem: 0 21G<22 154 370 470> 342 103<314 345>
VStem: 204 49<205 215> 335 47<228 239> 431 103<291 316>
Fore
304 260 m 0
 282 260 258 243 254 221 c 0
 253 218 253 216 253 213 c 0
 253 195 268 180 287 180 c 0
 309 180 329 199 334 221 c 0
 334 224 335 227 335 230 c 0
 335 247 323 260 304 260 c 0
343 445 m 0
 464 445 534 393 534 316 c 0
 534 307 533 297 531 287 c 10
 470 0 l 25
 370 0 l 25
 431 287 l 18
 431 288 431 290 431 291 c 0
 431 311 404 342 321 342 c 0
 237 342 190 317 183 286 c 10
 144 100 l 17
 224 164 l 17
 224 164 204 177 204 206 c 0
 204 210 205 215 206 221 c 8
 216 269 266 307 314 307 c 16
 355 307 382 278 382 239 c 0
 382 233 381 227 380 221 c 0
 368 164 287 107 287 107 c 1
 154 0 l 9
 22 0 l 25
 83 287 l 18
 105 394 226 445 343 445 c 0
EndSplineSet
EndChar
StartChar: uni0E15
Encoding: 211 3605 222
Width: 600
Flags: W
HStem: 0 21G<8 108 373 473> 422 20G<270 270 398 399>
VStem: 189 49<180 190> 320 47<203 214> 434 103<300 319>
Fore
289 235 m 0
 267 235 243 218 239 196 c 0
 238 193 238 191 238 188 c 0
 238 170 253 155 272 155 c 0
 294 155 314 174 319 196 c 0
 319 199 320 202 320 205 c 0
 320 222 308 235 289 235 c 0
209 139 m 17
 209 139 189 152 189 181 c 0
 189 185 190 190 191 196 c 8
 201 244 251 282 299 282 c 16
 340 282 367 253 367 214 c 0
 367 208 366 202 365 196 c 0
 353 139 272 82 272 82 c 1
 108 0 l 25
 8 0 l 25
 66 275 l 18
 102 440 262 442 270 442 c 0
 270 442 l 1
 322 383 l 1
 398 442 l 1
 399 442 l 0
 408 442 537 440 537 319 c 0
 537 306 535 291 531 275 c 10
 473 0 l 25
 373 0 l 25
 431 275 l 18
 434 285 434 293 434 301 c 0
 434 357 383 358 380 358 c 0
 380 358 l 1
 334 316 l 1
 282 316 l 1
 252 358 l 1
 252 358 184 356 166 275 c 10
 129 100 l 17
 209 139 l 17
EndSplineSet
EndChar
StartChar: uni0E16
Encoding: 212 3606 223
Width: 600
Flags: W
HStem: 0 44<178 192> 366 79<354 382>
VStem: 99 50<68 81> 231 50<84 101> 450 100<315 323>
Fore
199 124 m 0
 177 124 155 106 151 84 c 0
 150 81 149 78 149 76 c 0
 149 58 163 44 182 44 c 0
 204 44 226 62 231 84 c 0
 231 87 231 90 231 92 c 0
 231 110 218 124 199 124 c 0
382 445 m 0
 477 445 551 390 551 330 c 0
 551 325 551 320 550 315 c 2
 550 315 484 0 482 0 c 1
 383 0 l 17
 383 0 l 0
 383 5 450 315 450 315 c 2
 450 317 450 318 450 320 c 0
 450 346 405 366 366 366 c 8
 303 366 242 356 201 317 c 1
 339 317 l 1
 330 275 l 1
 267 263 237 256 229 219 c 2
 216 156 l 1
 216 156 220 158 228 158 c 0
 234 158 242 157 251 154 c 0
 267 149 282 125 282 99 c 0
 282 94 282 89 281 84 c 0
 273 49 228 0 181 0 c 0
 135 0 99 28 99 70 c 0
 99 75 100 80 101 86 c 10
 129 219 l 18
 134 242 166 269 192 275 c 1
 111 275 l 1
 120 317 l 1
 189 422 291 445 382 445 c 0
EndSplineSet
EndChar
StartChar: uni0E17
Encoding: 213 3607 224
Width: 600
Flags: W
HStem: 0 21G<117 212 389 489>
VStem: 97 52<338 353> 230 67<370 389> 462 102<342 364>
Fore
198 402 m 0
 176 402 154 384 149 362 c 0
 149 359 149 356 149 354 c 0
 149 336 162 322 181 322 c 0
 203 322 225 340 229 362 c 0
 230 365 230 368 230 370 c 0
 230 388 217 402 198 402 c 0
209 448 m 16
 262 448 297 431 297 389 c 0
 297 382 296 375 295 368 c 1
 264 225 l 25
 345 370 l 17
 383 434 430 445 465 445 c 0
 522 445 564 417 564 364 c 0
 564 356 563 347 561 338 c 2
 489 0 l 25
 389 0 l 17
 461 338 l 2
 462 339 462 341 462 342 c 0
 462 353 452 366 438 366 c 0
 431 366 424 364 416 358 c 0
 409 353 397 330 397 330 c 1
 212 0 l 9
 117 0 l 25
 177 282 l 17
 177 282 170 279 161 279 c 0
 155 279 148 280 141 284 c 0
 116 299 97 307 97 339 c 0
 97 346 98 355 100 366 c 8
 110 414 161 448 209 448 c 16
EndSplineSet
EndChar
StartChar: uni0E18
Encoding: 214 3608 225
Width: 600
Flags: W
HStem: 0 100<138 199 299 390> 370 75<373 406>
VStem: 418 101<231 243>
Fore
404 445 m 0
 281 445 225 436 141 345 c 9
 130 292 l 17
 150 292 170 296 203 296 c 0
 231 296 269 293 325 282 c 0
 361 275 418 253 418 231 c 0
 418 231 418 230 417 229 c 2
 390 100 l 25
 299 100 l 17
 330 245 l 1
 230 245 l 1
 199 100 l 1
 139 100 l 1
 118 0 l 9
 469 0 l 1
 517 229 l 2
 518 234 519 238 519 243 c 0
 519 288 472 323 404 337 c 8
 347 349 252 353 252 353 c 1
 252 353 338 370 391 370 c 24
 443 370 516 339 516 339 c 1
 555 412 l 1
 555 412 481 445 404 445 c 0
EndSplineSet
EndChar
StartChar: uni0E19
Encoding: 215 3609 226
Width: 600
Flags: W
HStem: 0 70<403 426> 402 38<188 199> 425 20G<402 502>
VStem: 81 60<341 354> 222 52<361 378>
Fore
443 150 m 0
 421 150 399 132 394 110 c 0
 393 107 393 104 393 102 c 0
 393 84 406 70 426 70 c 0
 448 70 469 88 474 110 c 0
 475 113 475 116 475 118 c 0
 475 136 462 150 443 150 c 0
190 402 m 0
 168 402 146 384 142 362 c 0
 141 359 141 356 141 354 c 0
 141 336 154 322 173 322 c 0
 195 322 217 340 222 362 c 0
 222 365 223 368 223 370 c 0
 223 388 209 402 190 402 c 0
199 440 m 16
 239 440 274 422 274 378 c 0
 274 372 273 365 272 357 c 1
 218 105 l 1
 345 175 l 9
 402 445 l 1
 502 445 l 9
 454 220 l 17
 454 220 466 223 479 223 c 0
 488 223 498 222 505 216 c 0
 523 201 530 188 530 166 c 0
 530 154 528 139 524 120 c 0
 514 74 463 0 403 0 c 16
 358 0 324 51 324 76 c 0
 324 78 325 80 325 81 c 1
 194 0 l 9
 96 0 l 25
 155 279 l 17
 151 280 148 280 144 280 c 0
 138 280 l 0
 131 280 125 281 115 286 c 0
 99 295 81 316 81 342 c 0
 81 349 82 357 85 364 c 8
 104 412 151 440 199 440 c 16
EndSplineSet
EndChar
StartChar: uni0E1A
Encoding: 216 3610 227
Width: 600
Flags: W
HStem: 0 21G<178 473> 424 20G<467 567>
VStem: 78 50<338 351> 209 63<357 369>
Fore
177 397 m 0
 155 397 133 379 129 357 c 0
 128 354 128 351 128 349 c 0
 128 331 141 317 160 317 c 0
 182 317 204 335 209 357 c 0
 209 360 210 363 210 365 c 0
 210 383 196 397 177 397 c 0
189 443 m 0
 237 443 272 401 272 363 c 0
 272 359 271 355 270 351 c 2
 270 351 230 163 217 100 c 1
 394 100 l 9
 467 444 l 1
 567 444 l 9
 473 0 l 17
 473 0 296 0 178 0 c 0
 119 0 75 1 75 0 c 1
 96 100 l 1
 117 100 l 9
 156 281 l 17
 156 281 144 273 132 273 c 0
 129 273 126 274 123 275 c 0
 100 285 78 309 78 339 c 0
 78 346 79 353 82 361 c 8
 97 408 147 443 189 443 c 0
EndSplineSet
EndChar
StartChar: uni0E1B
Encoding: 217 3611 228
Width: 600
Flags: W
HStem: 0 21G<160 455> 595 20G<485 585>
VStem: 60 50<338 351> 191 63<356 368>
Fore
159 397 m 0
 137 397 115 379 111 357 c 0
 110 354 110 351 110 349 c 0
 110 331 123 317 142 317 c 0
 164 317 186 335 191 357 c 0
 191 360 191 363 191 365 c 0
 191 383 178 397 159 397 c 0
171 443 m 0
 219 443 254 401 254 363 c 0
 254 359 253 355 252 351 c 2
 252 351 212 163 199 100 c 1
 376 100 l 9
 485 615 l 1
 585 615 l 9
 455 0 l 17
 455 0 278 0 160 0 c 0
 101 0 57 1 57 0 c 1
 78 100 l 1
 99 100 l 9
 137 281 l 17
 137 281 126 273 114 273 c 0
 111 273 108 274 105 275 c 0
 82 285 60 309 60 339 c 0
 60 346 61 353 63 361 c 8
 78 408 129 443 171 443 c 0
EndSplineSet
EndChar
StartChar: uni0E1C
Encoding: 218 3612 229
Width: 600
Flags: W
HStem: 0 21G<70 222 315 479> 271 45<226 234> 425 20G<473 573>
VStem: 281 39<364 379>
Fore
249 396 m 0
 227 396 205 378 200 356 c 0
 200 353 199 350 199 348 c 0
 199 330 213 316 232 316 c 0
 254 316 276 334 280 356 c 0
 281 359 281 362 281 364 c 0
 281 382 268 396 249 396 c 0
259 444 m 16
 290 444 320 424 320 379 c 0
 320 372 319 363 317 354 c 0
 309 316 291 297 260 277 c 16
 251 272 236 271 230 271 c 0
 228 271 227 271 227 271 c 9
 193 111 l 17
 273 226 l 9
 366 226 l 25
 401 107 l 1
 473 445 l 25
 573 445 l 25
 479 0 l 17
 315 0 l 1
 293 107 l 1
 222 0 l 1
 70 0 l 9
 145 354 l 17
 157 411 208 444 259 444 c 16
EndSplineSet
EndChar
StartChar: uni0E1D
Encoding: 219 3613 230
Width: 600
Flags: W
HStem: 0 21G<52 204 297 461> 271 45<209 217> 590 20G<491 591>
VStem: 264 38<364 379>
Fore
231 396 m 0
 209 396 188 378 183 356 c 0
 182 353 182 350 182 348 c 0
 182 330 195 316 214 316 c 0
 236 316 258 334 263 356 c 0
 263 359 264 362 264 364 c 0
 264 382 251 396 231 396 c 0
242 444 m 16
 272 444 302 424 302 379 c 0
 302 372 301 363 299 354 c 0
 291 316 273 297 242 277 c 16
 233 272 219 271 213 271 c 0
 211 271 210 271 210 271 c 9
 176 111 l 17
 255 226 l 9
 348 226 l 25
 384 107 l 1
 491 610 l 25
 591 610 l 25
 461 0 l 17
 297 0 l 1
 276 107 l 1
 204 0 l 1
 52 0 l 9
 127 354 l 17
 140 411 191 444 242 444 c 16
EndSplineSet
EndChar
StartChar: uni0E1E
Encoding: 220 3614 231
Width: 600
Flags: W
HStem: 0 21G<49 169 332 489> 425 20G<310 412 483 583>
VStem: 41 44<328 348> 332 80<173 312>
Fore
135 396 m 0
 113 396 91 378 86 356 c 0
 86 353 85 350 85 348 c 0
 85 330 99 316 118 316 c 0
 140 316 162 334 166 356 c 0
 167 359 167 362 167 364 c 0
 167 382 154 396 135 396 c 0
147 445 m 0
 192 445 227 418 227 376 c 0
 227 370 226 364 225 358 c 10
 185 172 l 17
 310 445 l 9
 412 445 l 25
 412 173 l 1
 483 445 l 25
 583 445 l 25
 489 0 l 17
 332 0 l 1
 332 312 l 1
 169 0 l 1
 49 0 l 9
 106 270 l 17
 106 270 104 270 101 270 c 0
 91 270 71 271 62 280 c 0
 47 295 41 309 41 328 c 0
 41 338 43 350 46 363 c 0
 58 418 104 445 147 445 c 0
EndSplineSet
EndChar
StartChar: uni0E1F
Encoding: 221 3615 232
Width: 600
Flags: W
HStem: 0 21G<31 151 314 471> 425 20G<293 395> 590 20G<501 601>
VStem: 24 44<328 348> 314 81<173 312>
Fore
117 396 m 0
 95 396 74 378 69 356 c 0
 68 353 68 350 68 348 c 0
 68 330 81 316 100 316 c 0
 122 316 144 334 149 356 c 0
 149 359 150 362 150 364 c 0
 150 382 137 396 117 396 c 0
130 445 m 0
 174 445 209 418 209 375 c 0
 209 370 209 364 207 358 c 10
 168 172 l 17
 293 445 l 9
 395 445 l 25
 395 173 l 1
 501 610 l 25
 601 610 l 25
 471 0 l 17
 314 0 l 1
 314 312 l 1
 151 0 l 1
 31 0 l 9
 89 270 l 17
 89 270 87 270 83 270 c 0
 74 270 53 271 45 280 c 0
 30 295 24 309 24 328 c 0
 24 338 26 350 28 363 c 0
 40 418 87 445 130 445 c 0
EndSplineSet
EndChar
StartChar: uni0E20
Encoding: 222 3616 233
Width: 600
Flags: W
HStem: 0 34<94 106> 363 82<328 359>
VStem: 25 45<57 73>
Fore
120 114 m 0
 98 114 75 96 70 74 c 0
 70 71 70 69 70 66 c 0
 70 48 84 34 103 34 c 0
 125 34 146 52 150 74 c 0
 151 77 151 80 151 83 c 0
 151 101 139 114 120 114 c 0
357 445 m 0
 442 445 513 413 513 336 c 0
 513 327 512 317 510 306 c 10
 445 0 l 25
 345 0 l 25
 410 306 l 18
 411 311 411 316 411 320 c 0
 411 358 369 363 336 363 c 8
 283 363 238 352 201 311 c 1
 300 311 l 1
 290 264 l 1
 253 251 235 243 227 202 c 10
 200 76 l 17
 195 51 151 0 96 0 c 0
 57 0 25 23 25 59 c 0
 25 63 25 68 26 73 c 0
 34 108 63 133 83 142 c 0
 88 144 95 145 101 145 c 0
 108 145 114 144 114 144 c 1
 127 202 l 2
 132 227 163 257 191 264 c 1
 90 264 l 1
 100 311 l 1
 169 419 268 445 357 445 c 0
EndSplineSet
EndChar
StartChar: uni0E21
Encoding: 223 3617 234
Width: 600
Flags: W
HStem: -8 62<165 173> 0 21G<338 474> 134 61<179 195> 402 44<229 246> 425 20G<469 569>
VStem: 86 50<64 86> 145 43<338 354> 270 64<368 379>
Fore
186 134 m 0
 164 134 142 116 137 94 c 0
 137 91 136 88 136 86 c 0
 136 68 150 54 169 54 c 0
 191 54 213 72 217 94 c 0
 218 97 218 100 218 102 c 0
 218 120 205 134 186 134 c 0
238 402 m 0
 216 402 194 384 189 362 c 0
 189 359 188 356 188 354 c 0
 188 336 202 322 221 322 c 0
 243 322 265 340 269 362 c 0
 270 365 270 368 270 370 c 0
 270 388 257 402 238 402 c 0
244 446 m 16
 297 446 334 419 334 377 c 0
 334 372 333 366 332 360 c 2
 291 166 l 17
 395 98 l 9
 469 445 l 25
 569 445 l 25
 474 0 l 17
 338 0 l 1
 254 59 l 1
 254 59 247 20 227 8 c 16
 208 -3 189 -8 171 -8 c 0
 145 -8 122 2 104 20 c 0
 91 33 86 47 86 64 c 0
 86 79 90 95 94 113 c 0
 99 141 131 172 167 192 c 16
 173 195 179 195 185 195 c 0
 187 195 190 195 192 195 c 0
 197 195 201 196 204 198 c 9
 218 266 l 1
 218 266 215 266 211 266 c 0
 202 266 188 267 181 272 c 0
 159 290 145 310 145 338 c 0
 145 345 146 352 148 360 c 0
 161 420 199 446 244 446 c 16
EndSplineSet
EndChar
StartChar: uni0E22
Encoding: 224 3618 235
Width: 600
Flags: W
HStem: 0 102<200 395> 155 165<233 235> 400 45<248 261> 424 20G<468 568>
VStem: 135 100<259 267> 284 45<368 391>
Fore
252 400 m 0
 230 400 208 382 203 360 c 0
 203 357 202 354 202 352 c 0
 202 334 216 320 235 320 c 0
 257 320 279 338 283 360 c 0
 284 363 284 366 284 368 c 0
 284 386 271 400 252 400 c 0
261 445 m 16
 308 445 329 428 329 391 c 0
 329 382 328 371 325 359 c 0
 318 325 296 306 264 290 c 16
 260 288 255 287 250 287 c 0
 247 287 243 288 240 289 c 1
 235 267 l 18
 235 264 l 0
 235 247 271 222 283 222 c 1
 269 155 l 1
 212 155 l 9
 200 102 l 1
 395 102 l 1
 468 444 l 25
 568 444 l 25
 474 0 l 17
 369 0 79 0 79 0 c 1
 112 155 l 18
 124 214 171 224 198 224 c 0
 209 224 216 223 217 222 c 1
 181 227 135 234 135 261 c 0
 135 267 l 10
 154 355 l 2
 166 410 212 445 261 445 c 16
EndSplineSet
EndChar
StartChar: uni0E23
Encoding: 225 3619 236
Width: 600
Flags: W
HStem: 0 46<381 392> 376 69<341.212 376>
VStem: 304 54<73 81> 414 105<222 261>
Fore
407 126 m 0
 385 126 364 108 359 86 c 0
 358 83 358 80 358 78 c 0
 358 60 371 46 390 46 c 0
 412 46 434 64 439 86 c 0
 440 89 440 92 440 94 c 0
 440 112 427 126 407 126 c 0
373 445 m 0
 454 445 551 411 551 411 c 1
 511 337 l 1
 511 337 422 376 357 376 c 24
 317 376 254 352 254 352 c 1
 254 352 367 346 435 329 c 16
 484 316 519 314 519 261 c 0
 519 250 517 236 513 219 c 2
 486 89 l 2
 477 49 431 0 383 0 c 0
 337 0 304 37 304 75 c 0
 304 80 305 84 306 89 c 0
 317 142 342 158 372 171 c 0
 378 174 383 175 388 175 c 0
 397 175 403 171 403 171 c 9
 413 219 l 2
 413 220 414 221 414 222 c 0
 414 246 347 271 321 276 c 0
 279 284 221 286 181 286 c 0
 152 286 131 285 131 285 c 9
 143 341 l 17
 211 437 294 445 373 445 c 0
EndSplineSet
EndChar
StartChar: uni0E24
Encoding: 226 3620 237
Width: 600
Flags: W
HStem: 0 44<188 201>
VStem: 116 51<67 78> 249 51<90 101>
Fore
216 124 m 0
 194 124 173 106 168 84 c 0
 167 81 167 78 167 76 c 0
 167 58 180 44 199 44 c 0
 221 44 243 62 248 84 c 0
 248 87 249 90 249 92 c 0
 249 110 236 124 216 124 c 0
400 445 m 0
 495 445 569 390 569 330 c 0
 569 325 568 320 567 315 c 2
 567 315 466 -163 464 -163 c 1
 365 -163 l 17
 365 -163 l 0
 365 -158 467 315 467 315 c 2
 467 317 468 318 468 320 c 0
 468 346 422 366 383 366 c 8
 320 366 260 356 218 317 c 1
 356 317 l 1
 347 275 l 1
 284 263 254 256 247 219 c 2
 233 156 l 1
 233 156 238 159 246 159 c 0
 252 159 260 157 269 152 c 0
 289 142 300 124 300 101 c 0
 300 96 299 90 298 84 c 0
 290 49 236 0 189 0 c 0
 145 0 116 27 116 67 c 0
 116 73 117 79 118 86 c 9
 147 219 l 18
 151 242 183 269 209 275 c 1
 128 275 l 1
 137 317 l 1
 207 422 309 445 400 445 c 0
EndSplineSet
EndChar
StartChar: uni0E25
Encoding: 227 3621 238
Width: 600
Flags: W
HStem: 0 47<146 160> 224 74<247 257> 366 79<328 351>
VStem: 78 48<57 79> 207 45<95 111>
Fore
175 127 m 0
 153 127 131 109 126 87 c 0
 126 84 126 81 126 79 c 0
 126 61 139 47 158 47 c 0
 180 47 202 65 206 87 c 0
 207 90 207 93 207 95 c 0
 207 113 194 127 175 127 c 0
346 445 m 0
 432 445 541 430 541 348 c 0
 541 341 541 333 539 325 c 2
 470 0 l 1
 370 0 l 17
 370 0 354 196 287 218 c 0
 275 222 265 224 254 224 c 0
 246 224 238 223 227 220 c 0
 199 211 197 171 197 163 c 0
 197 162 197 162 197 162 c 1
 197 162 205 166 214 166 c 0
 220 166 226 164 233 159 c 0
 246 148 252 131 252 111 c 0
 252 103 251 95 249 86 c 0
 236 23 178 0 147 0 c 0
 91 0 78 28 78 57 c 0
 78 68 80 79 82 89 c 2
 107 209 l 2
 112 233 150 298 250 298 c 0
 391 298 404 202 404 168 c 0
 404 161 403 157 403 157 c 1
 439 325 l 2
 439 326 439 327 439 329 c 0
 439 355 376 366 330 366 c 8
 267 366 203 344 164 327 c 9
 140 394 l 17
 148 412 267 445 346 445 c 0
EndSplineSet
EndChar
StartChar: uni0E26
Encoding: 228 3622 239
Width: 600
Flags: W
HStem: 0 34<110 122> 363 82<345 375>
VStem: 42 45<57 68> 429 102<320 336>
Fore
136 114 m 0
 114 114 92 96 88 74 c 0
 87 71 87 68 87 66 c 0
 87 48 100 34 119 34 c 0
 141 34 163 52 168 74 c 0
 168 77 169 80 169 82 c 0
 169 100 155 114 136 114 c 0
375 445 m 0
 459 445 531 413 531 336 c 0
 531 327 529 317 527 306 c 10
 427 -163 l 25
 327 -163 l 25
 427 306 l 18
 428 311 429 316 429 320 c 0
 429 358 387 363 353 363 c 8
 300 363 255 352 218 311 c 1
 317 311 l 1
 307 264 l 1
 270 251 253 243 244 202 c 10
 217 76 l 18
 212 51 169 0 114 0 c 0
 75 0 42 23 42 59 c 0
 42 64 43 68 44 73 c 0
 51 108 80 135 100 142 c 0
 104 143 108 144 111 144 c 0
 121 144 131 141 131 141 c 1
 144 202 l 2
 149 227 181 257 208 264 c 1
 107 264 l 1
 117 311 l 1
 186 419 286 445 375 445 c 0
EndSplineSet
EndChar
StartChar: uni0E27
Encoding: 229 3623 240
Width: 600
Flags: W
HStem: 0 56<384 401> 136 45<404 418> 363 82<341 364>
VStem: 311 55<75 88> 464 102<277 302>
Fore
416 136 m 0
 394 136 372 118 367 96 c 0
 367 93 366 90 366 88 c 0
 366 70 379 56 399 56 c 0
 421 56 442 74 447 96 c 0
 448 99 448 102 448 104 c 0
 448 122 435 136 416 136 c 0
187 368 m 17
 187 368 271 445 359 445 c 0
 490 445 566 379 566 302 c 0
 566 294 566 286 564 278 c 10
 525 94 l 17
 525 94 l 0
 525 88 483 -0 385 0 c 0
 340 0 311 32 311 76 c 0
 311 83 312 90 314 98 c 8
 321 135 348 160 384 177 c 16
 390 180 398 181 405 181 c 0
 423 181 442 174 442 174 c 9
 464 278 l 18
 465 283 465 288 465 292 c 0
 465 343 402 363 342 363 c 8
 295 363 265 341 222 312 c 9
 187 368 l 17
EndSplineSet
EndChar
StartChar: uni0E28
Encoding: 230 3624 241
Width: 600
Flags: W
HStem: 0 21G<2 112 367 467> 138 48<268 279> 363 82<313 333>
VStem: 426 103<287 313>
Fore
294 266 m 0
 272 266 251 248 247 226 c 0
 246 223 246 220 246 217 c 0
 246 199 258 186 277 186 c 0
 299 186 322 204 327 226 c 0
 327 229 328 231 328 234 c 0
 328 252 313 266 294 266 c 0
417 434 m 1
 429 456 436 478 441 502 c 9
 541 502 l 17
 533 465 514 428 492 396 c 1
 516 375 529 349 529 313 c 0
 529 301 528 289 525 275 c 10
 467 0 l 25
 367 0 l 25
 425 275 l 18
 426 279 426 283 426 287 c 0
 426 333 371 363 315 363 c 8
 252 363 172 330 160 275 c 10
 132 144 l 17
 193 222 l 2
 210 243 234 312 304 312 c 0
 348 312 384 284 384 243 c 0
 384 238 383 233 382 227 c 8
 371 176 318 138 267 138 c 16
 248 138 234 145 230 152 c 9
 112 0 l 25
 2 0 l 25
 60 275 l 18
 84 386 219 445 332 445 c 16
 361 445 390 441 417 434 c 1
EndSplineSet
EndChar
StartChar: uni0E29
Encoding: 231 3625 242
Width: 600
Flags: W
HStem: 0 21G<178 473> 424 20G<467 567>
VStem: 78 50<338 351> 209 63<357 369> 257 39<231 241>
Fore
341 284 m 0
 321 284 301 266 297 246 c 0
 297 243 296 241 296 239 c 0
 296 223 309 213 326 213 c 0
 345 213 364 226 368 246 c 0
 369 249 369 251 369 254 c 0
 369 271 358 284 341 284 c 0
177 397 m 0
 155 397 133 379 129 357 c 0
 128 354 128 351 128 349 c 0
 128 331 141 317 160 317 c 0
 182 317 204 335 209 357 c 0
 209 360 210 363 210 365 c 0
 210 383 196 397 177 397 c 0
407 162 m 1
 397 160 387 159 378 159 c 0
 355 159 335 164 312 170 c 0
 281 178 257 199 257 231 c 0
 257 236 258 241 259 246 c 8
 269 291 308 333 352 333 c 16
 374 333 393 324 404 313 c 0
 413 304 416 295 416 285 c 0
 416 273 412 261 409 246 c 1
 414 246 420 247 426 248 c 1
 467 444 l 1
 567 444 l 1
 539 310 l 1
 577 266 l 1
 555 243 536 226 518 213 c 1
 473 0 l 1
 473 0 296 0 178 0 c 0
 119 0 75 1 75 0 c 1
 96 100 l 1
 117 100 l 9
 156 281 l 17
 156 281 144 273 132 273 c 0
 129 273 126 274 123 275 c 0
 100 285 78 309 78 339 c 0
 78 346 79 353 82 361 c 8
 97 408 147 443 189 443 c 0
 237 443 272 401 272 363 c 0
 272 359 271 355 270 351 c 2
 270 351 230 163 217 100 c 1
 394 100 l 1
 407 162 l 1
EndSplineSet
EndChar
StartChar: uni0E2A
Encoding: 232 3626 243
Width: 600
Flags: W
HStem: 0 47<140 154> 224 74<241 251> 366 83<321 345>
VStem: 72 48<57 79> 201 45<95 111> 433 102<329 347>
Fore
169 127 m 0
 147 127 125 109 120 87 c 0
 120 84 120 81 120 79 c 0
 120 61 132 47 152 47 c 0
 174 47 195 65 200 87 c 0
 201 90 201 93 201 95 c 0
 201 113 188 127 169 127 c 0
341 449 m 0
 367 449 396 447 422 443 c 1
 433 460 442 479 442 497 c 0
 442 499 441 500 441 502 c 9
 541 502 l 17
 532 458 527 433 507 408 c 1
 524 393 535 373 535 347 c 0
 535 340 534 333 533 325 c 2
 464 0 l 1
 364 0 l 17
 364 0 348 196 281 218 c 0
 269 222 259 224 248 224 c 0
 240 224 232 223 221 220 c 0
 193 211 191 171 191 163 c 0
 191 162 191 162 191 162 c 1
 191 162 198 166 208 166 c 0
 214 166 220 164 226 159 c 0
 240 148 246 131 246 111 c 0
 246 103 245 95 243 86 c 0
 230 23 172 0 141 0 c 0
 85 0 72 28 72 57 c 0
 72 68 73 79 76 89 c 2
 101 209 l 2
 106 233 144 298 244 298 c 0
 385 298 398 202 398 168 c 0
 398 161 397 157 397 157 c 1
 433 325 l 2
 433 326 433 327 433 329 c 0
 433 355 370 366 323 366 c 8
 260 366 197 344 158 327 c 9
 134 394 l 17
 142 412 262 449 341 449 c 0
EndSplineSet
EndChar
